<svg width="645" height="49" viewBox="0 0 645 49" fill="none" xmlns="http://www.w3.org/2000/svg">
<path d="M13.7773 45.1484C11.2253 45.1484 8.80078 44.7018 6.50391 43.8086C5.82943 44.4831 5.00911 44.8203 4.04297 44.8203C3.05859 44.8203 2.21094 44.4922 1.5 43.8359C0.807292 43.1797 0.460938 42.3594 0.460938 41.375C0.460938 40.9375 0.488281 40.2721 0.542969 39.3789C0.597656 38.4674 0.625 37.793 0.625 37.3555V6.375C0.625 5.0625 0.916667 3.89583 1.5 2.875C2.22917 1.58073 3.26823 0.933594 4.61719 0.933594C6.56771 0.933594 7.54297 1.99089 7.54297 4.10547C7.54297 4.34245 7.50651 4.72526 7.43359 5.25391C7.37891 5.76432 7.35156 6.13802 7.35156 6.375V16.8477C8.70052 16.1003 9.99479 15.5443 11.2344 15.1797C12.474 14.7969 13.668 14.6055 14.8164 14.6055C19.1003 14.6055 22.5638 16.1641 25.207 19.2812C27.668 22.1979 28.8984 25.7344 28.8984 29.8906C28.8984 34.1198 27.4674 37.7018 24.6055 40.6367C21.6888 43.6445 18.0794 45.1484 13.7773 45.1484ZM14.8164 21.6055C13.8685 21.6055 12.7747 21.8789 11.5352 22.4258C10.2956 22.9727 8.90104 23.793 7.35156 24.8867C7.33333 26.6185 7.33333 30.4922 7.35156 36.5078C9.84896 37.5833 11.9909 38.1211 13.7773 38.1211C16.0924 38.1211 17.9974 37.3464 19.4922 35.7969C20.987 34.2292 21.7344 32.2604 21.7344 29.8906C21.7344 27.5208 21.1237 25.5612 19.9023 24.0117C18.6263 22.4076 16.931 21.6055 14.8164 21.6055ZM62.0391 44.3281C61.0547 44.3281 60.1523 43.9453 59.332 43.1797C53.8086 38.0026 47.7383 34.4115 41.1211 32.4062C41.3216 37.7109 41.4219 40.6549 41.4219 41.2383C41.4219 42.2773 41.0573 43.1615 40.3281 43.8906C39.599 44.6016 38.6875 44.957 37.5938 44.957C36.5 44.957 35.5885 44.6016 34.8594 43.8906C34.1302 43.1615 33.7656 42.2773 33.7656 41.2383C33.7656 39.8711 33.7839 37.8294 33.8203 35.1133C33.8568 32.3789 33.875 30.3281 33.875 28.9609L33.9297 6.89453C33.9297 5.70964 34.2852 4.63411 34.9961 3.66797C35.9258 2.42839 37.2109 1.8724 38.8516 2C43.2812 2.32812 45.5508 2.5013 45.6602 2.51953C48.2122 2.82943 50.3815 3.4401 52.168 4.35156C59.9518 8.27083 63.8438 13.1289 63.8438 18.9258C63.8438 21.3138 63.0234 23.4284 61.3828 25.2695C59.7604 27.0924 57.3177 28.6328 54.0547 29.8906C58.8854 32.5885 62.5221 35.3411 64.9648 38.1484C65.6029 38.8776 65.9219 39.6888 65.9219 40.582C65.9219 41.6029 65.5391 42.487 64.7734 43.2344C64.0078 43.9635 63.0964 44.3281 62.0391 44.3281ZM44.5117 9.92969C44.3659 9.91146 43.2995 9.83854 41.3125 9.71094V24.2305C41.7682 24.2487 42.1693 24.2578 42.5156 24.2578C46.9818 24.2578 50.2904 23.7018 52.4414 22.5898C53.3711 22.1159 54.2188 21.487 54.9844 20.7031C55.7682 19.9193 56.1602 19.3268 56.1602 18.9258C56.1602 16.8841 54.8659 14.9154 52.2773 13.0195C49.8164 11.2331 47.2279 10.2031 44.5117 9.92969ZM97.4492 8.94531C97.0846 8.94531 96.7018 8.89062 96.3008 8.78125C93.3477 7.97917 90.4766 7.57812 87.6875 7.57812C86.3203 7.57812 84.8529 7.6875 83.2852 7.90625C81.7174 8.125 80.0495 8.45312 78.2812 8.89062C78.2812 11.3151 78.1992 14.9154 78.0352 19.6914C79.056 19.6185 82.6198 19.2812 88.7266 18.6797C92.2083 18.3333 94.4141 18.1602 95.3438 18.1602C96.4193 18.1602 97.3398 18.5065 98.1055 19.1992C98.8711 19.8737 99.2539 20.776 99.2539 21.9062C99.2539 24.0755 98.0964 25.306 95.7812 25.5977C94.3229 25.707 92.1445 25.8893 89.2461 26.1445C86.6576 26.4362 82.7565 26.7917 77.543 27.2109C77.4154 29.526 77.3516 31.3945 77.3516 32.8164C77.3516 36.3893 77.5612 38.4219 77.9805 38.9141C78.181 39.151 79.3294 39.2695 81.4258 39.2695C82.556 39.2695 84.2604 39.2422 86.5391 39.1875C88.8177 39.1328 90.5221 39.1055 91.6523 39.1055C92.0169 39.1055 92.5547 39.0508 93.2656 38.9414C93.9766 38.832 94.5052 38.7773 94.8516 38.7773C95.9089 38.7773 96.8112 39.0781 97.5586 39.6797C98.4154 40.3542 98.8438 41.3021 98.8438 42.5234C98.8438 44.5651 97.7773 45.7865 95.6445 46.1875C93.8216 46.5339 90.0391 46.707 84.2969 46.707C78.3542 46.707 74.4805 45.9049 72.6758 44.3008C70.6888 42.5326 69.6953 38.7044 69.6953 32.8164C69.6953 30.3737 69.8685 26.7096 70.2148 21.8242C70.5794 16.9206 70.7617 13.2565 70.7617 10.832C70.7617 10.194 70.6706 9.25521 70.4883 8.01562C70.306 6.75781 70.2148 5.8099 70.2148 5.17188C70.2148 2.40104 71.4909 1.01562 74.043 1.01562C74.8451 1.01562 75.5833 1.24349 76.2578 1.69922C78.3724 1.17057 80.3776 0.778646 82.2734 0.523438C84.1875 0.25 85.9922 0.113281 87.6875 0.113281C92.2812 0.113281 95.9544 0.641927 98.707 1.69922C100.384 2.33724 101.223 3.49479 101.223 5.17188C101.223 6.11979 100.895 6.95833 100.238 7.6875C99.5091 8.52604 98.5794 8.94531 97.4492 8.94531ZM136.305 44.8203C134.865 44.7656 133.415 43.0703 131.957 39.7344C130.991 37.5833 130.161 35.1042 129.469 32.2969C128.12 32.4974 125.914 32.6979 122.852 32.8984C119.971 33.099 117.766 33.3359 116.234 33.6094C115.396 35.6146 113.938 38.6315 111.859 42.6602C111.057 43.9727 109.945 44.6289 108.523 44.6289C107.521 44.6289 106.618 44.2917 105.816 43.6172C105.014 42.9245 104.613 42.0495 104.613 40.9922C104.613 40.0625 105.944 36.9089 108.605 31.5312C108.35 30.9661 108.241 30.4375 108.277 29.9453C108.35 29.0703 109.234 28.3867 110.93 27.8945C113.518 23.4102 116.398 18.7617 119.57 13.9492C124.128 7.04036 126.935 3.58594 127.992 3.58594C129.997 3.58594 131.337 4.79818 132.012 7.22266C132.376 9.17318 132.951 12.099 133.734 16C134.846 21.25 136.204 27.2565 137.809 34.0195C137.936 34.5299 138.401 35.7331 139.203 37.6289C139.859 39.1966 140.188 40.3724 140.188 41.1562C140.188 42.2135 139.786 43.0977 138.984 43.8086C138.201 44.5195 137.307 44.8568 136.305 44.8203ZM126.105 16.7656C124.684 19.2083 122.724 22.5352 120.227 26.7461C121.047 26.5638 122.323 26.418 124.055 26.3086C126.096 26.181 127.382 26.0807 127.91 26.0078C127.473 23.638 126.871 20.5573 126.105 16.7656ZM153.887 31.8867L153.859 43.3984C153.859 44.2005 153.632 44.9388 153.176 45.6133C152.538 46.543 151.608 47.0078 150.387 47.0078C148.947 47.0078 147.816 46.4245 146.996 45.2578C146.358 44.3464 146.039 43.3711 146.039 42.332C146.039 38.2852 146.167 32.2057 146.422 24.0938C146.677 15.9818 146.805 9.90234 146.805 5.85547C146.805 4.83464 147.169 3.95964 147.898 3.23047C148.628 2.5013 149.539 2.13672 150.633 2.13672C151.727 2.13672 152.629 2.5013 153.34 3.23047C154.069 3.95964 154.434 4.83464 154.434 5.85547C154.434 7.49609 154.352 9.71094 154.188 12.5C153.987 15.7448 153.868 17.9596 153.832 19.1445C155.108 17.9414 159.839 12.8737 168.023 3.94141C168.862 3.02995 169.828 2.57422 170.922 2.57422C171.961 2.57422 172.863 2.9388 173.629 3.66797C174.413 4.39714 174.805 5.28125 174.805 6.32031C174.805 7.45052 172.635 10.3854 168.297 15.125C165.089 18.6068 161.707 22.043 158.152 25.4336C160.139 27.3112 162.135 29.1888 164.141 31.0664C166.474 33.2174 168.57 34.9857 170.43 36.3711C171.359 37.0456 172.362 37.556 173.438 37.9023C175.388 38.5221 176.363 39.7161 176.363 41.4844C176.363 42.2682 176.117 43.0247 175.625 43.7539C174.951 44.7383 174.012 45.2305 172.809 45.2305C170.202 45.2305 166.82 43.526 162.664 40.1172C161.424 39.0964 158.499 36.3529 153.887 31.8867ZM223.695 21.9883C223.312 21.9883 222.857 21.9792 222.328 21.9609C221.818 21.9245 221.371 21.9062 220.988 21.9062C220.241 21.9062 219.375 21.9792 218.391 22.125C218.719 29.4896 218.883 34.3021 218.883 36.5625C218.883 36.7995 218.892 37.2461 218.91 37.9023C218.928 38.5404 218.938 39.0599 218.938 39.4609C218.938 43.6536 217.616 45.75 214.973 45.75C213.97 45.75 213.104 45.4401 212.375 44.8203C211.573 44.1641 211.172 43.3438 211.172 42.3594C211.172 41.7031 211.199 40.7188 211.254 39.4062C211.309 38.0938 211.336 37.1094 211.336 36.4531C211.336 34.2474 211.172 29.526 210.844 22.2891C209.714 22.2344 208 22.0885 205.703 21.8516C203.424 21.5964 202.285 20.4115 202.285 18.2969C202.285 17.276 202.632 16.4102 203.324 15.6992C204.017 14.9883 204.91 14.6328 206.004 14.6328C206.678 14.6328 208.228 14.7422 210.652 14.9609C210.634 14.3776 210.589 13.4115 210.516 12.0625C210.443 10.8958 210.406 9.99349 210.406 9.35547C210.406 8.33464 210.78 7.48698 211.527 6.8125C212.275 6.13802 213.177 5.80078 214.234 5.80078C216.932 5.80078 218.281 8.07031 218.281 12.6094L218.227 14.8516C219.357 14.6875 220.277 14.6055 220.988 14.6055C223.085 14.6055 224.516 14.7422 225.281 15.0156C226.74 15.526 227.469 16.638 227.469 18.3516C227.469 19.3906 227.113 20.2565 226.402 20.9492C225.691 21.6419 224.789 21.9883 223.695 21.9883ZM249.508 45.668C244.112 45.668 239.518 44.1185 235.727 41.0195C231.68 37.7018 229.656 33.4089 229.656 28.1406C229.656 21.9427 231.598 16.2917 235.48 11.1875C239.837 5.44531 245.324 2.57422 251.941 2.57422C258.303 2.57422 263.07 4.03255 266.242 6.94922C269.414 9.86589 271 14.25 271 20.1016C271 26.2995 269.214 31.9141 265.641 36.9453C261.521 42.7604 256.143 45.668 249.508 45.668ZM251.941 9.98438C247.876 9.98438 244.395 11.9531 241.496 15.8906C238.78 19.5729 237.422 23.6562 237.422 28.1406C237.422 31.1667 238.598 33.6276 240.949 35.5234C243.21 37.3464 246.062 38.2578 249.508 38.2578C253.518 38.2578 256.863 36.2891 259.543 32.3516C262.004 28.7604 263.234 24.6771 263.234 20.1016C263.234 16.2734 262.378 13.612 260.664 12.1172C259.023 10.6953 256.116 9.98438 251.941 9.98438ZM319.836 16.5195C320.073 10.3034 320.355 6.01042 320.684 3.64062C320.993 1.48958 322.178 0.414062 324.238 0.414062C325.314 0.414062 326.18 0.760417 326.836 1.45312C327.492 2.14583 327.82 2.99349 327.82 3.99609C327.82 6.63932 327.611 10.5768 327.191 15.8086C326.79 21.0404 326.59 24.9779 326.59 27.6211C326.59 34.0742 326.799 38.3945 327.219 40.582C327.273 40.8737 327.301 41.138 327.301 41.375C327.301 42.3776 326.936 43.207 326.207 43.8633C325.478 44.5013 324.63 44.8203 323.664 44.8203C322.315 44.8203 321.312 44.2188 320.656 43.0156C319.417 43.763 318.132 44.319 316.801 44.6836C315.47 45.0664 314.094 45.2578 312.672 45.2578C308.589 45.2578 305.198 43.9544 302.5 41.3477C299.747 38.6862 298.371 35.2956 298.371 31.1758C298.371 26.2721 299.757 22.3164 302.527 19.3086C305.298 16.2826 308.917 14.7695 313.383 14.7695C314.75 14.7695 315.971 14.9154 317.047 15.207C318.122 15.4987 319.052 15.9362 319.836 16.5195ZM319.289 25.1328C318.688 23.9844 317.904 23.1276 316.938 22.5625C315.971 21.9974 314.823 21.7148 313.492 21.7148C310.794 21.7148 308.771 22.4987 307.422 24.0664C306.073 25.6159 305.398 27.9492 305.398 31.0664C305.398 33.0352 306.128 34.7214 307.586 36.125C309.044 37.5286 310.74 38.2305 312.672 38.2305C314.076 38.2305 315.142 38.0664 315.871 37.7383C316.363 37.5195 317.202 36.9362 318.387 35.9883C318.697 35.7331 318.997 35.4505 319.289 35.1406C319.253 34.2656 319.253 30.9297 319.289 25.1328ZM364.133 44.8203C362.693 44.7656 361.243 43.0703 359.785 39.7344C358.819 37.5833 357.99 35.1042 357.297 32.2969C355.948 32.4974 353.742 32.6979 350.68 32.8984C347.799 33.099 345.594 33.3359 344.062 33.6094C343.224 35.6146 341.766 38.6315 339.688 42.6602C338.885 43.9727 337.773 44.6289 336.352 44.6289C335.349 44.6289 334.447 44.2917 333.645 43.6172C332.842 42.9245 332.441 42.0495 332.441 40.9922C332.441 40.0625 333.772 36.9089 336.434 31.5312C336.178 30.9661 336.069 30.4375 336.105 29.9453C336.178 29.0703 337.062 28.3867 338.758 27.8945C341.346 23.4102 344.227 18.7617 347.398 13.9492C351.956 7.04036 354.763 3.58594 355.82 3.58594C357.826 3.58594 359.165 4.79818 359.84 7.22266C360.204 9.17318 360.779 12.099 361.562 16C362.674 21.25 364.033 27.2565 365.637 34.0195C365.764 34.5299 366.229 35.7331 367.031 37.6289C367.688 39.1966 368.016 40.3724 368.016 41.1562C368.016 42.2135 367.615 43.0977 366.812 43.8086C366.029 44.5195 365.135 44.8568 364.133 44.8203ZM353.934 16.7656C352.512 19.2083 350.552 22.5352 348.055 26.7461C348.875 26.5638 350.151 26.418 351.883 26.3086C353.924 26.181 355.21 26.0807 355.738 26.0078C355.301 23.638 354.699 20.5573 353.934 16.7656ZM411.957 6.07422C411.592 7.40495 411.41 8.5625 411.41 9.54688C411.41 10.0573 411.355 10.8503 411.246 11.9258C411.155 12.9831 411.109 13.7669 411.109 14.2773C411.109 16.0091 411.018 18.5794 410.836 21.9883C410.654 25.3971 410.562 27.9674 410.562 29.6992C410.562 31.0299 410.663 33.0169 410.863 35.6602C411.064 38.3034 411.164 40.2904 411.164 41.6211C411.164 42.6237 410.809 43.4714 410.098 44.1641C409.387 44.8568 408.503 45.2031 407.445 45.2031C406.37 45.2031 405.44 44.8568 404.656 44.1641C403.872 43.4896 403.48 42.6602 403.48 41.6758C403.48 40.3451 403.417 38.349 403.289 35.6875C403.18 33.026 403.125 31.0299 403.125 29.6992C403.125 28.6602 403.143 27.7396 403.18 26.9375C400.318 27.0651 396.781 27.5117 392.57 28.2773C389.07 28.9154 385.57 29.5625 382.07 30.2188C382.034 31.4583 381.906 33.5273 381.688 36.4258C381.505 38.9779 381.414 41.0651 381.414 42.6875C381.414 43.6901 381.059 44.5378 380.348 45.2305C379.637 45.9232 378.753 46.2695 377.695 46.2695C376.638 46.2695 375.754 45.9232 375.043 45.2305C374.332 44.5378 373.977 43.6901 373.977 42.6875C373.977 40.8464 374.132 38.0938 374.441 34.4297C374.77 30.7656 374.934 28.013 374.934 26.1719C374.934 23.8385 374.988 20.3294 375.098 15.6445C375.207 10.9414 375.262 7.42318 375.262 5.08984C375.262 4.08724 375.617 3.23958 376.328 2.54688C377.039 1.85417 377.923 1.50781 378.98 1.50781C380.038 1.50781 380.922 1.85417 381.633 2.54688C382.344 3.23958 382.699 4.08724 382.699 5.08984C382.699 6.47526 382.645 8.5625 382.535 11.3516C382.444 14.1224 382.398 16.2005 382.398 17.5859C382.398 18.0417 382.335 18.9167 382.207 20.2109C382.098 21.4141 382.052 22.3346 382.07 22.9727L392.57 21.0039C396.672 20.2747 400.208 19.8555 403.18 19.7461C403.253 18.5247 403.371 15.2435 403.535 9.90234C403.572 8.4987 404 6.88542 404.82 5.0625C405.841 2.82031 406.999 1.69922 408.293 1.69922C409.259 1.69922 410.116 2.01823 410.863 2.65625C411.665 3.34896 412.066 4.21484 412.066 5.25391C412.066 5.52734 412.03 5.80078 411.957 6.07422ZM454.012 15.918C456.454 15.6992 458.204 15.5898 459.262 15.5898C462.671 15.5898 464.375 16.7565 464.375 19.0898C464.375 21.4961 462.561 22.6445 458.934 22.5352C457.785 22.4987 456.044 22.5807 453.711 22.7812C453.638 24.7135 453.62 27.1745 453.656 30.1641C453.729 34.4661 453.766 36.918 453.766 37.5195C453.766 40.8555 453.556 43.4987 453.137 45.4492C452.717 47.3997 451.514 48.375 449.527 48.375C448.507 48.375 447.613 48.0469 446.848 47.3906C446.1 46.7344 445.727 45.9049 445.727 44.9023C445.727 44.6654 445.745 44.4375 445.781 44.2188C446.219 41.612 446.438 39.1602 446.438 36.8633V23.1914C446.109 23.2096 445.508 23.2826 444.633 23.4102C443.94 23.5013 443.411 23.5469 443.047 23.5469C441.935 23.5469 441.014 23.2279 440.285 22.5898C439.556 21.9336 439.191 21.0586 439.191 19.9648C439.191 18.2695 440.085 17.1576 441.871 16.6289C442.673 16.3919 444.268 16.237 446.656 16.1641C446.674 15.8359 446.793 14.806 447.012 13.0742C447.522 9.00911 448.625 5.98307 450.32 3.99609C452.435 1.51693 455.68 0.277344 460.055 0.277344C463.391 0.277344 465.059 1.47135 465.059 3.85938C465.059 6.22917 463.509 7.41406 460.41 7.41406C458.204 7.41406 456.6 8.1888 455.598 9.73828C454.85 10.8867 454.349 12.6823 454.094 15.125L454.012 15.918ZM498.281 39.2695C496.951 41.0742 495.346 42.5781 493.469 43.7812C491.172 45.2396 488.811 45.9688 486.387 45.9688C481.738 45.9688 478.284 45.0755 476.023 43.2891C471.247 39.5156 468.859 32.9622 468.859 23.6289C468.859 22.7357 468.905 21.4049 468.996 19.6367C469.087 17.8685 469.133 16.5378 469.133 15.6445C469.133 14.9336 469.151 13.8763 469.188 12.4727C469.224 11.0508 469.242 9.98438 469.242 9.27344C469.242 7.8151 469.507 6.4388 470.035 5.14453C470.746 3.43099 471.74 2.57422 473.016 2.57422C474.018 2.57422 474.902 2.90234 475.668 3.55859C476.507 4.2513 476.926 5.14453 476.926 6.23828C476.926 7.27734 476.908 8.85417 476.871 10.9688C476.853 13.0651 476.844 14.6419 476.844 15.6992C476.844 16.5742 476.798 17.8958 476.707 19.6641C476.616 21.4323 476.57 22.7539 476.57 23.6289C476.57 26.4544 476.898 29.0794 477.555 31.5039C478.32 34.4023 479.441 36.4258 480.918 37.5742C481.684 38.1758 483.507 38.4948 486.387 38.5312C491.199 38.6042 494.444 34.5026 496.121 26.2266C496.996 21.9427 497.434 15.9271 497.434 8.17969C497.434 7.15885 497.734 6.17448 498.336 5.22656C499.156 3.96875 500.323 3.33984 501.836 3.33984C503.076 3.33984 504.005 3.79557 504.625 4.70703C505.099 5.38151 505.336 6.12891 505.336 6.94922C505.336 14.1497 504.999 19.7643 504.324 23.793C503.303 30.0091 501.289 35.168 498.281 39.2695ZM543.453 11.2148C542.031 11.2148 539.816 11.1146 536.809 10.9141C533.91 10.7135 531.695 10.6224 530.164 10.6406C530.237 12.7188 530.483 16.4193 530.902 21.7422C531.285 26.4453 531.477 30.1641 531.477 32.8984C531.477 33.5182 531.54 34.4388 531.668 35.6602C531.796 36.8815 531.859 37.8021 531.859 38.4219C531.859 39.7891 531.568 41.0195 530.984 42.1133C530.237 43.5169 529.171 44.2188 527.785 44.2188C526.783 44.2188 525.898 43.8997 525.133 43.2617C524.276 42.5508 523.848 41.6576 523.848 40.582C523.848 40.3268 523.893 39.944 523.984 39.4336C524.076 38.9049 524.121 38.5039 524.121 38.2305C524.121 37.3919 524.057 36.125 523.93 34.4297C523.82 32.7344 523.766 31.4583 523.766 30.6016C523.766 28.1589 523.574 24.8503 523.191 20.6758C522.754 15.8815 522.499 12.5729 522.426 10.75H521.004C516.939 10.75 513.712 10.4583 511.324 9.875C509.301 9.38281 508.289 8.1888 508.289 6.29297C508.289 5.36328 508.617 4.52474 509.273 3.77734C510.039 2.88411 511.042 2.48307 512.281 2.57422C512.919 2.61068 514.368 2.76562 516.629 3.03906C518.434 3.23958 519.892 3.33984 521.004 3.33984C522.116 3.33984 523.775 3.32161 525.98 3.28516C528.204 3.2487 529.872 3.23047 530.984 3.23047C532.37 3.23047 534.448 3.33073 537.219 3.53125C539.99 3.71354 542.068 3.80469 543.453 3.80469C544.547 3.80469 545.458 4.16016 546.188 4.87109C546.935 5.58203 547.309 6.45703 547.309 7.49609C547.309 8.53516 546.935 9.41927 546.188 10.1484C545.458 10.8594 544.547 11.2148 543.453 11.2148ZM578.562 39.2695C577.232 41.0742 575.628 42.5781 573.75 43.7812C571.453 45.2396 569.092 45.9688 566.668 45.9688C562.02 45.9688 558.565 45.0755 556.305 43.2891C551.529 39.5156 549.141 32.9622 549.141 23.6289C549.141 22.7357 549.186 21.4049 549.277 19.6367C549.368 17.8685 549.414 16.5378 549.414 15.6445C549.414 14.9336 549.432 13.8763 549.469 12.4727C549.505 11.0508 549.523 9.98438 549.523 9.27344C549.523 7.8151 549.788 6.4388 550.316 5.14453C551.027 3.43099 552.021 2.57422 553.297 2.57422C554.299 2.57422 555.184 2.90234 555.949 3.55859C556.788 4.2513 557.207 5.14453 557.207 6.23828C557.207 7.27734 557.189 8.85417 557.152 10.9688C557.134 13.0651 557.125 14.6419 557.125 15.6992C557.125 16.5742 557.079 17.8958 556.988 19.6641C556.897 21.4323 556.852 22.7539 556.852 23.6289C556.852 26.4544 557.18 29.0794 557.836 31.5039C558.602 34.4023 559.723 36.4258 561.199 37.5742C561.965 38.1758 563.788 38.4948 566.668 38.5312C571.48 38.6042 574.725 34.5026 576.402 26.2266C577.277 21.9427 577.715 15.9271 577.715 8.17969C577.715 7.15885 578.016 6.17448 578.617 5.22656C579.438 3.96875 580.604 3.33984 582.117 3.33984C583.357 3.33984 584.286 3.79557 584.906 4.70703C585.38 5.38151 585.617 6.12891 585.617 6.94922C585.617 14.1497 585.28 19.7643 584.605 23.793C583.585 30.0091 581.57 35.168 578.562 39.2695ZM614 24.2852C613.836 27.0742 612.569 28.4688 610.199 28.4688C607.902 28.4688 606.754 27.2839 606.754 24.9141L606.617 22.1523C602.516 22.8086 599.581 24.9141 597.812 28.4688L597.84 42.2227C597.84 43.2617 597.484 44.1185 596.773 44.793C596.062 45.4857 595.16 45.832 594.066 45.832C592.936 45.832 592.061 45.4674 591.441 44.7383C590.858 44.082 590.566 43.2435 590.566 42.2227V24.3125C590.566 23.7474 590.585 22.9089 590.621 21.7969C590.658 20.6667 590.676 19.819 590.676 19.2539C590.676 18.2331 590.977 17.3854 591.578 16.7109C592.198 16.0182 593.073 15.6719 594.203 15.6719C596.227 15.6719 597.43 16.7109 597.812 18.7891C601.039 16.3828 604.621 15.1797 608.559 15.1797C612.204 15.1797 614.027 17.6042 614.027 22.4531C614.027 23.3828 614.018 23.9935 614 24.2852ZM631.773 45.2578C627.417 45.2578 623.853 44.2188 621.082 42.1406C618.02 39.8438 616.488 36.6081 616.488 32.4336C616.488 27.8216 617.701 23.9206 620.125 20.7305C622.823 17.194 626.46 15.4258 631.035 15.4258C634.207 15.4258 636.841 15.9362 638.938 16.957C641.69 18.306 643.066 20.4023 643.066 23.2461C643.066 25.2513 641.945 27.0286 639.703 28.5781C638.682 29.2891 636.632 30.3281 633.551 31.6953L624.336 35.7695C625.211 36.7174 626.268 37.4284 627.508 37.9023C628.747 38.3763 630.169 38.6133 631.773 38.6133C634.216 38.6133 636.285 38.112 637.98 37.1094C639.493 36.2161 640.706 35.7695 641.617 35.7695C643.513 35.7695 644.461 36.6901 644.461 38.5312C644.461 40.6094 642.939 42.3047 639.895 43.6172C637.342 44.7109 634.635 45.2578 631.773 45.2578ZM631.035 22.043C629.34 22.043 627.891 22.6081 626.688 23.7383C625.484 24.8685 624.518 26.5638 623.789 28.8242C625.849 27.931 627.9 27.0469 629.941 26.1719C632.402 25.0599 634.362 24.0299 635.82 23.082C634.599 22.3893 633.004 22.043 631.035 22.043Z" fill="white"/>
</svg>
