<svg width="509" height="192" viewBox="0 0 509 192" fill="none" xmlns="http://www.w3.org/2000/svg">
<path d="M27.5544 14.0238C25.9888 14.0238 24.832 13.2014 24.084 11.5567C23.7361 10.7776 23.3882 10.3101 23.0403 10.1543C22.7794 10.0331 22.0922 9.97248 20.9789 9.97248C18.7871 9.97248 16.2561 11.6692 13.3858 15.0626C9.36746 19.8065 7.35828 24.2473 7.35828 28.3852C7.35828 30.2724 7.99322 31.8912 9.26308 33.2416C10.533 34.5921 12.0551 35.2673 13.8294 35.2673C15.5515 35.2673 17.2998 34.8171 19.0741 33.9168C19.7004 33.5879 21.0224 32.7395 23.0403 31.3718C24.3971 30.4715 25.4235 30.0213 26.1193 30.0213C27.163 30.0213 28.0502 30.4022 28.7808 31.164C29.4592 31.8739 29.7984 32.6876 29.7984 33.6052C29.7984 34.6267 29.3461 35.5183 28.4416 36.2801C23.6578 40.2968 18.7871 42.3051 13.8294 42.3051C9.91541 42.3051 6.61028 40.8855 3.91398 38.0461C1.33945 35.3106 0.0521864 32.0903 0.0521864 28.3852C0.0521864 22.5853 2.60062 16.6641 7.69749 10.6217C12.029 5.49699 16.4561 2.93461 20.9789 2.93461C21.7443 2.93461 22.4315 2.96058 23.0403 3.01252C23.6665 3.06446 24.2145 3.14237 24.6842 3.24625C25.4496 2.50178 26.3715 2.12954 27.45 2.12954C29.2244 2.12954 30.3203 3.14237 30.7378 5.16803C31.0335 6.62235 31.1814 8.31906 31.1814 10.2582C31.1814 11.1238 30.9291 11.9116 30.4247 12.6214C29.7636 13.5563 28.8069 14.0238 27.5544 14.0238Z" fill="black"/>
<path d="M52.343 43.266C47.1939 43.266 42.8102 41.7944 39.192 38.8511C35.3302 35.7001 33.3993 31.6228 33.3993 26.6193C33.3993 20.7327 35.2519 15.3656 38.9571 10.5179C43.1147 5.06415 48.3507 2.3373 54.6652 2.3373C60.7363 2.3373 65.2852 3.72237 68.312 6.4925C71.3388 9.26264 72.8522 13.4265 72.8522 18.9841C72.8522 24.8706 71.1474 30.2031 67.7379 34.9816C63.8066 40.5046 58.6749 43.266 52.343 43.266ZM54.6652 9.37517C50.7861 9.37517 47.4635 11.245 44.6976 14.9847C42.1057 18.482 40.8098 22.3602 40.8098 26.6193C40.8098 29.4933 41.9318 31.8306 44.1758 33.6312C46.3328 35.3625 49.0552 36.2282 52.343 36.2282C56.17 36.2282 59.362 34.3583 61.9192 30.6186C64.2675 27.2079 65.4417 23.3297 65.4417 18.9841C65.4417 15.3483 64.6242 12.8205 62.989 11.4008C61.4234 10.0504 58.6488 9.37517 54.6652 9.37517Z" fill="black"/>
<path d="M88.3255 21.1656C87.5427 23.9703 86.4468 28.2034 85.0377 33.8649C84.7072 35.8213 84.3854 37.7691 84.0723 39.7081C83.3591 42.1666 82.0457 43.3959 80.1322 43.3959C78.9319 43.3959 77.9839 42.989 77.288 42.1753C76.6966 41.4828 76.4009 40.6604 76.4009 39.7081C76.4009 36.9034 77.001 33.484 78.2013 29.45C79.993 23.4076 80.9585 20.0575 81.0977 19.3996C81.6021 16.7333 82.1153 14.0671 82.6372 11.4008C83.4199 7.73041 84.2636 5.28923 85.1682 4.07729C86.0902 2.84804 87.247 2.23342 88.6386 2.23342C90.2216 2.23342 91.3871 3.02983 92.1351 4.62266C92.8309 6.12892 93.5789 9.2107 94.3791 13.868C95.1445 18.3868 96.2839 23.2518 97.7973 28.4631C99.7804 23.3211 101.624 17.6769 103.329 11.5307L104.79 5.55758C105.73 3.08177 107.182 1.84387 109.148 1.84387C111.044 1.84387 112.453 3.28088 113.375 6.15489C113.758 7.31489 114.166 9.47905 114.601 12.6474C115.61 20.0229 116.88 26.3422 118.411 31.6055C119.959 36.9553 120.733 39.864 120.733 40.3314C120.733 41.3529 120.324 42.2099 119.507 42.9025C118.741 43.5257 117.88 43.8374 116.924 43.8374C115.028 43.8374 113.618 42.4869 112.697 39.7861L111.235 33.5013C110.4 30.3849 109.496 25.9094 108.522 20.0748C107.739 22.3948 106.443 26.0393 104.634 31.0082L103.068 35.7867C102.424 37.6738 101.755 39.2234 101.059 40.4353C100.137 42.0454 98.8497 42.8505 97.1972 42.8505C95.562 42.8505 94.3095 41.8896 93.4397 39.9678L91.9785 35.1374C90.6217 30.7052 89.404 26.0479 88.3255 21.1656Z" fill="black"/>
<path d="M132.475 27.1906C132.179 27.1906 131.449 27.13 130.283 27.0088C130.179 29.4327 130.127 33.4147 130.127 38.955C130.127 39.8726 129.805 40.6604 129.161 41.3183C128.518 41.9762 127.7 42.3051 126.709 42.3051C125.717 42.3051 124.891 41.9762 124.23 41.3183C123.586 40.6604 123.264 39.8726 123.264 38.955V31.7094C123.264 29.0258 123.438 25.0524 123.786 19.7891C124.117 14.4393 124.291 10.4486 124.308 7.81697C124.325 3.3155 125.595 1.15999 128.118 1.35044C128.709 1.19462 129.527 1.08208 130.57 1.01283C131.614 0.926264 132.884 0.88298 134.38 0.88298C137.789 0.88298 140.99 1.98238 143.982 4.18117C147.305 6.63967 148.966 9.63487 148.966 13.1668C148.966 17.599 147.2 21.1223 143.669 23.7366C140.538 26.0393 136.807 27.1906 132.475 27.1906ZM133.78 7.58324C133.223 7.58324 132.727 7.5919 132.293 7.60921C131.875 7.60921 131.518 7.62653 131.223 7.66115C131.223 8.47488 131.214 9.69547 131.197 11.3229C131.162 13.2447 130.997 16.2399 130.701 20.3085C131.588 20.4471 132.179 20.5163 132.475 20.5163C135.189 20.5163 137.442 19.8757 139.233 18.5945C141.147 17.2268 142.104 15.4175 142.104 13.1668C142.104 11.6952 141.208 10.388 139.416 9.24532C137.694 8.13727 135.815 7.58324 133.78 7.58324Z" fill="black"/>
<path d="M180.304 37.1891C179.034 38.9031 177.503 40.3314 175.712 41.4741C173.52 42.8592 171.267 43.5517 168.953 43.5517C164.518 43.5517 161.221 42.7034 159.064 41.0066C154.507 37.4228 152.228 31.1986 152.228 22.3342C152.228 21.4859 152.271 20.222 152.358 18.5426C152.445 16.8632 152.489 15.5993 152.489 14.751C152.489 14.0757 152.506 13.0716 152.541 11.7384C152.576 10.388 152.593 9.37517 152.593 8.69995C152.593 7.31489 152.845 6.00773 153.35 4.77848C154.028 3.15103 154.976 2.3373 156.194 2.3373C157.151 2.3373 157.994 2.64894 158.725 3.27222C159.525 3.93013 159.925 4.77848 159.925 5.81728C159.925 6.80414 159.908 8.30175 159.873 10.3101C159.856 12.3011 159.847 13.7987 159.847 14.8029C159.847 15.6339 159.803 16.8892 159.716 18.5686C159.629 20.248 159.586 21.5032 159.586 22.3342C159.586 25.0178 159.899 27.5109 160.525 29.8136C161.256 32.5664 162.326 34.4882 163.735 35.5789C164.465 36.1503 166.205 36.4532 168.953 36.4879C173.546 36.5571 176.642 32.6616 178.243 24.8014C179.078 20.7327 179.495 15.0193 179.495 7.66115C179.495 6.69161 179.782 5.75669 180.356 4.85639C181.139 3.66177 182.252 3.06446 183.696 3.06446C184.879 3.06446 185.766 3.49729 186.358 4.36296C186.81 5.00356 187.036 5.7134 187.036 6.4925C187.036 13.3313 186.714 18.6638 186.071 22.49C185.096 28.3939 183.174 33.2936 180.304 37.1891Z" fill="black"/>
<path d="M223.41 10.5438C222.053 10.5438 219.94 10.4486 217.069 10.2582C214.303 10.0677 212.19 9.98114 210.729 9.99845C210.798 11.9722 211.033 15.4868 211.433 20.5423C211.798 25.0091 211.981 28.541 211.981 31.138C211.981 31.7267 212.042 32.601 212.164 33.761C212.286 34.921 212.346 35.7953 212.346 36.384C212.346 37.6825 212.068 38.8511 211.511 39.8899C210.798 41.2231 209.781 41.8896 208.459 41.8896C207.502 41.8896 206.658 41.5866 205.928 40.9807C205.11 40.3055 204.701 39.4571 204.701 38.4356C204.701 38.1932 204.745 37.8296 204.832 37.3449C204.919 36.8428 204.962 36.4619 204.962 36.2022C204.962 35.4058 204.901 34.2025 204.779 32.5924C204.675 30.9822 204.623 29.7703 204.623 28.9566C204.623 26.6366 204.44 23.4942 204.075 19.5294C203.657 14.976 203.414 11.8337 203.344 10.1023H201.987C198.108 10.1023 195.029 9.82532 192.75 9.27129C190.82 8.80383 189.854 7.66981 189.854 5.86922C189.854 4.98624 190.167 4.18983 190.793 3.47998C191.524 2.63163 192.481 2.25073 193.664 2.3373C194.273 2.37193 195.655 2.51909 197.813 2.77879C199.535 2.96924 200.926 3.06446 201.987 3.06446C203.049 3.06446 204.632 3.04715 206.736 3.01252C208.859 2.97789 210.45 2.96058 211.511 2.96058C212.834 2.96058 214.817 3.0558 217.461 3.24625C220.105 3.41938 222.088 3.50595 223.41 3.50595C224.454 3.50595 225.323 3.84356 226.019 4.51878C226.732 5.194 227.089 6.02504 227.089 7.0119C227.089 7.99876 226.732 8.83846 226.019 9.53099C225.323 10.2062 224.454 10.5438 223.41 10.5438Z" fill="black"/>
<path d="M255.739 8.38831C255.392 8.38831 255.026 8.33637 254.644 8.23249C251.825 7.47071 249.086 7.08981 246.424 7.08981C245.119 7.08981 243.719 7.19369 242.223 7.40145C240.727 7.60921 239.135 7.92085 237.448 8.33637C237.448 10.639 237.37 14.0584 237.213 18.5945C238.187 18.5253 241.588 18.205 247.416 17.6336C250.738 17.3047 252.843 17.1402 253.73 17.1402C254.757 17.1402 255.635 17.4692 256.366 18.1271C257.096 18.7677 257.462 19.6247 257.462 20.6981C257.462 22.7584 256.357 23.927 254.148 24.204C252.756 24.3079 250.677 24.4811 247.911 24.7234C245.441 25.0005 241.719 25.3381 236.744 25.7363C236.622 27.9351 236.561 29.7097 236.561 31.0601C236.561 34.4535 236.761 36.384 237.161 36.8514C237.352 37.0765 238.448 37.1891 240.449 37.1891C241.527 37.1891 243.154 37.1631 245.328 37.1111C247.503 37.0592 249.129 37.0332 250.208 37.0332C250.556 37.0332 251.069 36.9813 251.747 36.8774C252.426 36.7735 252.93 36.7216 253.261 36.7216C254.27 36.7216 255.131 37.0073 255.844 37.5786C256.661 38.2192 257.07 39.1195 257.07 40.2795C257.07 42.2186 256.053 43.3786 254.017 43.7595C252.278 44.0884 248.668 44.2529 243.189 44.2529C237.518 44.2529 233.821 43.4911 232.099 41.9675C230.203 40.2881 229.255 36.6523 229.255 31.0601C229.255 28.7401 229.42 25.2602 229.751 20.6202C230.099 15.9629 230.272 12.4829 230.272 10.1802C230.272 9.57428 230.185 8.68264 230.012 7.50533C229.838 6.31071 229.751 5.41042 229.751 4.80445C229.751 2.17282 230.968 0.85701 233.404 0.85701C234.169 0.85701 234.874 1.07343 235.517 1.50626C237.535 1.00417 239.449 0.631937 241.258 0.38955C243.084 0.12985 244.806 0 246.424 0C250.808 0 254.313 0.502087 256.94 1.50626C258.54 2.11223 259.34 3.21162 259.34 4.80445C259.34 5.70475 259.027 6.50116 258.401 7.19369C257.705 7.99011 256.818 8.38831 255.739 8.38831Z" fill="black"/>
<path d="M289.582 41.9935C288.643 41.9935 287.782 41.6299 286.999 40.9028C281.728 35.9858 275.936 32.575 269.621 30.6706C269.812 35.7088 269.908 38.5049 269.908 39.0589C269.908 40.0458 269.56 40.8855 268.864 41.578C268.168 42.2532 267.299 42.5908 266.255 42.5908C265.211 42.5908 264.341 42.2532 263.646 41.578C262.95 40.8855 262.602 40.0458 262.602 39.0589C262.602 37.7604 262.619 35.8213 262.654 33.2416C262.689 30.6446 262.706 28.6969 262.706 27.3984L262.758 6.44056C262.758 5.3152 263.098 4.29371 263.776 3.3761C264.663 2.19879 265.89 1.67074 267.455 1.79193C271.682 2.10357 273.848 2.26805 273.952 2.28536C276.388 2.57969 278.458 3.15968 280.163 4.02535C287.591 7.74772 291.304 12.3617 291.304 17.8674C291.304 20.1354 290.522 22.1438 288.956 23.8924C287.408 25.6237 285.077 27.0867 281.963 28.2813C286.573 30.8437 290.043 33.458 292.374 36.1243C292.983 36.8168 293.288 37.5873 293.288 38.4356C293.288 39.4052 292.922 40.2449 292.192 40.9547C291.461 41.6472 290.591 41.9935 289.582 41.9935ZM272.857 9.32323C272.717 9.30592 271.7 9.23667 269.804 9.11547V22.9055C270.239 22.9229 270.621 22.9315 270.952 22.9315C275.214 22.9315 278.371 22.4035 280.424 21.3473C281.311 20.8972 282.12 20.2999 282.85 19.5554C283.598 18.8109 283.972 18.2483 283.972 17.8674C283.972 15.9283 282.737 14.0584 280.267 12.2578C277.919 10.5611 275.448 9.58293 272.857 9.32323Z" fill="black"/>
<path d="M346.987 41.9935C346.048 41.9935 345.187 41.6299 344.404 40.9028C339.133 35.9858 333.341 32.575 327.026 30.6706C327.217 35.7088 327.313 38.5049 327.313 39.0589C327.313 40.0458 326.965 40.8855 326.269 41.578C325.574 42.2532 324.704 42.5908 323.66 42.5908C322.616 42.5908 321.747 42.2532 321.051 41.578C320.355 40.8855 320.007 40.0458 320.007 39.0589C320.007 37.7604 320.024 35.8213 320.059 33.2416C320.094 30.6446 320.111 28.6969 320.111 27.3984L320.164 6.44056C320.164 5.3152 320.503 4.29371 321.181 3.3761C322.068 2.19879 323.295 1.67074 324.86 1.79193C329.087 2.10357 331.253 2.26805 331.358 2.28536C333.793 2.57969 335.863 3.15968 337.568 4.02535C344.996 7.74772 348.709 12.3617 348.709 17.8674C348.709 20.1354 347.927 22.1438 346.361 23.8924C344.813 25.6237 342.482 27.0867 339.368 28.2813C343.978 30.8437 347.448 33.458 349.779 36.1243C350.388 36.8168 350.693 37.5873 350.693 38.4356C350.693 39.4052 350.327 40.2449 349.597 40.9547C348.866 41.6472 347.996 41.9935 346.987 41.9935ZM330.262 9.32323C330.122 9.30592 329.105 9.23667 327.209 9.11547V22.9055C327.644 22.9229 328.026 22.9315 328.357 22.9315C332.619 22.9315 335.776 22.4035 337.829 21.3473C338.716 20.8972 339.525 20.2999 340.255 19.5554C341.003 18.8109 341.377 18.2483 341.377 17.8674C341.377 15.9283 340.142 14.0584 337.672 12.2578C335.324 10.5611 332.854 9.58293 330.262 9.32323Z" fill="black"/>
<path d="M404.392 41.9935C403.453 41.9935 402.592 41.6299 401.809 40.9028C396.538 35.9858 390.746 32.575 384.431 30.6706C384.622 35.7088 384.718 38.5049 384.718 39.0589C384.718 40.0458 384.37 40.8855 383.674 41.578C382.979 42.2532 382.109 42.5908 381.065 42.5908C380.021 42.5908 379.152 42.2532 378.456 41.578C377.76 40.8855 377.412 40.0458 377.412 39.0589C377.412 37.7604 377.429 35.8213 377.464 33.2416C377.499 30.6446 377.516 28.6969 377.516 27.3984L377.569 6.44056C377.569 5.3152 377.908 4.29371 378.586 3.3761C379.473 2.19879 380.7 1.67074 382.265 1.79193C386.492 2.10357 388.658 2.26805 388.763 2.28536C391.198 2.57969 393.268 3.15968 394.973 4.02535C402.401 7.74772 406.115 12.3617 406.115 17.8674C406.115 20.1354 405.332 22.1438 403.766 23.8924C402.218 25.6237 399.887 27.0867 396.773 28.2813C401.383 30.8437 404.853 33.458 407.184 36.1243C407.793 36.8168 408.098 37.5873 408.098 38.4356C408.098 39.4052 407.732 40.2449 407.002 40.9547C406.271 41.6472 405.401 41.9935 404.392 41.9935ZM387.667 9.32323C387.527 9.30592 386.51 9.23667 384.614 9.11547V22.9055C385.049 22.9229 385.431 22.9315 385.762 22.9315C390.024 22.9315 393.181 22.4035 395.234 21.3473C396.121 20.8972 396.93 20.2999 397.66 19.5554C398.408 18.8109 398.782 18.2483 398.782 17.8674C398.782 15.9283 397.547 14.0584 395.077 12.2578C392.729 10.5611 390.259 9.58293 387.667 9.32323Z" fill="black"/>
<path d="M439.357 37.1891C438.087 38.9031 436.557 40.3314 434.765 41.4741C432.573 42.8592 430.32 43.5517 428.007 43.5517C423.571 43.5517 420.274 42.7034 418.117 41.0066C413.56 37.4228 411.281 31.1986 411.281 22.3342C411.281 21.4859 411.324 20.222 411.411 18.5426C411.498 16.8632 411.542 15.5993 411.542 14.751C411.542 14.0757 411.559 13.0716 411.594 11.7384C411.629 10.388 411.646 9.37517 411.646 8.69995C411.646 7.31489 411.899 6.00773 412.403 4.77848C413.081 3.15103 414.029 2.3373 415.247 2.3373C416.204 2.3373 417.048 2.64894 417.778 3.27222C418.578 3.93013 418.978 4.77848 418.978 5.81728C418.978 6.80414 418.961 8.30175 418.926 10.3101C418.909 12.3011 418.9 13.7987 418.9 14.8029C418.9 15.6339 418.857 16.8892 418.77 18.5686C418.683 20.248 418.639 21.5032 418.639 22.3342C418.639 25.0178 418.952 27.5109 419.579 29.8136C420.309 32.5664 421.379 34.4882 422.788 35.5789C423.519 36.1503 425.258 36.4532 428.007 36.4879C432.599 36.5571 435.695 32.6616 437.296 24.8014C438.131 20.7327 438.548 15.0193 438.548 7.66115C438.548 6.69161 438.835 5.75669 439.409 4.85639C440.192 3.66177 441.306 3.06446 442.749 3.06446C443.932 3.06446 444.819 3.49729 445.411 4.36296C445.863 5.00356 446.089 5.7134 446.089 6.4925C446.089 13.3313 445.767 18.6638 445.124 22.49C444.15 28.3939 442.227 33.2936 439.357 37.1891Z" fill="black"/>
<path d="M463.546 43.266C459.127 43.266 455.648 42.2878 453.108 40.3314C450.969 38.704 449.899 36.8255 449.899 34.6959C449.899 33.6052 450.229 32.7049 450.89 31.9951C451.551 31.2679 452.465 30.9043 453.63 30.9043C455.196 30.9043 456.344 31.7007 457.075 33.2936C458.066 35.4231 460.31 36.4879 463.807 36.4879C466.799 36.4879 469.695 35.8386 472.496 34.5401C475.401 33.207 476.853 31.744 476.853 30.1512C476.853 27.9697 475.949 26.5327 474.139 25.8402C472.852 25.3381 470.269 25.0437 466.39 24.9572C463.38 24.8879 460.684 24.3252 458.301 23.2691C455.083 21.8321 453.5 19.7718 453.552 17.0883C453.604 13.7122 455.413 10.6217 458.979 7.81697C462.545 4.9949 466.477 3.58386 470.773 3.58386C472.478 3.58386 474.583 3.97341 477.088 4.75251C480.202 5.72206 481.759 6.83877 481.759 8.10264C481.759 9.00294 481.446 9.79935 480.819 10.4919C480.124 11.271 479.228 11.6605 478.132 11.6605C477.314 11.6605 476.088 11.4874 474.453 11.1411C472.835 10.7949 471.608 10.6217 470.773 10.6217C468.529 10.639 466.398 11.1758 464.381 12.2319C462.293 13.3053 461.249 14.474 461.249 15.7378C461.249 16.3957 461.563 16.9411 462.189 17.3739C462.832 17.7895 463.789 18.0838 465.059 18.2569C467.286 18.3781 469.504 18.4993 471.713 18.6205C475.575 18.9148 478.628 19.9969 480.872 21.8667C483.342 23.9443 484.577 26.8184 484.577 30.4888C484.577 34.9556 482.02 38.3404 476.905 40.6431C473.009 42.3917 468.556 43.266 463.546 43.266Z" fill="black"/>
<path d="M21.8139 114.75C17.7608 116.257 12.6378 117.01 6.44502 117.01C5.40129 117.01 4.46194 116.577 3.62695 115.711C2.80937 114.846 2.40057 113.919 2.40057 112.932V85.4042C2.34839 84.2269 2.3049 83.0496 2.27011 81.8723C2.21792 80.5392 2.26141 79.4138 2.40057 78.4962C2.64411 76.8688 4.16621 75.8819 6.96688 75.5356C8.28894 75.1547 10.4808 74.9643 13.5424 74.9643C16.8301 74.9643 19.9787 76.0204 22.9881 78.1326C26.5194 80.5911 28.285 83.6642 28.285 87.352C28.285 89.343 27.9197 91.0224 27.1891 92.3902C26.6151 93.4982 25.6148 94.6842 24.1884 95.9481C25.8758 96.7618 27.3718 97.991 28.6764 99.6358C30.155 101.471 30.8943 103.298 30.8943 105.115C30.8943 107.418 29.6332 109.6 27.1108 111.66C25.4235 113.028 23.6578 114.058 21.8139 114.75ZM13.5424 82.0022C11.2984 82.0022 9.95021 82.0195 9.49792 82.0541L9.52402 87.5597L9.49792 93.0134C11.0809 93.2039 12.2725 93.2645 13.0727 93.1952C18.3957 92.7797 21.0572 90.832 21.0572 87.352C21.0572 86.1227 20.2744 84.9368 18.7088 83.7941C17.091 82.5995 15.3689 82.0022 13.5424 82.0022ZM16.5953 100.363C15.0123 100.363 12.6465 100.302 9.49792 100.181V109.894C12.4899 109.738 15.7342 109.167 19.2307 108.18C22.2923 107.314 23.8057 106.379 23.7709 105.375C23.7187 104.042 22.7359 102.856 20.8224 101.817C19.3264 100.986 17.9173 100.501 16.5953 100.363Z" fill="black"/>
<path d="M61.3973 82.4696C61.0494 82.4696 60.6841 82.4177 60.3014 82.3138C57.4833 81.552 54.7435 81.1711 52.082 81.1711C50.7774 81.1711 49.377 81.275 47.881 81.4828C46.385 81.6905 44.7933 82.0022 43.106 82.4177C43.106 84.7204 43.0277 88.1397 42.8711 92.6758C43.8453 92.6066 47.2461 92.2863 53.0736 91.7149C56.3961 91.386 58.5009 91.2215 59.3881 91.2215C60.4144 91.2215 61.2929 91.5505 62.0235 92.2084C62.7541 92.849 63.1194 93.706 63.1194 94.7794C63.1194 96.8397 62.0148 98.0083 59.8056 98.2854C58.414 98.3892 56.3352 98.5624 53.5693 98.8048C51.0992 99.0818 47.3765 99.4194 42.4014 99.8176C42.2797 102.016 42.2188 103.791 42.2188 105.141C42.2188 108.535 42.4188 110.465 42.8189 110.933C43.0103 111.158 44.1062 111.27 46.1067 111.27C47.1852 111.27 48.8117 111.244 50.9861 111.192C53.1605 111.141 54.787 111.115 55.8655 111.115C56.2134 111.115 56.7266 111.063 57.405 110.959C58.0835 110.855 58.5879 110.803 58.9184 110.803C59.9274 110.803 60.7885 111.089 61.5017 111.66C62.3193 112.301 62.728 113.201 62.728 114.361C62.728 116.3 61.7104 117.46 59.6751 117.841C57.9356 118.17 54.326 118.334 48.8465 118.334C43.1755 118.334 39.479 117.572 37.7569 116.049C35.8607 114.369 34.9127 110.734 34.9127 105.141C34.9127 102.821 35.078 99.3415 35.4085 94.7015C35.7564 90.0442 35.9303 86.5642 35.9303 84.2616C35.9303 83.6556 35.8434 82.7639 35.6694 81.5866C35.4954 80.392 35.4085 79.4917 35.4085 78.8858C35.4085 76.2541 36.6262 74.9383 39.0615 74.9383C39.8269 74.9383 40.5314 75.1547 41.1751 75.5876C43.1929 75.0855 45.1064 74.7132 46.9156 74.4709C48.7421 74.2112 50.4642 74.0813 52.082 74.0813C56.4657 74.0813 59.9709 74.5834 62.5976 75.5876C64.198 76.1935 64.9982 77.2929 64.9982 78.8858C64.9982 79.7861 64.685 80.5825 64.0588 81.275C63.363 82.0714 62.4758 82.4696 61.3973 82.4696Z" fill="black"/>
<path d="M80.7584 117.347C76.34 117.347 72.8609 116.369 70.3212 114.413C68.1815 112.785 67.1117 110.907 67.1117 108.777C67.1117 107.687 67.4422 106.786 68.1032 106.076C68.7643 105.349 69.6775 104.986 70.843 104.986C72.4086 104.986 73.5567 105.782 74.2873 107.375C75.2789 109.504 77.5229 110.569 81.0194 110.569C84.0114 110.569 86.9077 109.92 89.7084 108.621C92.6135 107.288 94.066 105.825 94.066 104.232C94.066 102.051 93.1614 100.614 91.3523 99.9215C90.065 99.4194 87.4818 99.1251 83.6026 99.0385C80.5932 98.9692 77.8969 98.4066 75.5137 97.3504C72.2956 95.9134 70.7126 93.8531 70.7647 91.1696C70.8169 87.7935 72.6261 84.703 76.1921 81.8983C79.7582 79.0762 83.6896 77.6652 87.9863 77.6652C89.691 77.6652 91.7959 78.0547 94.3008 78.8338C97.4146 79.8034 98.9715 80.9201 98.9715 82.184C98.9715 83.0842 98.6584 83.8807 98.0321 84.5732C97.3363 85.3523 96.4405 85.7418 95.3445 85.7418C94.527 85.7418 93.3006 85.5687 91.6654 85.2224C90.0476 84.8762 88.8212 84.703 87.9863 84.703C85.7422 84.7204 83.6113 85.2571 81.5934 86.3132C79.506 87.3866 78.4622 88.5553 78.4622 89.8191C78.4622 90.477 78.7754 91.0224 79.4016 91.4552C80.0452 91.8708 81.002 92.1651 82.2718 92.3382C84.4985 92.4594 86.7164 92.5806 88.9256 92.7018C92.7874 92.9961 95.8403 94.0782 98.0843 95.9481C100.554 98.0257 101.79 100.9 101.79 104.57C101.79 109.037 99.2324 112.422 94.1182 114.724C90.2216 116.473 85.7683 117.347 80.7584 117.347Z" fill="black"/>
<path d="M136.728 84.6251C135.372 84.6251 133.258 84.5299 130.388 84.3395C127.622 84.149 125.508 84.0625 124.047 84.0798C124.117 86.0535 124.351 89.5681 124.752 94.6236C125.117 99.0904 125.3 102.622 125.3 105.219C125.3 105.808 125.36 106.682 125.482 107.842C125.604 109.002 125.665 109.877 125.665 110.465C125.665 111.764 125.387 112.932 124.83 113.971C124.117 115.304 123.099 115.971 121.777 115.971C120.82 115.971 119.977 115.668 119.246 115.062C118.428 114.387 118.02 113.538 118.02 112.517C118.02 112.275 118.063 111.911 118.15 111.426C118.237 110.924 118.28 110.543 118.28 110.284C118.28 109.487 118.22 108.284 118.098 106.674C117.993 105.064 117.941 103.852 117.941 103.038C117.941 100.718 117.759 97.5755 117.393 93.6108C116.976 89.0573 116.732 85.915 116.663 84.1836H115.306C111.427 84.1836 108.348 83.9066 106.069 83.3526C104.138 82.8851 103.172 81.7511 103.172 79.9505C103.172 79.0676 103.486 78.2711 104.112 77.5613C104.842 76.7129 105.799 76.332 106.982 76.4186C107.591 76.4532 108.974 76.6004 111.131 76.8601C112.853 77.0505 114.245 77.1458 115.306 77.1458C116.367 77.1458 117.95 77.1285 120.055 77.0938C122.177 77.0592 123.769 77.0419 124.83 77.0419C126.152 77.0419 128.135 77.1371 130.779 77.3276C133.423 77.5007 135.406 77.5873 136.728 77.5873C137.772 77.5873 138.642 77.9249 139.338 78.6001C140.051 79.2753 140.407 80.1064 140.407 81.0932C140.407 82.0801 140.051 82.9198 139.338 83.6123C138.642 84.2875 137.772 84.6251 136.728 84.6251Z" fill="black"/>
<path d="M188.262 85.0666C187.358 85.0666 184.879 84.8242 180.826 84.3395C180.582 87.5251 180.461 91.7582 180.461 97.0388L180.434 108.699C182.748 108.647 185.105 108.621 187.506 108.621C188.549 108.621 189.411 108.968 190.089 109.66C190.785 110.353 191.133 111.184 191.133 112.153C191.133 113.123 190.785 113.954 190.089 114.646C189.411 115.322 188.549 115.659 187.506 115.659C186.532 115.659 185.07 115.685 183.122 115.737C181.174 115.772 179.713 115.789 178.738 115.789C177.59 115.789 175.868 115.936 173.572 116.231C171.276 116.542 169.554 116.698 168.405 116.698C167.362 116.698 166.492 116.36 165.796 115.685C165.118 114.993 164.779 114.162 164.779 113.192C164.779 112.223 165.118 111.392 165.796 110.699C166.492 110.006 167.362 109.66 168.405 109.66C169.588 109.66 171.145 109.53 173.076 109.271C173.041 107.228 173.024 103.315 173.024 97.5322C173.024 92.823 173.198 88.3302 173.546 84.0538L167.884 84.2096C166.84 84.2096 165.961 83.872 165.248 83.1968C164.552 82.5216 164.204 81.6819 164.204 80.6777C164.204 79.6562 164.552 78.8252 165.248 78.1846C165.892 77.5959 166.683 77.2583 167.623 77.1717C169.153 77.0332 171.815 76.964 175.607 76.964C179.017 76.964 183.409 77.3276 188.784 78.0547C190.924 78.349 191.994 79.5437 191.994 81.6386C191.994 82.7466 191.559 83.621 190.689 84.2616C189.976 84.7983 189.167 85.0666 188.262 85.0666Z" fill="black"/>
<path d="M233.769 109.375C233.769 110.24 233.621 111.608 233.325 113.478C232.977 115.711 231.708 116.828 229.516 116.828C228.298 116.828 226.924 116.144 225.393 114.776C218.696 108.769 211.137 100.346 202.718 89.5075C202.614 94.009 202.561 96.7704 202.561 97.7919C202.561 99.1597 202.588 101.22 202.64 103.973C202.709 106.726 202.744 108.786 202.744 110.154C202.744 115.261 201.492 117.815 198.987 117.815C197.717 117.815 196.699 117.425 195.934 116.646C195.255 115.954 194.916 115.114 194.916 114.127C194.916 113.435 194.968 112.387 195.073 110.985C195.195 109.582 195.255 108.535 195.255 107.842C195.255 106.821 195.29 105.289 195.36 103.246C195.429 101.203 195.464 99.6704 195.464 98.6489C195.464 97.5582 195.438 95.9134 195.386 93.7146C195.334 91.5158 195.308 89.8711 195.308 88.7803C195.308 87.7415 195.203 86.192 194.994 84.1317C194.786 82.0714 194.681 80.5219 194.681 79.4831C194.681 78.4443 195.125 77.518 196.012 76.7043C196.917 75.8906 197.943 75.4837 199.091 75.4837C200.378 75.4837 201.805 76.5917 203.37 78.8079C211.268 90.0269 219.061 99.177 226.75 106.258C226.767 105.704 226.776 104.388 226.776 102.311C226.776 93.7752 226.689 88.0185 226.515 85.0407C226.48 84.5386 226.367 83.6036 226.176 82.2359C226.002 81.024 225.915 80.0717 225.915 79.3792C225.915 76.99 227.185 75.7953 229.725 75.7953C232.56 75.7953 233.978 80.1496 233.978 88.8582C233.978 89.0487 233.96 90.4164 233.926 92.9615C233.821 101.757 233.769 107.228 233.769 109.375Z" fill="black"/>
<path d="M282.224 114.75C278.171 116.257 273.048 117.01 266.855 117.01C265.811 117.01 264.872 116.577 264.037 115.711C263.219 114.846 262.811 113.919 262.811 112.932V85.4042C262.758 84.2269 262.715 83.0496 262.68 81.8723C262.628 80.5392 262.672 79.4138 262.811 78.4962C263.054 76.8688 264.576 75.8819 267.377 75.5356C268.699 75.1547 270.891 74.9643 273.952 74.9643C277.24 74.9643 280.389 76.0204 283.398 78.1326C286.929 80.5911 288.695 83.6642 288.695 87.352C288.695 89.343 288.33 91.0224 287.599 92.3902C287.025 93.4982 286.025 94.6842 284.598 95.9481C286.286 96.7618 287.782 97.991 289.087 99.6358C290.565 101.471 291.304 103.298 291.304 105.115C291.304 107.418 290.043 109.6 287.521 111.66C285.834 113.028 284.068 114.058 282.224 114.75ZM273.952 82.0022C271.708 82.0022 270.36 82.0195 269.908 82.0541L269.934 87.5597L269.908 93.0134C271.491 93.2039 272.683 93.2645 273.483 93.1952C278.806 92.7797 281.467 90.832 281.467 87.352C281.467 86.1227 280.685 84.9368 279.119 83.7941C277.501 82.5995 275.779 82.0022 273.952 82.0022ZM277.005 100.363C275.422 100.363 273.057 100.302 269.908 100.181V109.894C272.9 109.738 276.144 109.167 279.641 108.18C282.702 107.314 284.216 106.379 284.181 105.375C284.129 104.042 283.146 102.856 281.232 101.817C279.736 100.986 278.327 100.501 277.005 100.363Z" fill="black"/>
<path d="M317.841 85.0666C316.937 85.0666 314.458 84.8242 310.405 84.3395C310.161 87.5251 310.039 91.7582 310.039 97.0388L310.013 108.699C312.327 108.647 314.684 108.621 317.085 108.621C318.128 108.621 318.989 108.968 319.668 109.66C320.364 110.353 320.711 111.184 320.711 112.153C320.711 113.123 320.364 113.954 319.668 114.646C318.989 115.322 318.128 115.659 317.085 115.659C316.11 115.659 314.649 115.685 312.701 115.737C310.753 115.772 309.291 115.789 308.317 115.789C307.169 115.789 305.447 115.936 303.151 116.231C300.855 116.542 299.132 116.698 297.984 116.698C296.941 116.698 296.071 116.36 295.375 115.685C294.697 114.993 294.357 114.162 294.357 113.192C294.357 112.223 294.697 111.392 295.375 110.699C296.071 110.006 296.941 109.66 297.984 109.66C299.167 109.66 300.724 109.53 302.655 109.271C302.62 107.228 302.603 103.315 302.603 97.5322C302.603 92.823 302.777 88.3302 303.125 84.0538L297.462 84.2096C296.419 84.2096 295.54 83.872 294.827 83.1968C294.131 82.5216 293.783 81.6819 293.783 80.6777C293.783 79.6562 294.131 78.8252 294.827 78.1846C295.471 77.5959 296.262 77.2583 297.202 77.1717C298.732 77.0332 301.394 76.964 305.186 76.964C308.596 76.964 312.988 77.3276 318.363 78.0547C320.503 78.349 321.573 79.5437 321.573 81.6386C321.573 82.7466 321.138 83.621 320.268 84.2616C319.555 84.7983 318.746 85.0666 317.841 85.0666Z" fill="black"/>
<path d="M355.337 84.729C354.38 85.3177 353.206 86.0708 351.815 86.9884C348.875 89.1526 345.396 92.8749 341.377 98.1555C338.298 102.276 335.219 106.405 332.14 110.543L332.036 110.673C333.306 110.638 336.367 110.517 341.221 110.309C345.03 110.136 348.066 110.05 350.327 110.05C352.815 110.05 354.502 110.145 355.389 110.335C357.477 110.786 358.555 111.781 358.625 113.322C358.677 114.465 358.277 115.365 357.425 116.023C356.694 116.594 355.816 116.88 354.789 116.88C354.285 116.88 353.528 116.845 352.519 116.776C351.51 116.724 350.753 116.698 350.249 116.698C347.605 116.698 343.63 116.759 338.324 116.88C333.036 117.018 329.07 117.088 326.426 117.088C325.295 117.088 324.365 116.802 323.634 116.231C322.816 115.607 322.408 114.733 322.408 113.608C322.408 112.361 322.955 110.881 324.051 109.167C324.399 108.63 325.382 107.323 327 105.245C329.853 101.454 332.714 97.6707 335.585 93.8964C338.994 89.5335 342.186 86.0015 345.161 83.3007C342.447 83.4911 340.377 83.5863 338.951 83.5863H328.409C328.218 83.5863 327.939 83.6036 327.574 83.6383C327.209 83.6556 326.93 83.6642 326.739 83.6642C325.713 83.6642 324.843 83.3699 324.13 82.7813C323.329 82.1234 322.929 81.2404 322.929 80.1323C322.929 77.7604 324.695 76.5744 328.226 76.5744C329.427 76.5744 331.218 76.6523 333.602 76.8082C335.985 76.9467 337.776 77.0159 338.977 77.0159C340.316 77.0159 342.317 76.9813 344.978 76.912C347.657 76.8428 349.666 76.8082 351.006 76.8082C356.19 76.8082 358.781 77.9335 358.781 80.1843C358.781 81.6213 357.633 83.1362 355.337 84.729Z" fill="black"/>
<path d="M400.4 109.375C400.4 110.24 400.252 111.608 399.957 113.478C399.609 115.711 398.339 116.828 396.147 116.828C394.929 116.828 393.555 116.144 392.024 114.776C385.327 108.769 377.769 100.346 369.349 89.5075C369.245 94.009 369.193 96.7704 369.193 97.7919C369.193 99.1597 369.219 101.22 369.271 103.973C369.34 106.726 369.375 108.786 369.375 110.154C369.375 115.261 368.123 117.815 365.618 117.815C364.348 117.815 363.33 117.425 362.565 116.646C361.887 115.954 361.547 115.114 361.547 114.127C361.547 113.435 361.6 112.387 361.704 110.985C361.826 109.582 361.887 108.535 361.887 107.842C361.887 106.821 361.921 105.289 361.991 103.246C362.06 101.203 362.095 99.6704 362.095 98.6489C362.095 97.5582 362.069 95.9134 362.017 93.7146C361.965 91.5158 361.939 89.8711 361.939 88.7803C361.939 87.7415 361.834 86.192 361.626 84.1317C361.417 82.0714 361.312 80.5219 361.312 79.4831C361.312 78.4443 361.756 77.518 362.643 76.7043C363.548 75.8906 364.574 75.4837 365.722 75.4837C367.01 75.4837 368.436 76.5917 370.002 78.8079C377.899 90.0269 385.692 99.177 393.381 106.258C393.398 105.704 393.407 104.388 393.407 102.311C393.407 93.7752 393.32 88.0185 393.146 85.0407C393.111 84.5386 392.998 83.6036 392.807 82.2359C392.633 81.024 392.546 80.0717 392.546 79.3792C392.546 76.99 393.816 75.7953 396.356 75.7953C399.191 75.7953 400.609 80.1496 400.609 88.8582C400.609 89.0487 400.591 90.4164 400.557 92.9615C400.452 101.757 400.4 107.228 400.4 109.375Z" fill="black"/>
<path d="M431.555 82.4696C431.207 82.4696 430.842 82.4177 430.459 82.3138C427.641 81.552 424.902 81.1711 422.24 81.1711C420.935 81.1711 419.535 81.275 418.039 81.4828C416.543 81.6905 414.951 82.0022 413.264 82.4177C413.264 84.7204 413.186 88.1397 413.029 92.6758C414.003 92.6066 417.404 92.2863 423.232 91.7149C426.554 91.386 428.659 91.2215 429.546 91.2215C430.573 91.2215 431.451 91.5505 432.182 92.2084C432.912 92.849 433.278 93.706 433.278 94.7794C433.278 96.8397 432.173 98.0083 429.964 98.2854C428.572 98.3892 426.493 98.5624 423.727 98.8048C421.257 99.0818 417.535 99.4194 412.56 99.8176C412.438 102.016 412.377 103.791 412.377 105.141C412.377 108.535 412.577 110.465 412.977 110.933C413.168 111.158 414.264 111.27 416.265 111.27C417.343 111.27 418.97 111.244 421.144 111.192C423.319 111.141 424.945 111.115 426.024 111.115C426.372 111.115 426.885 111.063 427.563 110.959C428.242 110.855 428.746 110.803 429.077 110.803C430.085 110.803 430.947 111.089 431.66 111.66C432.477 112.301 432.886 113.201 432.886 114.361C432.886 116.3 431.868 117.46 429.833 117.841C428.094 118.17 424.484 118.334 419.005 118.334C413.334 118.334 409.637 117.572 407.915 116.049C406.019 114.369 405.071 110.734 405.071 105.141C405.071 102.821 405.236 99.3415 405.567 94.7015C405.914 90.0442 406.088 86.5642 406.088 84.2616C406.088 83.6556 406.001 82.7639 405.827 81.5866C405.654 80.392 405.567 79.4917 405.567 78.8858C405.567 76.2541 406.784 74.9383 409.22 74.9383C409.985 74.9383 410.69 75.1547 411.333 75.5876C413.351 75.0855 415.265 74.7132 417.074 74.4709C418.9 74.2112 420.622 74.0813 422.24 74.0813C426.624 74.0813 430.129 74.5834 432.756 75.5876C434.356 76.1935 435.156 77.2929 435.156 78.8858C435.156 79.7861 434.843 80.5825 434.217 81.275C433.521 82.0714 432.634 82.4696 431.555 82.4696Z" fill="black"/>
<path d="M450.917 117.347C446.498 117.347 443.019 116.369 440.479 114.413C438.34 112.785 437.27 110.907 437.27 108.777C437.27 107.687 437.6 106.786 438.261 106.076C438.922 105.349 439.836 104.986 441.001 104.986C442.567 104.986 443.715 105.782 444.445 107.375C445.437 109.504 447.681 110.569 451.177 110.569C454.169 110.569 457.066 109.92 459.866 108.621C462.772 107.288 464.224 105.825 464.224 104.232C464.224 102.051 463.319 100.614 461.51 99.9215C460.223 99.4194 457.64 99.1251 453.761 99.0385C450.751 98.9692 448.055 98.4066 445.672 97.3504C442.454 95.9134 440.871 93.8531 440.923 91.1696C440.975 87.7935 442.784 84.703 446.35 81.8983C449.916 79.0762 453.848 77.6652 458.144 77.6652C459.849 77.6652 461.954 78.0547 464.459 78.8338C467.573 79.8034 469.13 80.9201 469.13 82.184C469.13 83.0842 468.816 83.8807 468.19 84.5732C467.494 85.3523 466.599 85.7418 465.503 85.7418C464.685 85.7418 463.459 85.5687 461.823 85.2224C460.206 84.8762 458.979 84.703 458.144 84.703C455.9 84.7204 453.769 85.2571 451.752 86.3132C449.664 87.3866 448.62 88.5553 448.62 89.8191C448.62 90.477 448.933 91.0224 449.56 91.4552C450.203 91.8708 451.16 92.1651 452.43 92.3382C454.657 92.4594 456.874 92.5806 459.084 92.7018C462.945 92.9961 465.998 94.0782 468.242 95.9481C470.713 98.0257 471.948 100.9 471.948 104.57C471.948 109.037 469.391 112.422 464.276 114.724C460.38 116.473 455.926 117.347 450.917 117.347Z" fill="black"/>
<path d="M487.969 117.347C483.55 117.347 480.071 116.369 477.532 114.413C475.392 112.785 474.322 110.907 474.322 108.777C474.322 107.687 474.653 106.786 475.314 106.076C475.975 105.349 476.888 104.986 478.053 104.986C479.619 104.986 480.767 105.782 481.498 107.375C482.489 109.504 484.733 110.569 488.23 110.569C491.222 110.569 494.118 109.92 496.919 108.621C499.824 107.288 501.276 105.825 501.276 104.232C501.276 102.051 500.372 100.614 498.563 99.9215C497.275 99.4194 494.692 99.1251 490.813 99.0385C487.804 98.9692 485.107 98.4066 482.724 97.3504C479.506 95.9134 477.923 93.8531 477.975 91.1696C478.027 87.7935 479.836 84.703 483.403 81.8983C486.969 79.0762 490.9 77.6652 495.197 77.6652C496.901 77.6652 499.006 78.0547 501.511 78.8338C504.625 79.8034 506.182 80.9201 506.182 82.184C506.182 83.0842 505.869 83.8807 505.243 84.5732C504.547 85.3523 503.651 85.7418 502.555 85.7418C501.737 85.7418 500.511 85.5687 498.876 85.2224C497.258 84.8762 496.032 84.703 495.197 84.703C492.953 84.7204 490.822 85.2571 488.804 86.3132C486.716 87.3866 485.673 88.5553 485.673 89.8191C485.673 90.477 485.986 91.0224 486.612 91.4552C487.256 91.8708 488.212 92.1651 489.482 92.3382C491.709 92.4594 493.927 92.5806 496.136 92.7018C499.998 92.9961 503.051 94.0782 505.295 95.9481C507.765 98.0257 509 100.9 509 104.57C509 109.037 506.443 112.422 501.329 114.724C497.432 116.473 492.979 117.347 487.969 117.347Z" fill="black"/>
<path d="M13.6467 191.429C9.22829 191.429 5.7492 190.45 3.20946 188.494C1.06982 186.867 0 184.988 0 182.859C0 181.768 0.330514 180.868 0.991541 180.158C1.65257 179.431 2.56583 179.067 3.73133 179.067C5.29692 179.067 6.44502 179.863 7.17563 181.456C8.16717 183.586 10.4112 184.65 13.9077 184.65C16.8997 184.65 19.796 184.001 22.5967 182.703C25.5018 181.37 26.9543 179.907 26.9543 178.314C26.9543 176.132 26.0497 174.695 24.2406 174.003C22.9533 173.501 20.3701 173.206 16.4909 173.12C13.4815 173.051 10.7852 172.488 8.40201 171.432C5.18385 169.995 3.60086 167.934 3.65305 165.251C3.70523 161.875 5.51436 158.784 9.08043 155.98C12.6465 153.158 16.5779 151.746 20.8746 151.746C22.5793 151.746 24.6842 152.136 27.1891 152.915C30.3029 153.885 31.8598 155.001 31.8598 156.265C31.8598 157.166 31.5467 157.962 30.9204 158.655C30.2246 159.434 29.3288 159.823 28.2328 159.823C27.4153 159.823 26.1889 159.65 24.5537 159.304C22.9359 158.957 21.7095 158.784 20.8746 158.784C18.6305 158.802 16.4996 159.338 14.4817 160.394C12.3943 161.468 11.3505 162.637 11.3505 163.9C11.3505 164.558 11.6637 165.104 12.2899 165.537C12.9335 165.952 13.8903 166.246 15.1601 166.42C17.3868 166.541 19.6047 166.662 21.8139 166.783C25.6757 167.077 28.7286 168.16 30.9726 170.029C33.4428 172.107 34.6779 174.981 34.6779 178.651C34.6779 183.118 32.1207 186.503 27.0065 188.806C23.1099 190.554 18.6566 191.429 13.6467 191.429Z" fill="black"/>
<path d="M49.6032 169.328C48.8204 172.133 47.7245 176.366 46.3154 182.028C45.9849 183.984 45.6631 185.932 45.35 187.871C44.6368 190.329 43.3234 191.559 41.4099 191.559C40.2096 191.559 39.2616 191.152 38.5657 190.338C37.9743 189.645 37.6786 188.823 37.6786 187.871C37.6786 185.066 38.2787 181.647 39.479 177.613C41.2707 171.57 42.2362 168.22 42.3754 167.562C42.8798 164.896 43.393 162.23 43.9148 159.563C44.6976 155.893 45.5413 153.452 46.4459 152.24C47.3678 151.011 48.5246 150.396 49.9163 150.396C51.4993 150.396 52.6648 151.192 53.4128 152.785C54.1086 154.292 54.8566 157.373 55.6568 162.031C56.4222 166.549 57.5616 171.414 59.075 176.626C61.0581 171.484 62.902 165.84 64.6068 159.693L66.068 153.72C67.0073 151.244 68.4599 150.006 70.4255 150.006C72.3216 150.006 73.7307 151.443 74.6526 154.318C75.0353 155.478 75.4441 157.642 75.879 160.81C76.888 168.185 78.1578 174.505 79.6886 179.768C81.2368 185.118 82.0109 188.027 82.0109 188.494C82.0109 189.516 81.6021 190.373 80.7845 191.065C80.0191 191.688 79.1581 192 78.2013 192C76.3052 192 74.8962 190.65 73.9742 187.949L72.513 181.664C71.678 178.548 70.7734 174.072 69.7993 168.237C69.0165 170.557 67.7205 174.202 65.9114 179.171L64.3458 183.949C63.7022 185.836 63.0325 187.386 62.3366 188.598C61.4147 190.208 60.1274 191.013 58.4749 191.013C56.8397 191.013 55.5872 190.052 54.7174 188.13L53.2562 183.3C51.8994 178.868 50.6817 174.211 49.6032 169.328Z" fill="black"/>
<path d="M103.486 191.429C98.3366 191.429 93.9529 189.957 90.3346 187.014C86.4729 183.863 84.542 179.785 84.542 174.782C84.542 168.895 86.3946 163.528 90.0998 158.68C94.2573 153.227 99.4934 150.5 105.808 150.5C111.879 150.5 116.428 151.885 119.455 154.655C122.481 157.425 123.995 161.589 123.995 167.147C123.995 173.033 122.29 178.366 118.881 183.144C114.949 188.667 109.818 191.429 103.486 191.429ZM105.808 157.538C101.929 157.538 98.6062 159.408 95.8403 163.147C93.2484 166.645 91.9524 170.523 91.9524 174.782C91.9524 177.656 93.0744 179.993 95.3184 181.794C97.4755 183.525 100.198 184.391 103.486 184.391C107.313 184.391 110.505 182.521 113.062 178.781C115.41 175.371 116.584 171.492 116.584 167.147C116.584 163.511 115.767 160.983 114.132 159.563C112.566 158.213 109.791 157.538 105.808 157.538Z" fill="black"/>
<path d="M146.174 191.429C141.025 191.429 136.641 189.957 133.023 187.014C129.161 183.863 127.23 179.785 127.23 174.782C127.23 168.895 129.083 163.528 132.788 158.68C136.946 153.227 142.182 150.5 148.496 150.5C154.567 150.5 159.116 151.885 162.143 154.655C165.17 157.425 166.683 161.589 166.683 167.147C166.683 173.033 164.979 178.366 161.569 183.144C157.638 188.667 152.506 191.429 146.174 191.429ZM148.496 157.538C144.617 157.538 141.295 159.408 138.529 163.147C135.937 166.645 134.641 170.523 134.641 174.782C134.641 177.656 135.763 179.993 138.007 181.794C140.164 183.525 142.886 184.391 146.174 184.391C150.001 184.391 153.193 182.521 155.75 178.781C158.099 175.371 159.273 171.492 159.273 167.147C159.273 163.511 158.455 160.983 156.82 159.563C155.255 158.213 152.48 157.538 148.496 157.538Z" fill="black"/>
<path d="M202.17 158.706C200.813 158.706 198.7 158.611 195.829 158.421C193.064 158.23 190.95 158.144 189.489 158.161C189.558 160.135 189.793 163.649 190.193 168.705C190.559 173.172 190.741 176.704 190.741 179.301C190.741 179.889 190.802 180.764 190.924 181.924C191.046 183.084 191.107 183.958 191.107 184.547C191.107 185.845 190.828 187.014 190.272 188.053C189.558 189.386 188.541 190.052 187.219 190.052C186.262 190.052 185.418 189.749 184.688 189.143C183.87 188.468 183.461 187.62 183.461 186.598C183.461 186.356 183.505 185.992 183.592 185.507C183.679 185.005 183.722 184.625 183.722 184.365C183.722 183.568 183.661 182.365 183.54 180.755C183.435 179.145 183.383 177.933 183.383 177.119C183.383 174.799 183.2 171.657 182.835 167.692C182.418 163.139 182.174 159.996 182.104 158.265H180.748C176.868 158.265 173.789 157.988 171.511 157.434C169.58 156.966 168.614 155.832 168.614 154.032C168.614 153.149 168.927 152.352 169.554 151.643C170.284 150.794 171.241 150.413 172.424 150.5C173.033 150.535 174.416 150.682 176.573 150.941C178.295 151.132 179.686 151.227 180.748 151.227C181.809 151.227 183.392 151.21 185.497 151.175C187.619 151.141 189.21 151.123 190.272 151.123C191.594 151.123 193.577 151.218 196.221 151.409C198.865 151.582 200.848 151.669 202.17 151.669C203.214 151.669 204.084 152.006 204.779 152.681C205.493 153.357 205.849 154.188 205.849 155.175C205.849 156.161 205.493 157.001 204.779 157.694C204.084 158.369 203.214 158.706 202.17 158.706Z" fill="black"/>
<path d="M244.728 153.824C244.38 155.088 244.206 156.187 244.206 157.122C244.206 157.607 244.154 158.36 244.05 159.382C243.963 160.386 243.919 161.13 243.919 161.615C243.919 163.26 243.832 165.701 243.658 168.939C243.484 172.176 243.397 174.617 243.397 176.262C243.397 177.526 243.493 179.413 243.684 181.924C243.876 184.434 243.971 186.321 243.971 187.585C243.971 188.537 243.632 189.342 242.954 190C242.275 190.658 241.432 190.987 240.423 190.987C239.396 190.987 238.509 190.658 237.761 190C237.013 189.36 236.639 188.572 236.639 187.637C236.639 186.373 236.578 184.477 236.457 181.95C236.352 179.422 236.3 177.526 236.3 176.262C236.3 175.275 236.317 174.401 236.352 173.639C233.621 173.76 230.246 174.185 226.228 174.912C222.888 175.518 219.548 176.132 216.208 176.756C216.173 177.933 216.052 179.898 215.843 182.651C215.669 185.075 215.582 187.057 215.582 188.598C215.582 189.55 215.243 190.355 214.564 191.013C213.886 191.671 213.042 192 212.033 192C211.024 192 210.181 191.671 209.502 191.013C208.824 190.355 208.485 189.55 208.485 188.598C208.485 186.849 208.633 184.235 208.928 180.755C209.241 177.275 209.398 174.661 209.398 172.912C209.398 170.696 209.45 167.363 209.554 162.914C209.659 158.447 209.711 155.105 209.711 152.889C209.711 151.937 210.05 151.132 210.729 150.474C211.407 149.816 212.251 149.487 213.26 149.487C214.269 149.487 215.112 149.816 215.791 150.474C216.469 151.132 216.808 151.937 216.808 152.889C216.808 154.205 216.756 156.187 216.652 158.836C216.565 161.468 216.521 163.442 216.521 164.757C216.521 165.19 216.46 166.021 216.339 167.251C216.234 168.393 216.191 169.268 216.208 169.874L226.228 168.004C230.142 167.311 233.517 166.913 236.352 166.809C236.422 165.649 236.535 162.533 236.691 157.46C236.726 156.127 237.135 154.595 237.918 152.863C238.892 150.734 239.997 149.669 241.232 149.669C242.154 149.669 242.971 149.972 243.684 150.578C244.45 151.236 244.832 152.058 244.832 153.045C244.832 153.305 244.798 153.564 244.728 153.824Z" fill="black"/>
<path d="M292.87 188.832C288.817 190.338 283.694 191.091 277.501 191.091C276.457 191.091 275.518 190.658 274.683 189.793C273.865 188.927 273.457 188.001 273.457 187.014V159.486C273.405 158.308 273.361 157.131 273.326 155.954C273.274 154.62 273.318 153.495 273.457 152.578C273.7 150.95 275.222 149.963 278.023 149.617C279.345 149.236 281.537 149.046 284.598 149.046C287.886 149.046 291.035 150.102 294.044 152.214C297.576 154.672 299.341 157.746 299.341 161.433C299.341 163.424 298.976 165.104 298.245 166.471C297.671 167.58 296.671 168.765 295.245 170.029C296.932 170.843 298.428 172.072 299.733 173.717C301.211 175.552 301.95 177.379 301.95 179.197C301.95 181.499 300.689 183.681 298.167 185.741C296.48 187.109 294.714 188.139 292.87 188.832ZM284.598 156.083C282.354 156.083 281.006 156.101 280.554 156.135L280.58 161.641L280.554 167.095C282.137 167.285 283.329 167.346 284.129 167.277C289.452 166.861 292.113 164.913 292.113 161.433C292.113 160.204 291.331 159.018 289.765 157.875C288.147 156.681 286.425 156.083 284.598 156.083ZM287.651 174.444C286.068 174.444 283.703 174.384 280.554 174.262V183.975C283.546 183.819 286.79 183.248 290.287 182.261C293.348 181.396 294.862 180.461 294.827 179.456C294.775 178.123 293.792 176.937 291.878 175.899C290.382 175.068 288.973 174.583 287.651 174.444Z" fill="black"/>
<path d="M332.897 190.156C331.958 190.156 331.097 189.793 330.314 189.065C325.043 184.148 319.25 180.738 312.936 178.833C313.127 183.871 313.223 186.667 313.223 187.222C313.223 188.208 312.875 189.048 312.179 189.741C311.483 190.416 310.613 190.753 309.57 190.753C308.526 190.753 307.656 190.416 306.96 189.741C306.265 189.048 305.917 188.208 305.917 187.222C305.917 185.923 305.934 183.984 305.969 181.404C306.004 178.807 306.021 176.859 306.021 175.561L306.073 154.603C306.073 153.478 306.412 152.456 307.091 151.539C307.978 150.361 309.204 149.833 310.77 149.955C314.997 150.266 317.163 150.431 317.267 150.448C319.703 150.742 321.773 151.322 323.477 152.188C330.905 155.91 334.619 160.524 334.619 166.03C334.619 168.298 333.836 170.306 332.271 172.055C330.723 173.786 328.392 175.249 325.278 176.444C329.888 179.006 333.358 181.621 335.689 184.287C336.298 184.979 336.602 185.75 336.602 186.598C336.602 187.568 336.237 188.407 335.506 189.117C334.776 189.81 333.906 190.156 332.897 190.156ZM316.171 157.486C316.032 157.469 315.014 157.399 313.118 157.278V171.068C313.553 171.085 313.936 171.094 314.266 171.094C318.528 171.094 321.686 170.566 323.738 169.51C324.625 169.06 325.434 168.463 326.165 167.718C326.913 166.974 327.287 166.411 327.287 166.03C327.287 164.091 326.052 162.221 323.582 160.42C321.233 158.724 318.763 157.746 316.171 157.486Z" fill="black"/>
<path d="M370.367 190.624C368.993 190.572 367.61 188.962 366.218 185.793C365.296 183.75 364.505 181.396 363.844 178.729C362.556 178.92 360.451 179.11 357.529 179.301C354.78 179.491 352.676 179.716 351.214 179.976C350.414 181.88 349.023 184.746 347.04 188.572C346.274 189.819 345.213 190.442 343.856 190.442C342.899 190.442 342.038 190.121 341.273 189.481C340.508 188.823 340.125 187.992 340.125 186.988C340.125 186.105 341.395 183.11 343.934 178.002C343.691 177.465 343.587 176.963 343.621 176.496C343.691 175.665 344.535 175.016 346.152 174.548C348.623 170.289 351.371 165.874 354.398 161.303C358.747 154.742 361.426 151.461 362.435 151.461C364.348 151.461 365.627 152.612 366.27 154.915C366.618 156.767 367.166 159.546 367.914 163.251C368.975 168.237 370.271 173.942 371.802 180.365C371.924 180.85 372.367 181.993 373.133 183.793C373.759 185.282 374.072 186.399 374.072 187.144C374.072 188.148 373.689 188.987 372.924 189.663C372.176 190.338 371.324 190.658 370.367 190.624ZM360.634 163.978C359.277 166.298 357.407 169.458 355.024 173.457C355.807 173.284 357.025 173.146 358.677 173.042C360.625 172.921 361.852 172.825 362.356 172.756C361.939 170.505 361.365 167.58 360.634 163.978Z" fill="black"/>
<path d="M401.809 159.148C400.905 159.148 398.426 158.906 394.373 158.421C394.129 161.606 394.007 165.84 394.007 171.12L393.981 182.781C396.295 182.729 398.652 182.703 401.052 182.703C402.096 182.703 402.957 183.049 403.636 183.742C404.331 184.434 404.679 185.265 404.679 186.235C404.679 187.204 404.331 188.035 403.636 188.728C402.957 189.403 402.096 189.741 401.052 189.741C400.078 189.741 398.617 189.767 396.669 189.819C394.72 189.853 393.259 189.87 392.285 189.87C391.137 189.87 389.415 190.018 387.119 190.312C384.822 190.624 383.1 190.779 381.952 190.779C380.908 190.779 380.039 190.442 379.343 189.767C378.664 189.074 378.325 188.243 378.325 187.273C378.325 186.304 378.664 185.473 379.343 184.78C380.039 184.088 380.908 183.742 381.952 183.742C383.135 183.742 384.692 183.612 386.623 183.352C386.588 181.309 386.571 177.396 386.571 171.614C386.571 166.904 386.745 162.411 387.093 158.135L381.43 158.291C380.387 158.291 379.508 157.953 378.795 157.278C378.099 156.603 377.751 155.763 377.751 154.759C377.751 153.738 378.099 152.906 378.795 152.266C379.439 151.677 380.23 151.34 381.169 151.253C382.7 151.115 385.362 151.045 389.154 151.045C392.563 151.045 396.956 151.409 402.331 152.136C404.471 152.43 405.54 153.625 405.54 155.72C405.54 156.828 405.106 157.702 404.236 158.343C403.523 158.88 402.714 159.148 401.809 159.148Z" fill="black"/>
<path d="M447.316 183.456C447.316 184.322 447.168 185.689 446.872 187.559C446.524 189.793 445.254 190.909 443.062 190.909C441.845 190.909 440.471 190.225 438.94 188.858C432.242 182.85 424.684 174.427 416.265 163.589C416.16 168.09 416.108 170.852 416.108 171.873C416.108 173.241 416.134 175.301 416.186 178.054C416.256 180.807 416.291 182.867 416.291 184.235C416.291 189.342 415.038 191.896 412.533 191.896C411.264 191.896 410.246 191.507 409.481 190.727C408.802 190.035 408.463 189.195 408.463 188.208C408.463 187.516 408.515 186.468 408.619 185.066C408.741 183.664 408.802 182.616 408.802 181.924C408.802 180.902 408.837 179.37 408.906 177.327C408.976 175.284 409.011 173.752 409.011 172.73C409.011 171.64 408.985 169.995 408.933 167.796C408.88 165.597 408.854 163.952 408.854 162.862C408.854 161.823 408.75 160.273 408.541 158.213C408.332 156.153 408.228 154.603 408.228 153.564C408.228 152.526 408.672 151.599 409.559 150.786C410.463 149.972 411.49 149.565 412.638 149.565C413.925 149.565 415.352 150.673 416.917 152.889C424.815 164.108 432.608 173.258 440.297 180.339C440.314 179.785 440.323 178.47 440.323 176.392C440.323 167.857 440.236 162.1 440.062 159.122C440.027 158.62 439.914 157.685 439.723 156.317C439.549 155.105 439.462 154.153 439.462 153.461C439.462 151.071 440.731 149.877 443.271 149.877C446.107 149.877 447.524 154.231 447.524 162.94C447.524 163.13 447.507 164.498 447.472 167.043C447.368 175.838 447.316 181.309 447.316 183.456Z" fill="black"/>
<path d="M464.433 191.429C460.014 191.429 456.535 190.45 453.996 188.494C451.856 186.867 450.786 184.988 450.786 182.859C450.786 181.768 451.117 180.868 451.778 180.158C452.439 179.431 453.352 179.067 454.517 179.067C456.083 179.067 457.231 179.863 457.962 181.456C458.953 183.586 461.197 184.65 464.694 184.65C467.686 184.65 470.582 184.001 473.383 182.703C476.288 181.37 477.74 179.907 477.74 178.314C477.74 176.132 476.836 174.695 475.027 174.003C473.739 173.501 471.156 173.206 467.277 173.12C464.268 173.051 461.571 172.488 459.188 171.432C455.97 169.995 454.387 167.934 454.439 165.251C454.491 161.875 456.3 158.784 459.866 155.98C463.433 153.158 467.364 151.746 471.661 151.746C473.365 151.746 475.47 152.136 477.975 152.915C481.089 153.885 482.646 155.001 482.646 156.265C482.646 157.166 482.333 157.962 481.707 158.655C481.011 159.434 480.115 159.823 479.019 159.823C478.201 159.823 476.975 159.65 475.34 159.304C473.722 158.957 472.496 158.784 471.661 158.784C469.417 158.802 467.286 159.338 465.268 160.394C463.18 161.468 462.137 162.637 462.137 163.9C462.137 164.558 462.45 165.104 463.076 165.537C463.72 165.952 464.676 166.246 465.946 166.42C468.173 166.541 470.391 166.662 472.6 166.783C476.462 167.077 479.515 168.16 481.759 170.029C484.229 172.107 485.464 174.981 485.464 178.651C485.464 183.118 482.907 186.503 477.793 188.806C473.896 190.554 469.443 191.429 464.433 191.429Z" fill="black"/>
</svg>
