<svg width="1242" height="55" viewBox="0 0 1242 55" fill="none" xmlns="http://www.w3.org/2000/svg">
<path d="M32.6562 10.9375C32.2396 10.9375 31.8021 10.875 31.3438 10.75C27.9688 9.83333 24.6875 9.375 21.5 9.375C19.9375 9.375 18.2604 9.5 16.4688 9.75C14.6771 10 12.7708 10.375 10.75 10.875C10.75 13.6458 10.6562 17.7604 10.4688 23.2188C11.6354 23.1354 15.7083 22.75 22.6875 22.0625C26.6667 21.6667 29.1875 21.4688 30.25 21.4688C31.4792 21.4688 32.5312 21.8646 33.4062 22.6562C34.2812 23.4271 34.7188 24.4583 34.7188 25.75C34.7188 28.2292 33.3958 29.6354 30.75 29.9688C29.0833 30.0938 26.5938 30.3021 23.2812 30.5938C20.3229 30.9271 15.8646 31.3333 9.90625 31.8125C9.76042 34.4583 9.6875 36.5938 9.6875 38.2188C9.6875 42.3021 9.92708 44.625 10.4062 45.1875C10.6354 45.4583 11.9479 45.5938 14.3438 45.5938C15.6354 45.5938 17.5833 45.5625 20.1875 45.5C22.7917 45.4375 24.7396 45.4062 26.0312 45.4062C26.4479 45.4062 27.0625 45.3438 27.875 45.2188C28.6875 45.0938 29.2917 45.0312 29.6875 45.0312C30.8958 45.0312 31.9271 45.375 32.7812 46.0625C33.7604 46.8333 34.25 47.9167 34.25 49.3125C34.25 51.6458 33.0312 53.0417 30.5938 53.5C28.5104 53.8958 24.1875 54.0938 17.625 54.0938C10.8333 54.0938 6.40625 53.1771 4.34375 51.3438C2.07292 49.3229 0.9375 44.9479 0.9375 38.2188C0.9375 35.4271 1.13542 31.2396 1.53125 25.6562C1.94792 20.0521 2.15625 15.8646 2.15625 13.0938C2.15625 12.3646 2.05208 11.2917 1.84375 9.875C1.63542 8.4375 1.53125 7.35417 1.53125 6.625C1.53125 3.45833 2.98958 1.875 5.90625 1.875C6.82292 1.875 7.66667 2.13542 8.4375 2.65625C10.8542 2.05208 13.1458 1.60417 15.3125 1.3125C17.5 1 19.5625 0.84375 21.5 0.84375C26.75 0.84375 30.9479 1.44792 34.0938 2.65625C36.0104 3.38542 36.9688 4.70833 36.9688 6.625C36.9688 7.70833 36.5938 8.66667 35.8438 9.5C35.0104 10.4583 33.9479 10.9375 32.6562 10.9375ZM81.5312 10.5312C78.7812 13.6771 76.6562 16.3021 75.1562 18.4062C73.5729 20.7188 71.0312 24.0833 67.5312 28.5C69.7188 31.5417 71.9062 34.5938 74.0938 37.6562C76.6771 41.2188 79 44.1667 81.0625 46.5C81.8333 47.375 82.2188 48.3125 82.2188 49.3125C82.2188 50.4792 81.7708 51.4896 80.875 52.3438C80 53.1979 78.9583 53.625 77.75 53.625C75.6875 53.625 72.9896 51.25 69.6562 46.5C68.7604 45.125 67.375 43.0833 65.5 40.375C64.625 39.1667 63.3021 37.3646 61.5312 34.9688C58.9688 37.8646 55.7188 41.4271 51.7812 45.6562C50.5312 47.0729 48.6042 49.1354 46 51.8438C45.0833 52.7188 44.0312 53.1562 42.8438 53.1562C41.6354 53.1562 40.5833 52.7292 39.6875 51.875C38.7917 51.0417 38.3438 50.0417 38.3438 48.875C38.3438 47.875 38.7083 46.9583 39.4375 46.125C40.7083 44.7917 42.6042 42.7812 45.125 40.0938C47.875 37.1354 51.5521 33.0729 56.1562 27.9062C54.0521 25.2396 51.8333 22.5729 49.5 19.9062C49.3125 19.6979 48.125 18.1771 45.9375 15.3438C44.5 13.4896 43.1771 12.0938 41.9688 11.1562C40.7812 10.1979 40.1875 9.07292 40.1875 7.78125C40.1875 6.67708 40.6042 5.6875 41.4375 4.8125C42.2917 3.91667 43.3542 3.46875 44.625 3.46875C45.75 3.46875 47.2292 4.26042 49.0625 5.84375C50.3958 7.01042 51.5 8.1875 52.375 9.375C53.25 10.5417 54.5521 12.2292 56.2812 14.4375C58.2812 16.7083 60.2083 19.0104 62.0625 21.3438C64.6875 17.8854 67.3021 14.4271 69.9062 10.9688C73.9479 5.96875 76.7083 3.46875 78.1875 3.46875C79.3958 3.46875 80.4479 3.89583 81.3438 4.75C82.2396 5.58333 82.6875 6.58333 82.6875 7.75C82.6875 8.72917 82.3021 9.65625 81.5312 10.5312ZM97.2188 33.5625C96.8646 33.5625 95.9896 33.4896 94.5938 33.3438C94.4688 36.2604 94.4062 41.0521 94.4062 47.7188C94.4062 48.8229 94.0208 49.7708 93.25 50.5625C92.4792 51.3542 91.5 51.75 90.3125 51.75C89.125 51.75 88.1354 51.3542 87.3438 50.5625C86.5729 49.7708 86.1875 48.8229 86.1875 47.7188V39C86.1875 35.7708 86.3958 30.9896 86.8125 24.6562C87.2083 18.2188 87.4167 13.4167 87.4375 10.25C87.4583 4.83333 88.9792 2.23958 92 2.46875C92.7083 2.28125 93.6875 2.14583 94.9375 2.0625C96.1875 1.95833 97.7083 1.90625 99.5 1.90625C103.583 1.90625 107.417 3.22917 111 5.875C114.979 8.83333 116.969 12.4375 116.969 16.6875C116.969 22.0208 114.854 26.2604 110.625 29.4062C106.875 32.1771 102.406 33.5625 97.2188 33.5625ZM98.7812 9.96875C98.1146 9.96875 97.5208 9.97917 97 10C96.5 10 96.0729 10.0208 95.7188 10.0625C95.7188 11.0417 95.7083 12.5104 95.6875 14.4688C95.6458 16.7812 95.4479 20.3854 95.0938 25.2812C96.1562 25.4479 96.8646 25.5312 97.2188 25.5312C100.469 25.5312 103.167 24.7604 105.312 23.2188C107.604 21.5729 108.75 19.3958 108.75 16.6875C108.75 14.9167 107.677 13.3438 105.531 11.9688C103.469 10.6354 101.219 9.96875 98.7812 9.96875ZM153.094 10.9375C152.677 10.9375 152.24 10.875 151.781 10.75C148.406 9.83333 145.125 9.375 141.938 9.375C140.375 9.375 138.698 9.5 136.906 9.75C135.115 10 133.208 10.375 131.188 10.875C131.188 13.6458 131.094 17.7604 130.906 23.2188C132.073 23.1354 136.146 22.75 143.125 22.0625C147.104 21.6667 149.625 21.4688 150.688 21.4688C151.917 21.4688 152.969 21.8646 153.844 22.6562C154.719 23.4271 155.156 24.4583 155.156 25.75C155.156 28.2292 153.833 29.6354 151.188 29.9688C149.521 30.0938 147.031 30.3021 143.719 30.5938C140.76 30.9271 136.302 31.3333 130.344 31.8125C130.198 34.4583 130.125 36.5938 130.125 38.2188C130.125 42.3021 130.365 44.625 130.844 45.1875C131.073 45.4583 132.385 45.5938 134.781 45.5938C136.073 45.5938 138.021 45.5625 140.625 45.5C143.229 45.4375 145.177 45.4062 146.469 45.4062C146.885 45.4062 147.5 45.3438 148.312 45.2188C149.125 45.0938 149.729 45.0312 150.125 45.0312C151.333 45.0312 152.365 45.375 153.219 46.0625C154.198 46.8333 154.688 47.9167 154.688 49.3125C154.688 51.6458 153.469 53.0417 151.031 53.5C148.948 53.8958 144.625 54.0938 138.062 54.0938C131.271 54.0938 126.844 53.1771 124.781 51.3438C122.51 49.3229 121.375 44.9479 121.375 38.2188C121.375 35.4271 121.573 31.2396 121.969 25.6562C122.385 20.0521 122.594 15.8646 122.594 13.0938C122.594 12.3646 122.49 11.2917 122.281 9.875C122.073 8.4375 121.969 7.35417 121.969 6.625C121.969 3.45833 123.427 1.875 126.344 1.875C127.26 1.875 128.104 2.13542 128.875 2.65625C131.292 2.05208 133.583 1.60417 135.75 1.3125C137.938 1 140 0.84375 141.938 0.84375C147.188 0.84375 151.385 1.44792 154.531 2.65625C156.448 3.38542 157.406 4.70833 157.406 6.625C157.406 7.70833 157.031 8.66667 156.281 9.5C155.448 10.4583 154.385 10.9375 153.094 10.9375ZM193.625 51.375C192.5 51.375 191.469 50.9375 190.531 50.0625C184.219 44.1458 177.281 40.0417 169.719 37.75C169.948 43.8125 170.062 47.1771 170.062 47.8438C170.062 49.0312 169.646 50.0417 168.812 50.875C167.979 51.6875 166.938 52.0938 165.688 52.0938C164.438 52.0938 163.396 51.6875 162.562 50.875C161.729 50.0417 161.312 49.0312 161.312 47.8438C161.312 46.2812 161.333 43.9479 161.375 40.8438C161.417 37.7188 161.438 35.375 161.438 33.8125L161.5 8.59375C161.5 7.23958 161.906 6.01042 162.719 4.90625C163.781 3.48958 165.25 2.85417 167.125 3C172.188 3.375 174.781 3.57292 174.906 3.59375C177.823 3.94792 180.302 4.64583 182.344 5.6875C191.24 10.1667 195.688 15.7188 195.688 22.3438C195.688 25.0729 194.75 27.4896 192.875 29.5938C191.021 31.6771 188.229 33.4375 184.5 34.875C190.021 37.9583 194.177 41.1042 196.969 44.3125C197.698 45.1458 198.062 46.0729 198.062 47.0938C198.062 48.2604 197.625 49.2708 196.75 50.125C195.875 50.9583 194.833 51.375 193.625 51.375ZM173.594 12.0625C173.427 12.0417 172.208 11.9583 169.938 11.8125V28.4062C170.458 28.4271 170.917 28.4375 171.312 28.4375C176.417 28.4375 180.198 27.8021 182.656 26.5312C183.719 25.9896 184.688 25.2708 185.562 24.375C186.458 23.4792 186.906 22.8021 186.906 22.3438C186.906 20.0104 185.427 17.7604 182.469 15.5938C179.656 13.5521 176.698 12.375 173.594 12.0625ZM248.844 43.3125C248.844 44.3542 248.667 46 248.312 48.25C247.896 50.9375 246.375 52.2812 243.75 52.2812C242.292 52.2812 240.646 51.4583 238.812 49.8125C230.792 42.5833 221.74 32.4479 211.656 19.4062C211.531 24.8229 211.469 28.1458 211.469 29.375C211.469 31.0208 211.5 33.5 211.562 36.8125C211.646 40.125 211.688 42.6042 211.688 44.25C211.688 50.3958 210.188 53.4688 207.188 53.4688C205.667 53.4688 204.448 53 203.531 52.0625C202.719 51.2292 202.312 50.2188 202.312 49.0312C202.312 48.1979 202.375 46.9375 202.5 45.25C202.646 43.5625 202.719 42.3021 202.719 41.4688C202.719 40.2396 202.76 38.3958 202.844 35.9375C202.927 33.4792 202.969 31.6354 202.969 30.4062C202.969 29.0938 202.938 27.1146 202.875 24.4688C202.812 21.8229 202.781 19.8438 202.781 18.5312C202.781 17.2812 202.656 15.4167 202.406 12.9375C202.156 10.4583 202.031 8.59375 202.031 7.34375C202.031 6.09375 202.562 4.97917 203.625 4C204.708 3.02083 205.938 2.53125 207.312 2.53125C208.854 2.53125 210.562 3.86458 212.438 6.53125C221.896 20.0312 231.229 31.0417 240.438 39.5625C240.458 38.8958 240.469 37.3125 240.469 34.8125C240.469 24.5417 240.365 17.6146 240.156 14.0312C240.115 13.4271 239.979 12.3021 239.75 10.6562C239.542 9.19792 239.438 8.05208 239.438 7.21875C239.438 4.34375 240.958 2.90625 244 2.90625C247.396 2.90625 249.094 8.14583 249.094 18.625C249.094 18.8542 249.073 20.5 249.031 23.5625C248.906 34.1458 248.844 40.7292 248.844 43.3125ZM286 17.7188C284.125 17.7188 282.74 16.7292 281.844 14.75C281.427 13.8125 281.01 13.25 280.594 13.0625C280.281 12.9167 279.458 12.8438 278.125 12.8438C275.5 12.8438 272.469 14.8854 269.031 18.9688C264.219 24.6771 261.812 30.0208 261.812 35C261.812 37.2708 262.573 39.2188 264.094 40.8438C265.615 42.4688 267.438 43.2812 269.562 43.2812C271.625 43.2812 273.719 42.7396 275.844 41.6562C276.594 41.2604 278.177 40.2396 280.594 38.5938C282.219 37.5104 283.448 36.9688 284.281 36.9688C285.531 36.9688 286.594 37.4271 287.469 38.3438C288.281 39.1979 288.688 40.1771 288.688 41.2812C288.688 42.5104 288.146 43.5833 287.062 44.5C281.333 49.3333 275.5 51.75 269.562 51.75C264.875 51.75 260.917 50.0417 257.688 46.625C254.604 43.3333 253.062 39.4583 253.062 35C253.062 28.0208 256.115 20.8958 262.219 13.625C267.406 7.45833 272.708 4.375 278.125 4.375C279.042 4.375 279.865 4.40625 280.594 4.46875C281.344 4.53125 282 4.625 282.562 4.75C283.479 3.85417 284.583 3.40625 285.875 3.40625C288 3.40625 289.312 4.625 289.812 7.0625C290.167 8.8125 290.344 10.8542 290.344 13.1875C290.344 14.2292 290.042 15.1771 289.438 16.0312C288.646 17.1562 287.5 17.7188 286 17.7188ZM325.781 10.9375C325.365 10.9375 324.927 10.875 324.469 10.75C321.094 9.83333 317.812 9.375 314.625 9.375C313.062 9.375 311.385 9.5 309.594 9.75C307.802 10 305.896 10.375 303.875 10.875C303.875 13.6458 303.781 17.7604 303.594 23.2188C304.76 23.1354 308.833 22.75 315.812 22.0625C319.792 21.6667 322.312 21.4688 323.375 21.4688C324.604 21.4688 325.656 21.8646 326.531 22.6562C327.406 23.4271 327.844 24.4583 327.844 25.75C327.844 28.2292 326.521 29.6354 323.875 29.9688C322.208 30.0938 319.719 30.3021 316.406 30.5938C313.448 30.9271 308.99 31.3333 303.031 31.8125C302.885 34.4583 302.812 36.5938 302.812 38.2188C302.812 42.3021 303.052 44.625 303.531 45.1875C303.76 45.4583 305.073 45.5938 307.469 45.5938C308.76 45.5938 310.708 45.5625 313.312 45.5C315.917 45.4375 317.865 45.4062 319.156 45.4062C319.573 45.4062 320.188 45.3438 321 45.2188C321.812 45.0938 322.417 45.0312 322.812 45.0312C324.021 45.0312 325.052 45.375 325.906 46.0625C326.885 46.8333 327.375 47.9167 327.375 49.3125C327.375 51.6458 326.156 53.0417 323.719 53.5C321.635 53.8958 317.312 54.0938 310.75 54.0938C303.958 54.0938 299.531 53.1771 297.469 51.3438C295.198 49.3229 294.062 44.9479 294.062 38.2188C294.062 35.4271 294.26 31.2396 294.656 25.6562C295.073 20.0521 295.281 15.8646 295.281 13.0938C295.281 12.3646 295.177 11.2917 294.969 9.875C294.76 8.4375 294.656 7.35417 294.656 6.625C294.656 3.45833 296.115 1.875 299.031 1.875C299.948 1.875 300.792 2.13542 301.562 2.65625C303.979 2.05208 306.271 1.60417 308.438 1.3125C310.625 1 312.688 0.84375 314.625 0.84375C319.875 0.84375 324.073 1.44792 327.219 2.65625C329.135 3.38542 330.094 4.70833 330.094 6.625C330.094 7.70833 329.719 8.66667 328.969 9.5C328.135 10.4583 327.073 10.9375 325.781 10.9375ZM399.375 13.5312C397.75 13.5312 395.219 13.4167 391.781 13.1875C388.469 12.9583 385.938 12.8542 384.188 12.875C384.271 15.25 384.552 19.4792 385.031 25.5625C385.469 30.9375 385.688 35.1875 385.688 38.3125C385.688 39.0208 385.76 40.0729 385.906 41.4688C386.052 42.8646 386.125 43.9167 386.125 44.625C386.125 46.1875 385.792 47.5938 385.125 48.8438C384.271 50.4479 383.052 51.25 381.469 51.25C380.323 51.25 379.312 50.8854 378.438 50.1562C377.458 49.3438 376.969 48.3229 376.969 47.0938C376.969 46.8021 377.021 46.3646 377.125 45.7812C377.229 45.1771 377.281 44.7188 377.281 44.4062C377.281 43.4479 377.208 42 377.062 40.0625C376.938 38.125 376.875 36.6667 376.875 35.6875C376.875 32.8958 376.656 29.1146 376.219 24.3438C375.719 18.8646 375.427 15.0833 375.344 13H373.719C369.073 13 365.385 12.6667 362.656 12C360.344 11.4375 359.188 10.0729 359.188 7.90625C359.188 6.84375 359.562 5.88542 360.312 5.03125C361.188 4.01042 362.333 3.55208 363.75 3.65625C364.479 3.69792 366.135 3.875 368.719 4.1875C370.781 4.41667 372.448 4.53125 373.719 4.53125C374.99 4.53125 376.885 4.51042 379.406 4.46875C381.948 4.42708 383.854 4.40625 385.125 4.40625C386.708 4.40625 389.083 4.52083 392.25 4.75C395.417 4.95833 397.792 5.0625 399.375 5.0625C400.625 5.0625 401.667 5.46875 402.5 6.28125C403.354 7.09375 403.781 8.09375 403.781 9.28125C403.781 10.4688 403.354 11.4792 402.5 12.3125C401.667 13.125 400.625 13.5312 399.375 13.5312ZM450.344 7.65625C449.927 9.17708 449.719 10.5 449.719 11.625C449.719 12.2083 449.656 13.1146 449.531 14.3438C449.427 15.5521 449.375 16.4479 449.375 17.0312C449.375 19.0104 449.271 21.9479 449.062 25.8438C448.854 29.7396 448.75 32.6771 448.75 34.6562C448.75 36.1771 448.865 38.4479 449.094 41.4688C449.323 44.4896 449.438 46.7604 449.438 48.2812C449.438 49.4271 449.031 50.3958 448.219 51.1875C447.406 51.9792 446.396 52.375 445.188 52.375C443.958 52.375 442.896 51.9792 442 51.1875C441.104 50.4167 440.656 49.4688 440.656 48.3438C440.656 46.8229 440.583 44.5417 440.438 41.5C440.312 38.4583 440.25 36.1771 440.25 34.6562C440.25 33.4688 440.271 32.4167 440.312 31.5C437.042 31.6458 433 32.1562 428.188 33.0312C424.188 33.7604 420.188 34.5 416.188 35.25C416.146 36.6667 416 39.0312 415.75 42.3438C415.542 45.2604 415.438 47.6458 415.438 49.5C415.438 50.6458 415.031 51.6146 414.219 52.4062C413.406 53.1979 412.396 53.5938 411.188 53.5938C409.979 53.5938 408.969 53.1979 408.156 52.4062C407.344 51.6146 406.938 50.6458 406.938 49.5C406.938 47.3958 407.115 44.25 407.469 40.0625C407.844 35.875 408.031 32.7292 408.031 30.625C408.031 27.9583 408.094 23.9479 408.219 18.5938C408.344 13.2188 408.406 9.19792 408.406 6.53125C408.406 5.38542 408.812 4.41667 409.625 3.625C410.438 2.83333 411.448 2.4375 412.656 2.4375C413.865 2.4375 414.875 2.83333 415.688 3.625C416.5 4.41667 416.906 5.38542 416.906 6.53125C416.906 8.11458 416.844 10.5 416.719 13.6875C416.615 16.8542 416.562 19.2292 416.562 20.8125C416.562 21.3333 416.49 22.3333 416.344 23.8125C416.219 25.1875 416.167 26.2396 416.188 26.9688L428.188 24.7188C432.875 23.8854 436.917 23.4062 440.312 23.2812C440.396 21.8854 440.531 18.1354 440.719 12.0312C440.76 10.4271 441.25 8.58333 442.188 6.5C443.354 3.9375 444.677 2.65625 446.156 2.65625C447.26 2.65625 448.24 3.02083 449.094 3.75C450.01 4.54167 450.469 5.53125 450.469 6.71875C450.469 7.03125 450.427 7.34375 450.344 7.65625ZM487.281 10.9375C486.865 10.9375 486.427 10.875 485.969 10.75C482.594 9.83333 479.312 9.375 476.125 9.375C474.562 9.375 472.885 9.5 471.094 9.75C469.302 10 467.396 10.375 465.375 10.875C465.375 13.6458 465.281 17.7604 465.094 23.2188C466.26 23.1354 470.333 22.75 477.312 22.0625C481.292 21.6667 483.812 21.4688 484.875 21.4688C486.104 21.4688 487.156 21.8646 488.031 22.6562C488.906 23.4271 489.344 24.4583 489.344 25.75C489.344 28.2292 488.021 29.6354 485.375 29.9688C483.708 30.0938 481.219 30.3021 477.906 30.5938C474.948 30.9271 470.49 31.3333 464.531 31.8125C464.385 34.4583 464.312 36.5938 464.312 38.2188C464.312 42.3021 464.552 44.625 465.031 45.1875C465.26 45.4583 466.573 45.5938 468.969 45.5938C470.26 45.5938 472.208 45.5625 474.812 45.5C477.417 45.4375 479.365 45.4062 480.656 45.4062C481.073 45.4062 481.688 45.3438 482.5 45.2188C483.312 45.0938 483.917 45.0312 484.312 45.0312C485.521 45.0312 486.552 45.375 487.406 46.0625C488.385 46.8333 488.875 47.9167 488.875 49.3125C488.875 51.6458 487.656 53.0417 485.219 53.5C483.135 53.8958 478.812 54.0938 472.25 54.0938C465.458 54.0938 461.031 53.1771 458.969 51.3438C456.698 49.3229 455.562 44.9479 455.562 38.2188C455.562 35.4271 455.76 31.2396 456.156 25.6562C456.573 20.0521 456.781 15.8646 456.781 13.0938C456.781 12.3646 456.677 11.2917 456.469 9.875C456.26 8.4375 456.156 7.35417 456.156 6.625C456.156 3.45833 457.615 1.875 460.531 1.875C461.448 1.875 462.292 2.13542 463.062 2.65625C465.479 2.05208 467.771 1.60417 469.938 1.3125C472.125 1 474.188 0.84375 476.125 0.84375C481.375 0.84375 485.573 1.44792 488.719 2.65625C490.635 3.38542 491.594 4.70833 491.594 6.625C491.594 7.70833 491.219 8.66667 490.469 9.5C489.635 10.4583 488.573 10.9375 487.281 10.9375ZM533.281 33.5625C532.927 33.5625 532.052 33.4896 530.656 33.3438C530.531 36.2604 530.469 41.0521 530.469 47.7188C530.469 48.8229 530.083 49.7708 529.312 50.5625C528.542 51.3542 527.562 51.75 526.375 51.75C525.188 51.75 524.198 51.3542 523.406 50.5625C522.635 49.7708 522.25 48.8229 522.25 47.7188V39C522.25 35.7708 522.458 30.9896 522.875 24.6562C523.271 18.2188 523.479 13.4167 523.5 10.25C523.521 4.83333 525.042 2.23958 528.062 2.46875C528.771 2.28125 529.75 2.14583 531 2.0625C532.25 1.95833 533.771 1.90625 535.562 1.90625C539.646 1.90625 543.479 3.22917 547.062 5.875C551.042 8.83333 553.031 12.4375 553.031 16.6875C553.031 22.0208 550.917 26.2604 546.688 29.4062C542.938 32.1771 538.469 33.5625 533.281 33.5625ZM534.844 9.96875C534.177 9.96875 533.583 9.97917 533.062 10C532.562 10 532.135 10.0208 531.781 10.0625C531.781 11.0417 531.771 12.5104 531.75 14.4688C531.708 16.7812 531.51 20.3854 531.156 25.2812C532.219 25.4479 532.927 25.5312 533.281 25.5312C536.531 25.5312 539.229 24.7604 541.375 23.2188C543.667 21.5729 544.812 19.3958 544.812 16.6875C544.812 14.9167 543.74 13.3438 541.594 11.9688C539.531 10.6354 537.281 9.96875 534.844 9.96875ZM579.062 52.9062C572.896 52.9062 567.646 51.1354 563.312 47.5938C558.688 43.8021 556.375 38.8958 556.375 32.875C556.375 25.7917 558.594 19.3333 563.031 13.5C568.01 6.9375 574.281 3.65625 581.844 3.65625C589.115 3.65625 594.562 5.32292 598.188 8.65625C601.812 11.9896 603.625 17 603.625 23.6875C603.625 30.7708 601.583 37.1875 597.5 42.9375C592.792 49.5833 586.646 52.9062 579.062 52.9062ZM581.844 12.125C577.198 12.125 573.219 14.375 569.906 18.875C566.802 23.0833 565.25 27.75 565.25 32.875C565.25 36.3333 566.594 39.1458 569.281 41.3125C571.865 43.3958 575.125 44.4375 579.062 44.4375C583.646 44.4375 587.469 42.1875 590.531 37.6875C593.344 33.5833 594.75 28.9167 594.75 23.6875C594.75 19.3125 593.771 16.2708 591.812 14.5625C589.938 12.9375 586.615 12.125 581.844 12.125ZM669.75 10.9062C669.396 11.7604 668.979 12.8125 668.5 14.0625C668.146 15.2708 667.573 17.0625 666.781 19.4375C665.594 22.5 663.708 26.9583 661.125 32.8125C658.479 38.7708 656.583 43.2188 655.438 46.1562C654.583 48.3438 653.781 50.0938 653.031 51.4062C652.052 53.1354 650.562 54 648.562 54C647.375 54 646.302 53.6771 645.344 53.0312C644.219 52.2812 643.615 51.2917 643.531 50.0625C642.573 47.6667 641.969 45.7083 641.719 44.1875C640.802 39.7292 639.531 33.0312 637.906 24.0938C636.552 28.2812 635.094 32.0417 633.531 35.375C631.198 40.375 629.667 44.3021 628.938 47.1562C629.125 47.6146 629.219 48.1042 629.219 48.625C629.219 49.9167 628.646 50.9688 627.5 51.7812C626.5 52.4688 625.396 52.8125 624.188 52.8125C622.667 52.8125 621.406 52.4271 620.406 51.6562C619.323 50.8021 618.76 49.6354 618.719 48.1562L617.75 44.5C617.062 41.25 615.938 36.3958 614.375 29.9375C613 25 610.698 17.9688 607.469 8.84375C607.281 8.32292 607.188 7.80208 607.188 7.28125C607.188 6.03125 607.667 5.04167 608.625 4.3125C609.479 3.64583 610.51 3.3125 611.719 3.3125C613.302 3.3125 614.562 3.97917 615.5 5.3125C616.021 6.04167 616.615 7.36458 617.281 9.28125C619.323 15.1562 621.625 23.7188 624.188 34.9688C625.854 30.9062 627.552 26.1146 629.281 20.5938C630.677 16.0938 631.812 12.8958 632.688 11C634.771 6.45833 636.896 4.1875 639.062 4.1875C641.104 4.1875 642.594 5.30208 643.531 7.53125C643.99 8.59375 644.438 10.5208 644.875 13.3125C645 14.1667 645.271 16.2604 645.688 19.5938C646.125 23.1771 647.438 29.6979 649.625 39.1562C651.833 33.9896 654.802 26.5417 658.531 16.8125C658.76 16.2292 659.302 14.3125 660.156 11.0625C660.76 8.72917 661.521 6.88542 662.438 5.53125C663.438 4.07292 664.771 3.34375 666.438 3.34375C667.708 3.34375 668.76 3.73958 669.594 4.53125C670.427 5.30208 670.844 6.30208 670.844 7.53125C670.844 7.96875 670.479 9.09375 669.75 10.9062ZM681 51.3125C679.771 51.2917 678.74 50.875 677.906 50.0625C677.073 49.2292 676.656 48.2292 676.656 47.0625C676.656 44.9792 676.75 41.8542 676.938 37.6875C677.146 33.5208 677.25 30.3958 677.25 28.3125C677.25 26 677.198 22.5312 677.094 17.9062C677.01 13.2812 676.969 9.8125 676.969 7.5C676.969 6.35417 677.521 5.21875 678.625 4.09375C679.729 2.94792 680.906 2.375 682.156 2.375C682.844 2.375 684.573 3.02083 687.344 4.3125C690.573 5.85417 692.49 6.71875 693.094 6.90625C699.198 8.88542 704.406 11.9479 708.719 16.0938C713.865 21.0312 716.438 26.4896 716.438 32.4688C716.438 36.0729 715.552 39.5 713.781 42.75C712.01 46.0625 709.583 48.7188 706.5 50.7188C703.042 52.9688 698.177 54.0938 691.906 54.0938C690.385 54.0938 688.635 53.875 686.656 53.4375C684.26 52.8958 682.375 52.1875 681 51.3125ZM698.562 19.1875C696.542 17.9167 692.208 15.9167 685.562 13.1875V44.125C686.375 44.6458 687.302 45.0417 688.344 45.3125C689.406 45.5625 690.583 45.6875 691.875 45.6875C696.375 45.6875 699.604 45.0625 701.562 43.8125C703.417 42.625 704.885 41.0104 705.969 38.9688C707.073 36.9271 707.625 34.8021 707.625 32.5938C707.625 27.4271 704.604 22.9583 698.562 19.1875ZM753.031 10.9375C752.615 10.9375 752.177 10.875 751.719 10.75C748.344 9.83333 745.062 9.375 741.875 9.375C740.312 9.375 738.635 9.5 736.844 9.75C735.052 10 733.146 10.375 731.125 10.875C731.125 13.6458 731.031 17.7604 730.844 23.2188C732.01 23.1354 736.083 22.75 743.062 22.0625C747.042 21.6667 749.562 21.4688 750.625 21.4688C751.854 21.4688 752.906 21.8646 753.781 22.6562C754.656 23.4271 755.094 24.4583 755.094 25.75C755.094 28.2292 753.771 29.6354 751.125 29.9688C749.458 30.0938 746.969 30.3021 743.656 30.5938C740.698 30.9271 736.24 31.3333 730.281 31.8125C730.135 34.4583 730.062 36.5938 730.062 38.2188C730.062 42.3021 730.302 44.625 730.781 45.1875C731.01 45.4583 732.323 45.5938 734.719 45.5938C736.01 45.5938 737.958 45.5625 740.562 45.5C743.167 45.4375 745.115 45.4062 746.406 45.4062C746.823 45.4062 747.438 45.3438 748.25 45.2188C749.062 45.0938 749.667 45.0312 750.062 45.0312C751.271 45.0312 752.302 45.375 753.156 46.0625C754.135 46.8333 754.625 47.9167 754.625 49.3125C754.625 51.6458 753.406 53.0417 750.969 53.5C748.885 53.8958 744.562 54.0938 738 54.0938C731.208 54.0938 726.781 53.1771 724.719 51.3438C722.448 49.3229 721.312 44.9479 721.312 38.2188C721.312 35.4271 721.51 31.2396 721.906 25.6562C722.323 20.0521 722.531 15.8646 722.531 13.0938C722.531 12.3646 722.427 11.2917 722.219 9.875C722.01 8.4375 721.906 7.35417 721.906 6.625C721.906 3.45833 723.365 1.875 726.281 1.875C727.198 1.875 728.042 2.13542 728.812 2.65625C731.229 2.05208 733.521 1.60417 735.688 1.3125C737.875 1 739.938 0.84375 741.875 0.84375C747.125 0.84375 751.323 1.44792 754.469 2.65625C756.385 3.38542 757.344 4.70833 757.344 6.625C757.344 7.70833 756.969 8.66667 756.219 9.5C755.385 10.4583 754.323 10.9375 753.031 10.9375ZM793.562 51.375C792.438 51.375 791.406 50.9375 790.469 50.0625C784.156 44.1458 777.219 40.0417 769.656 37.75C769.885 43.8125 770 47.1771 770 47.8438C770 49.0312 769.583 50.0417 768.75 50.875C767.917 51.6875 766.875 52.0938 765.625 52.0938C764.375 52.0938 763.333 51.6875 762.5 50.875C761.667 50.0417 761.25 49.0312 761.25 47.8438C761.25 46.2812 761.271 43.9479 761.312 40.8438C761.354 37.7188 761.375 35.375 761.375 33.8125L761.438 8.59375C761.438 7.23958 761.844 6.01042 762.656 4.90625C763.719 3.48958 765.188 2.85417 767.062 3C772.125 3.375 774.719 3.57292 774.844 3.59375C777.76 3.94792 780.24 4.64583 782.281 5.6875C791.177 10.1667 795.625 15.7188 795.625 22.3438C795.625 25.0729 794.688 27.4896 792.812 29.5938C790.958 31.6771 788.167 33.4375 784.438 34.875C789.958 37.9583 794.115 41.1042 796.906 44.3125C797.635 45.1458 798 46.0729 798 47.0938C798 48.2604 797.562 49.2708 796.688 50.125C795.812 50.9583 794.771 51.375 793.562 51.375ZM773.531 12.0625C773.365 12.0417 772.146 11.9583 769.875 11.8125V28.4062C770.396 28.4271 770.854 28.4375 771.25 28.4375C776.354 28.4375 780.135 27.8021 782.594 26.5312C783.656 25.9896 784.625 25.2708 785.5 24.375C786.396 23.4792 786.844 22.8021 786.844 22.3438C786.844 20.0104 785.365 17.7604 782.406 15.5938C779.594 13.5521 776.635 12.375 773.531 12.0625ZM851.688 52.9062C845.521 52.9062 840.271 51.1354 835.938 47.5938C831.312 43.8021 829 38.8958 829 32.875C829 25.7917 831.219 19.3333 835.656 13.5C840.635 6.9375 846.906 3.65625 854.469 3.65625C861.74 3.65625 867.188 5.32292 870.812 8.65625C874.438 11.9896 876.25 17 876.25 23.6875C876.25 30.7708 874.208 37.1875 870.125 42.9375C865.417 49.5833 859.271 52.9062 851.688 52.9062ZM854.469 12.125C849.823 12.125 845.844 14.375 842.531 18.875C839.427 23.0833 837.875 27.75 837.875 32.875C837.875 36.3333 839.219 39.1458 841.906 41.3125C844.49 43.3958 847.75 44.4375 851.688 44.4375C856.271 44.4375 860.094 42.1875 863.156 37.6875C865.969 33.5833 867.375 28.9167 867.375 23.6875C867.375 19.3125 866.396 16.2708 864.438 14.5625C862.562 12.9375 859.24 12.125 854.469 12.125ZM911.25 11.9375C910.771 11.9375 910.24 11.8438 909.656 11.6562C906.969 10.7812 903.688 10.3438 899.812 10.3438C898.542 10.3438 897.073 10.4271 895.406 10.5938C893.76 10.7604 891.927 11.0104 889.906 11.3438C889.948 15.3438 889.948 18.7812 889.906 21.6562C893.073 20.8854 895.698 20.5 897.781 20.5C901.656 20.5 905.031 20.6771 907.906 21.0312C910.594 21.3646 911.938 22.7812 911.938 25.2812C911.938 26.4896 911.51 27.5 910.656 28.3125C909.802 29.125 908.76 29.5312 907.531 29.5312C906.448 29.5312 904.823 29.4479 902.656 29.2812C900.49 29.1146 898.865 29.0312 897.781 29.0312C896.26 29.0312 893.635 29.5104 889.906 30.4688V50.0625C889.906 51.2708 889.427 52.2812 888.469 53.0938C887.531 53.9062 886.448 54.3125 885.219 54.3125C884.01 54.3125 883.031 53.9062 882.281 53.0938C881.531 52.3021 881.156 51.2917 881.156 50.0625V14.25C881.156 13.4375 881.167 12.2083 881.188 10.5625C881.229 8.91667 881.25 7.6875 881.25 6.875C881.25 5.64583 881.656 4.625 882.469 3.8125C883.302 3 884.344 2.59375 885.594 2.59375C886.385 2.59375 887.083 2.75 887.688 3.0625C890.104 2.64583 892.323 2.34375 894.344 2.15625C896.365 1.94792 898.188 1.84375 899.812 1.84375C902.188 1.84375 905.177 2.33333 908.781 3.3125C913.302 4.54167 915.562 5.96875 915.562 7.59375C915.562 8.78125 915.135 9.80208 914.281 10.6562C913.448 11.5104 912.438 11.9375 911.25 11.9375ZM979.375 17.7188C977.5 17.7188 976.115 16.7292 975.219 14.75C974.802 13.8125 974.385 13.25 973.969 13.0625C973.656 12.9167 972.833 12.8438 971.5 12.8438C968.875 12.8438 965.844 14.8854 962.406 18.9688C957.594 24.6771 955.188 30.0208 955.188 35C955.188 37.2708 955.948 39.2188 957.469 40.8438C958.99 42.4688 960.812 43.2812 962.938 43.2812C965 43.2812 967.094 42.7396 969.219 41.6562C969.969 41.2604 971.552 40.2396 973.969 38.5938C975.594 37.5104 976.823 36.9688 977.656 36.9688C978.906 36.9688 979.969 37.4271 980.844 38.3438C981.656 39.1979 982.062 40.1771 982.062 41.2812C982.062 42.5104 981.521 43.5833 980.438 44.5C974.708 49.3333 968.875 51.75 962.938 51.75C958.25 51.75 954.292 50.0417 951.062 46.625C947.979 43.3333 946.438 39.4583 946.438 35C946.438 28.0208 949.49 20.8958 955.594 13.625C960.781 7.45833 966.083 4.375 971.5 4.375C972.417 4.375 973.24 4.40625 973.969 4.46875C974.719 4.53125 975.375 4.625 975.938 4.75C976.854 3.85417 977.958 3.40625 979.25 3.40625C981.375 3.40625 982.688 4.625 983.188 7.0625C983.542 8.8125 983.719 10.8542 983.719 13.1875C983.719 14.2292 983.417 15.1771 982.812 16.0312C982.021 17.1562 980.875 17.7188 979.375 17.7188ZM1009.06 52.9062C1002.9 52.9062 997.646 51.1354 993.312 47.5938C988.688 43.8021 986.375 38.8958 986.375 32.875C986.375 25.7917 988.594 19.3333 993.031 13.5C998.01 6.9375 1004.28 3.65625 1011.84 3.65625C1019.11 3.65625 1024.56 5.32292 1028.19 8.65625C1031.81 11.9896 1033.62 17 1033.62 23.6875C1033.62 30.7708 1031.58 37.1875 1027.5 42.9375C1022.79 49.5833 1016.65 52.9062 1009.06 52.9062ZM1011.84 12.125C1007.2 12.125 1003.22 14.375 999.906 18.875C996.802 23.0833 995.25 27.75 995.25 32.875C995.25 36.3333 996.594 39.1458 999.281 41.3125C1001.86 43.3958 1005.12 44.4375 1009.06 44.4375C1013.65 44.4375 1017.47 42.1875 1020.53 37.6875C1023.34 33.5833 1024.75 28.9167 1024.75 23.6875C1024.75 19.3125 1023.77 16.2708 1021.81 14.5625C1019.94 12.9375 1016.61 12.125 1011.84 12.125ZM1048.53 33.5625C1048.18 33.5625 1047.3 33.4896 1045.91 33.3438C1045.78 36.2604 1045.72 41.0521 1045.72 47.7188C1045.72 48.8229 1045.33 49.7708 1044.56 50.5625C1043.79 51.3542 1042.81 51.75 1041.62 51.75C1040.44 51.75 1039.45 51.3542 1038.66 50.5625C1037.89 49.7708 1037.5 48.8229 1037.5 47.7188V39C1037.5 35.7708 1037.71 30.9896 1038.12 24.6562C1038.52 18.2188 1038.73 13.4167 1038.75 10.25C1038.77 4.83333 1040.29 2.23958 1043.31 2.46875C1044.02 2.28125 1045 2.14583 1046.25 2.0625C1047.5 1.95833 1049.02 1.90625 1050.81 1.90625C1054.9 1.90625 1058.73 3.22917 1062.31 5.875C1066.29 8.83333 1068.28 12.4375 1068.28 16.6875C1068.28 22.0208 1066.17 26.2604 1061.94 29.4062C1058.19 32.1771 1053.72 33.5625 1048.53 33.5625ZM1050.09 9.96875C1049.43 9.96875 1048.83 9.97917 1048.31 10C1047.81 10 1047.39 10.0208 1047.03 10.0625C1047.03 11.0417 1047.02 12.5104 1047 14.4688C1046.96 16.7812 1046.76 20.3854 1046.41 25.2812C1047.47 25.4479 1048.18 25.5312 1048.53 25.5312C1051.78 25.5312 1054.48 24.7604 1056.62 23.2188C1058.92 21.5729 1060.06 19.3958 1060.06 16.6875C1060.06 14.9167 1058.99 13.3438 1056.84 11.9688C1054.78 10.6354 1052.53 9.96875 1050.09 9.96875ZM1105.81 45.5938C1104.29 47.6562 1102.46 49.375 1100.31 50.75C1097.69 52.4167 1094.99 53.25 1092.22 53.25C1086.91 53.25 1082.96 52.2292 1080.38 50.1875C1074.92 45.875 1072.19 38.3854 1072.19 27.7188C1072.19 26.6979 1072.24 25.1771 1072.34 23.1562C1072.45 21.1354 1072.5 19.6146 1072.5 18.5938C1072.5 17.7812 1072.52 16.5729 1072.56 14.9688C1072.6 13.3438 1072.62 12.125 1072.62 11.3125C1072.62 9.64583 1072.93 8.07292 1073.53 6.59375C1074.34 4.63542 1075.48 3.65625 1076.94 3.65625C1078.08 3.65625 1079.09 4.03125 1079.97 4.78125C1080.93 5.57292 1081.41 6.59375 1081.41 7.84375C1081.41 9.03125 1081.39 10.8333 1081.34 13.25C1081.32 15.6458 1081.31 17.4479 1081.31 18.6562C1081.31 19.6562 1081.26 21.1667 1081.16 23.1875C1081.05 25.2083 1081 26.7188 1081 27.7188C1081 30.9479 1081.38 33.9479 1082.12 36.7188C1083 40.0312 1084.28 42.3438 1085.97 43.6562C1086.84 44.3438 1088.93 44.7083 1092.22 44.75C1097.72 44.8333 1101.43 40.1458 1103.34 30.6875C1104.34 25.7917 1104.84 18.9167 1104.84 10.0625C1104.84 8.89583 1105.19 7.77083 1105.88 6.6875C1106.81 5.25 1108.15 4.53125 1109.88 4.53125C1111.29 4.53125 1112.35 5.05208 1113.06 6.09375C1113.6 6.86458 1113.88 7.71875 1113.88 8.65625C1113.88 16.8854 1113.49 23.3021 1112.72 27.9062C1111.55 35.0104 1109.25 40.9062 1105.81 45.5938ZM1157.44 13.5312C1155.81 13.5312 1153.28 13.4167 1149.84 13.1875C1146.53 12.9583 1144 12.8542 1142.25 12.875C1142.33 15.25 1142.61 19.4792 1143.09 25.5625C1143.53 30.9375 1143.75 35.1875 1143.75 38.3125C1143.75 39.0208 1143.82 40.0729 1143.97 41.4688C1144.11 42.8646 1144.19 43.9167 1144.19 44.625C1144.19 46.1875 1143.85 47.5938 1143.19 48.8438C1142.33 50.4479 1141.11 51.25 1139.53 51.25C1138.39 51.25 1137.38 50.8854 1136.5 50.1562C1135.52 49.3438 1135.03 48.3229 1135.03 47.0938C1135.03 46.8021 1135.08 46.3646 1135.19 45.7812C1135.29 45.1771 1135.34 44.7188 1135.34 44.4062C1135.34 43.4479 1135.27 42 1135.12 40.0625C1135 38.125 1134.94 36.6667 1134.94 35.6875C1134.94 32.8958 1134.72 29.1146 1134.28 24.3438C1133.78 18.8646 1133.49 15.0833 1133.41 13H1131.78C1127.14 13 1123.45 12.6667 1120.72 12C1118.41 11.4375 1117.25 10.0729 1117.25 7.90625C1117.25 6.84375 1117.62 5.88542 1118.38 5.03125C1119.25 4.01042 1120.4 3.55208 1121.81 3.65625C1122.54 3.69792 1124.2 3.875 1126.78 4.1875C1128.84 4.41667 1130.51 4.53125 1131.78 4.53125C1133.05 4.53125 1134.95 4.51042 1137.47 4.46875C1140.01 4.42708 1141.92 4.40625 1143.19 4.40625C1144.77 4.40625 1147.15 4.52083 1150.31 4.75C1153.48 4.95833 1155.85 5.0625 1157.44 5.0625C1158.69 5.0625 1159.73 5.46875 1160.56 6.28125C1161.42 7.09375 1161.84 8.09375 1161.84 9.28125C1161.84 10.4688 1161.42 11.4792 1160.56 12.3125C1159.73 13.125 1158.69 13.5312 1157.44 13.5312ZM1196.16 10.9375C1195.74 10.9375 1195.3 10.875 1194.84 10.75C1191.47 9.83333 1188.19 9.375 1185 9.375C1183.44 9.375 1181.76 9.5 1179.97 9.75C1178.18 10 1176.27 10.375 1174.25 10.875C1174.25 13.6458 1174.16 17.7604 1173.97 23.2188C1175.14 23.1354 1179.21 22.75 1186.19 22.0625C1190.17 21.6667 1192.69 21.4688 1193.75 21.4688C1194.98 21.4688 1196.03 21.8646 1196.91 22.6562C1197.78 23.4271 1198.22 24.4583 1198.22 25.75C1198.22 28.2292 1196.9 29.6354 1194.25 29.9688C1192.58 30.0938 1190.09 30.3021 1186.78 30.5938C1183.82 30.9271 1179.36 31.3333 1173.41 31.8125C1173.26 34.4583 1173.19 36.5938 1173.19 38.2188C1173.19 42.3021 1173.43 44.625 1173.91 45.1875C1174.14 45.4583 1175.45 45.5938 1177.84 45.5938C1179.14 45.5938 1181.08 45.5625 1183.69 45.5C1186.29 45.4375 1188.24 45.4062 1189.53 45.4062C1189.95 45.4062 1190.56 45.3438 1191.38 45.2188C1192.19 45.0938 1192.79 45.0312 1193.19 45.0312C1194.4 45.0312 1195.43 45.375 1196.28 46.0625C1197.26 46.8333 1197.75 47.9167 1197.75 49.3125C1197.75 51.6458 1196.53 53.0417 1194.09 53.5C1192.01 53.8958 1187.69 54.0938 1181.12 54.0938C1174.33 54.0938 1169.91 53.1771 1167.84 51.3438C1165.57 49.3229 1164.44 44.9479 1164.44 38.2188C1164.44 35.4271 1164.64 31.2396 1165.03 25.6562C1165.45 20.0521 1165.66 15.8646 1165.66 13.0938C1165.66 12.3646 1165.55 11.2917 1165.34 9.875C1165.14 8.4375 1165.03 7.35417 1165.03 6.625C1165.03 3.45833 1166.49 1.875 1169.41 1.875C1170.32 1.875 1171.17 2.13542 1171.94 2.65625C1174.35 2.05208 1176.65 1.60417 1178.81 1.3125C1181 1 1183.06 0.84375 1185 0.84375C1190.25 0.84375 1194.45 1.44792 1197.59 2.65625C1199.51 3.38542 1200.47 4.70833 1200.47 6.625C1200.47 7.70833 1200.09 8.66667 1199.34 9.5C1198.51 10.4583 1197.45 10.9375 1196.16 10.9375ZM1236.69 51.375C1235.56 51.375 1234.53 50.9375 1233.59 50.0625C1227.28 44.1458 1220.34 40.0417 1212.78 37.75C1213.01 43.8125 1213.12 47.1771 1213.12 47.8438C1213.12 49.0312 1212.71 50.0417 1211.88 50.875C1211.04 51.6875 1210 52.0938 1208.75 52.0938C1207.5 52.0938 1206.46 51.6875 1205.62 50.875C1204.79 50.0417 1204.38 49.0312 1204.38 47.8438C1204.38 46.2812 1204.4 43.9479 1204.44 40.8438C1204.48 37.7188 1204.5 35.375 1204.5 33.8125L1204.56 8.59375C1204.56 7.23958 1204.97 6.01042 1205.78 4.90625C1206.84 3.48958 1208.31 2.85417 1210.19 3C1215.25 3.375 1217.84 3.57292 1217.97 3.59375C1220.89 3.94792 1223.36 4.64583 1225.41 5.6875C1234.3 10.1667 1238.75 15.7188 1238.75 22.3438C1238.75 25.0729 1237.81 27.4896 1235.94 29.5938C1234.08 31.6771 1231.29 33.4375 1227.56 34.875C1233.08 37.9583 1237.24 41.1042 1240.03 44.3125C1240.76 45.1458 1241.12 46.0729 1241.12 47.0938C1241.12 48.2604 1240.69 49.2708 1239.81 50.125C1238.94 50.9583 1237.9 51.375 1236.69 51.375ZM1216.66 12.0625C1216.49 12.0417 1215.27 11.9583 1213 11.8125V28.4062C1213.52 28.4271 1213.98 28.4375 1214.38 28.4375C1219.48 28.4375 1223.26 27.8021 1225.72 26.5312C1226.78 25.9896 1227.75 25.2708 1228.62 24.375C1229.52 23.4792 1229.97 22.8021 1229.97 22.3438C1229.97 20.0104 1228.49 17.7604 1225.53 15.5938C1222.72 13.5521 1219.76 12.375 1216.66 12.0625Z" fill="black"/>
</svg>
