<svg width="1920" height="2727" viewBox="0 0 1920 2727" fill="none" xmlns="http://www.w3.org/2000/svg">
<g clip-path="url(#clip0_24_764)">
<rect width="1920" height="2727" fill="#53B4DA"/>
<path d="M1908.33 446.604C1883.29 464.577 1856.61 445.315 1832.76 463.041C1822.92 470.358 1821.8 477.914 1815.81 487.519C1784.97 537.037 1679.73 553.108 1605.93 521.997C1584.99 513.172 1573.75 494.713 1551.69 496.659C1532.6 498.342 1525.98 511.437 1497.86 513.339C1480.93 514.481 1468.09 510.772 1464.3 509.591C1458.97 507.927 1455.22 506.189 1452.28 504.478C1439.66 497.125 1439.24 494.904 1434.69 494.184C1423.44 492.402 1420.02 510.796 1398.23 520.33C1394.13 522.12 1381.02 527.643 1368.91 522.303C1367.24 521.563 1359.07 517.958 1358.06 511.512C1357.08 505.242 1363.46 499.922 1362.41 498.835C1361.2 497.59 1352.63 504.303 1348.57 507.195C1330.89 519.785 1301.42 529.231 1287.8 518.479C1282.96 514.66 1278.96 507.374 1279.32 500.455C1279.72 492.795 1285.26 488.948 1283.74 486.72C1281.43 483.334 1267.91 491.152 1250.12 495.044C1238.61 497.558 1223.72 500.817 1210.54 495.569C1191.5 487.985 1179.37 463.984 1180.03 441.933C1181.02 408.932 1210.6 391.4 1214.89 388.854C1231.58 378.95 1248.52 378.652 1252.65 378.672C1258.05 378.696 1266.72 378.572 1276.9 382.308C1285.37 385.416 1291.4 389.872 1292.69 388.388C1293.93 386.964 1288.51 382.643 1286.42 373.969C1285.81 371.43 1283.9 363.735 1287.53 357.504C1293.5 347.286 1309.1 347.588 1311.01 347.644C1324.09 348.018 1331.95 356.163 1334.67 353.354C1336.75 351.209 1332.02 346.609 1332.17 337.621C1332.19 336.193 1332.48 326.735 1339.11 319.994C1345.74 313.27 1355.93 311.73 1363.64 313.401C1374.07 315.669 1377.41 323.265 1381.78 321.487C1386.39 319.616 1383.94 310.676 1387.72 298.21C1388.84 294.489 1393.98 276.731 1408.6 269.979C1425.39 262.228 1442.42 271.256 1444.87 272.605C1461.82 281.936 1466.14 299.734 1473.88 298.019C1478.59 296.972 1477.75 290.538 1484.85 286.548C1492.12 282.461 1502 284.188 1508.49 287.721C1522.38 295.277 1521.71 311.567 1527.71 311.857C1535.25 312.228 1536.03 286.591 1552.06 265.415C1574.74 235.466 1614.27 232.47 1617.26 232.287C1619.82 232.132 1659.83 230.281 1687.15 258.552C1701.2 273.091 1707.74 291.286 1709.34 296.033C1717.13 319.107 1713.03 333.145 1720.8 336.618C1729.57 340.542 1737.4 323.524 1762.7 315.84C1769.39 313.807 1785.97 308.774 1803.69 315.626C1825.07 323.894 1834.18 344.095 1834.94 345.842C1841.82 361.714 1836.06 370.356 1843.01 375.258C1852.3 381.807 1864.28 367.288 1887.27 371.247C1891.32 371.943 1900.85 373.698 1909.83 380.94C1911.43 382.229 1928.42 396.374 1926.73 416.591C1925.27 434.094 1910.73 444.885 1908.33 446.604Z" fill="#F2F7F8"/>
<path d="M1555.51 495.619C1559.11 495.603 1565.64 494.025 1586.51 508.945C1592.67 513.353 1599.04 517.912 1606.77 521.168C1642.11 536.085 1686.19 540.819 1727.67 534.16C1769.42 527.457 1801.72 510.193 1816.29 486.796C1818.09 483.902 1819.44 481.208 1820.75 478.61C1823.78 472.56 1826.4 467.336 1833.35 462.167C1845.34 453.24 1858.29 453.599 1870.82 453.945C1883.45 454.296 1896.51 454.655 1908.97 445.7C1912.9 442.874 1925.84 432.377 1927.22 415.934C1928.88 396.06 1912.34 382.096 1910.45 380.569C1901.36 373.241 1891.7 371.575 1888.06 370.945C1876.13 368.893 1867.19 371.854 1860.01 374.233C1853.42 376.417 1848.21 378.142 1843.61 374.898C1839.88 372.26 1839.65 368.61 1839.35 363.56C1839.06 358.818 1838.71 352.916 1835.4 345.264C1834.44 343.048 1825.41 323.373 1804.35 315.216C1786.75 308.405 1770.52 313.335 1763.59 315.443C1750.73 319.352 1742.3 325.765 1736.15 330.451C1730.2 334.978 1725.9 338.254 1721.39 336.234C1716.89 334.217 1716.19 328.849 1715.13 320.715C1714.26 314.004 1713.18 305.647 1709.7 295.345C1703.49 276.93 1692.28 262.531 1687.59 257.956C1660.41 231.434 1620.74 236.487 1616.97 237.025C1613.73 237.488 1576.32 243.346 1559.34 270.697C1556.04 276.013 1549.57 288.495 1543.86 301.694C1537.52 316.383 1534.47 326.542 1530.52 326.279C1526.62 326.02 1527.33 315.977 1517.72 305.97C1515.4 303.551 1510.46 298.41 1503.31 296.884C1489.47 293.931 1477.41 306.679 1476.1 308.106C1472.96 304.025 1467.79 298.235 1460.09 293.141C1453.98 289.1 1433.24 275.387 1413.67 284.055C1399.45 290.356 1393.95 304.886 1392.33 309.174C1387.62 321.616 1389.2 332.667 1390.2 337.501C1389.35 336.134 1382.1 324.8 1368.56 323.708C1365.37 323.453 1358.2 323.469 1351.92 328.028C1343.89 333.871 1342.08 343.706 1340.57 351.932C1339.77 356.279 1339.6 359.986 1339.6 362.6C1337.05 361.098 1333.01 359.149 1327.77 358.344C1324.1 357.782 1312.94 356.076 1305.89 363.154C1298.67 370.407 1300.77 382.191 1301.09 383.997C1303.25 396.179 1312.66 402.464 1311.23 404.305C1309.65 406.338 1298.63 398.22 1286.68 393.617C1267.95 386.4 1243.47 386.479 1223.18 396.825C1216.42 400.276 1191.47 412.997 1186.9 440.113C1183.29 461.553 1193.29 486.835 1211.11 494.694C1227.24 501.804 1249.4 494.383 1250.48 494.148C1258.04 492.494 1264.85 490.119 1270.32 488.214C1278.25 485.449 1283.04 483.779 1284.54 485.979C1285.38 487.206 1284.55 488.665 1283.39 490.681C1282.13 492.885 1280.4 495.91 1280.19 499.987C1279.8 507.331 1284.23 514.318 1288.52 517.701C1301.54 527.987 1329.97 519.833 1348.85 506.383C1349.52 505.901 1350.33 505.315 1351.2 504.673C1358.49 499.321 1362.15 496.962 1363.21 498.058C1363.83 498.691 1363.18 499.696 1362.12 501.358C1360.63 503.677 1358.38 507.18 1358.98 510.974C1359.6 514.999 1363.37 518.729 1369.6 521.475C1377.69 525.05 1387.45 524.388 1398.61 519.502C1409.52 514.724 1415.76 507.738 1420.79 502.127C1425.66 496.671 1429.52 492.367 1435.32 493.283C1437.97 493.702 1439.28 494.623 1442.14 496.635C1444.42 498.233 1447.54 500.425 1453.06 503.645C1456.44 505.61 1460.34 507.276 1465 508.726C1470.91 510.567 1483.1 513.505 1498.44 512.464C1504.88 512.03 1510.2 510.99 1514.81 509.639C1521.74 507.606 1524.5 505.662 1531.04 502.86C1541.15 498.528 1547.88 495.647 1555.51 495.619ZM1690.33 537.914C1660.67 537.914 1631.41 532.438 1606.45 521.909C1598.65 518.618 1592.24 514.035 1586.04 509.599C1575.79 502.27 1566.12 495.352 1552.36 496.563C1543.92 497.309 1537.84 500.353 1531.4 503.581C1523.32 507.622 1514.17 512.205 1498.49 513.269C1483.02 514.314 1470.72 511.353 1464.76 509.495C1460.05 508.025 1456.09 506.339 1452.66 504.339C1447.11 501.103 1443.84 498.811 1441.68 497.293C1438.84 495.296 1437.66 494.467 1435.19 494.077C1429.83 493.232 1426.28 497.185 1421.38 502.665C1416.31 508.336 1410 515.394 1398.93 520.24C1387.56 525.217 1377.58 525.883 1369.27 522.212C1362.79 519.351 1358.85 515.402 1358.18 511.101C1357.54 507.005 1359.89 503.346 1361.44 500.923C1362 500.058 1362.76 498.871 1362.64 498.62C1361.88 497.835 1354.2 503.47 1351.67 505.319C1350.8 505.965 1349.99 506.554 1349.31 507.041C1330.2 520.658 1301.34 528.852 1288.02 518.335C1283.58 514.828 1278.99 507.575 1279.38 499.943C1279.61 495.675 1281.39 492.558 1282.7 490.283C1283.7 488.517 1284.43 487.242 1283.88 486.433C1282.72 484.739 1277.36 486.608 1270.58 488.972C1265.09 490.888 1258.26 493.272 1250.65 494.933C1238.83 497.524 1224.12 500.744 1210.81 495.44C1192.56 488.166 1179.32 464.905 1180.03 441.336C1180.97 409.554 1208.36 391.844 1215.1 387.842C1250.81 366.661 1289.82 385.894 1292.86 387.456C1285.36 378.397 1283.22 366.35 1287.66 356.582C1293.68 343.315 1310.73 336.652 1321.72 341.61C1325.22 343.188 1327.59 345.711 1329.12 347.783C1328.22 343.296 1325.55 327.06 1335.28 313.215C1337.49 310.075 1341.67 304.292 1349.45 301.487C1350.04 301.275 1363.86 296.545 1374.72 305.189C1378.99 308.584 1381.12 312.701 1382.12 315.064C1378.64 292.432 1390.59 270.525 1410.47 261.977C1431.13 253.094 1455.7 260.642 1467.17 276.794C1472.3 284.015 1473.87 291.663 1474.38 296.812C1475.03 294.174 1476.93 288.001 1482.58 282.967C1489.57 276.738 1499.6 274.65 1508.47 277.408C1519.19 280.747 1523.87 289.826 1525.1 292.225C1529.2 300.155 1528.72 307.656 1528.36 310.665C1528.85 303.818 1530.38 293.496 1535.58 282.35C1550.19 251.034 1584.83 232.259 1617.92 230.972C1622.7 230.785 1661.5 229.772 1688.17 257.398C1701.46 271.167 1708.19 288.343 1710.46 295.09C1713.96 305.468 1715.05 313.865 1715.93 320.612C1716.99 328.753 1717.63 333.667 1721.72 335.5C1725.79 337.326 1729.72 334.337 1735.66 329.81C1741.86 325.087 1750.35 318.623 1763.36 314.67C1770.37 312.542 1786.78 307.552 1804.64 314.466C1826.01 322.74 1835.16 342.698 1836.14 344.945C1839.51 352.725 1839.86 358.706 1840.16 363.513C1840.45 368.518 1840.65 371.826 1844.07 374.241C1848.34 377.254 1853.13 375.664 1859.76 373.468C1867.03 371.061 1876.07 368.064 1888.2 370.152C1891.89 370.79 1901.71 372.479 1910.95 379.944C1912.88 381.498 1929.72 395.717 1928.02 415.998C1926.61 432.788 1913.44 443.476 1909.44 446.353C1896.75 455.468 1883.56 455.101 1870.79 454.75C1857.84 454.392 1845.6 454.053 1833.82 462.816C1827.04 467.866 1824.45 473.011 1821.46 478.969C1820.15 481.587 1818.79 484.293 1816.97 487.222C1802.29 510.815 1769.78 528.214 1727.8 534.953C1715.44 536.938 1702.85 537.914 1690.33 537.914Z" fill="white"/>
<path d="M1384.74 451.676C1361.91 459.01 1346.61 435.314 1303.35 425.653C1268.39 417.844 1244.84 425.831 1239.74 427.668C1229.53 431.345 1204.93 440.206 1201.14 460.384C1199.42 469.514 1202.17 480.07 1208.62 487.087C1223.14 502.899 1253.54 495.87 1257.16 494.984C1268.27 492.268 1276.11 487.277 1278.65 490.222C1281.29 493.278 1274.05 500.034 1274.54 509.861C1275.06 520.464 1284.28 528.016 1288.68 531.638C1309.95 549.099 1354.94 548.693 1379.12 547.983C1445.45 546.029 1480.25 544.615 1522.44 524.28C1535.75 517.864 1546.15 511.326 1553.05 506.639C1568.77 515.834 1587.5 524.672 1609.27 531.325C1627.03 536.747 1695.53 557.68 1764.76 530.316C1793.86 518.814 1788.26 512.545 1816.59 503.255C1854.09 490.95 1879.38 496.867 1908.46 475.519C1916.4 469.689 1922.57 463.336 1926.48 454.601C1926.99 453.465 1937.05 430.038 1924.25 411.06C1913.57 395.225 1893.89 392.763 1890.96 392.442C1855.65 388.564 1840.59 425.503 1801.1 427.668C1783.48 428.633 1768.62 422.253 1758.7 416.597C1751.1 424.897 1691.7 487.756 1609.68 477.881C1580.14 474.327 1557.31 462.493 1542.64 452.824C1534.88 457.091 1523.6 462.541 1509.32 466.914C1495.76 471.066 1480.15 475.847 1464.89 473.959C1432.61 469.966 1413.11 437.495 1408.62 429.587C1404.65 436.783 1397.18 447.683 1384.74 451.676Z" fill="#CEEAF0"/>
<path d="M2131.5 439.119C2089.46 474.559 2007.47 463.848 1949.49 438.636C1931.77 430.931 1918.36 422.77 1910.62 417.725C1917.37 418.256 1922.07 417.456 1923.55 414.72C1927.36 407.664 1910.1 387.006 1889.22 379.249C1869.57 371.951 1851.16 377.721 1843.85 380.492C1842.25 373.587 1837.55 357.677 1823.22 343.98C1820.1 340.999 1800.51 322.895 1773.21 323.964C1759.18 324.511 1748.72 329.943 1733.23 337.985C1722.53 343.545 1714.29 349.294 1708.8 353.487C1700.26 347.837 1685.92 339.842 1666.59 335.772C1657.34 333.824 1627.04 327.884 1594.6 342.705C1587.4 346 1565 357.273 1548.75 381.213C1533.59 403.558 1534.48 421.404 1524.01 423.142C1513.28 424.924 1509.84 406.583 1488.45 398.533C1466.85 390.396 1445.26 399.665 1441.29 401.372C1415.27 412.538 1406.71 436.074 1403.95 434.471C1400.4 432.412 1407.96 389.944 1441.58 372.672C1444.49 371.175 1471.23 357.958 1497.42 370.162C1504.62 373.512 1509.8 377.859 1513.17 381.209C1511.73 378.311 1509.71 373.155 1510.23 366.832C1511.27 354.26 1521.91 343.006 1534.8 340.634C1546.83 338.425 1556.29 344.792 1558.43 346.317C1556.91 343.097 1554.83 337.372 1555.93 330.664C1558.2 316.781 1572.91 305.69 1587.37 306.561C1596.33 307.104 1602.71 312.085 1605.5 314.607C1605.5 309.507 1606.23 300.531 1611.42 291.443C1621.26 274.223 1642.8 264.125 1663.3 267.737C1684.36 271.447 1695.45 288.05 1697.49 291.249C1698.66 288.83 1701.84 283.104 1708.46 279.837C1718.63 274.813 1728.91 279.548 1732.07 281.006C1746.39 287.594 1750.61 302.522 1751.28 305.025C1753.61 295.288 1759.55 276.393 1775.6 258.808C1782.3 251.462 1804.37 228.049 1840.73 225.839C1843.29 225.685 1883.26 223.84 1910.55 251.973C1921.8 263.571 1927.3 276.511 1932.72 289.277C1939.47 305.183 1942.6 319.41 1944.16 329.666C1948.38 323.782 1957.61 312.6 1973.28 305.492C1975.47 304.502 2010.02 289.444 2035.9 307.504C2048 315.942 2053.52 328.347 2058.19 338.841C2063.39 350.522 2065.39 361.019 2066.25 368.118C2073.43 365.24 2087.15 360.916 2104.14 363.078C2111.79 364.052 2122.8 365.454 2133 373.769C2134.02 374.6 2151.56 389.338 2149.89 409.252C2148.61 424.413 2137.04 434.447 2131.5 439.119Z" fill="white"/>
<path d="M1865.56 417.786C1885.17 411.235 1904.97 416.705 1910.68 418.278C1934.51 424.86 1949.54 440.722 1954.99 435.947C1957.2 434.005 1955.52 430.668 1955.87 423.542C1955.87 423.542 1956.65 407.716 1968.1 394.214C1980.58 379.504 2004.04 374.415 2023.26 380.461C2044.88 387.262 2054.51 406.087 2057.53 411.97C2076.04 448.147 2053.87 485.423 2052.46 487.696C2049.96 491.728 2040.59 506.048 2021.45 516.726C2012.88 521.505 1999.51 527.142 1904.35 523.666C1876.63 522.653 1862.77 522.148 1852.45 521.143C1835.17 519.459 1828.76 517.961 1815.74 518.617C1795.04 519.658 1792.73 524.361 1777.12 524.929C1771.47 525.135 1733.56 526.458 1723.96 504.733C1717.65 490.48 1725.69 471.167 1737.96 461.299C1747.03 454.014 1757.15 452.902 1765.25 452.115C1790.34 449.68 1795.48 461.51 1811.94 459.297C1836.22 456.036 1835.45 427.836 1865.56 417.786Z" fill="#CEEAF0"/>
<path d="M1772.01 452.047C1769.99 452.047 1767.82 452.15 1765.48 452.376C1757.91 453.108 1747.54 454.113 1738.36 461.476C1726.67 470.849 1718.03 489.948 1724.45 504.452C1733.07 523.895 1764.28 524.897 1777.3 524.422C1784.63 524.157 1789.07 522.961 1793.77 521.691C1798.99 520.281 1804.91 518.682 1815.84 518.136C1825.42 517.653 1831.54 518.35 1840.8 519.395C1844.16 519.775 1847.97 520.206 1852.54 520.65C1862.83 521.655 1876.69 522.158 1904.31 523.163C1988.7 526.239 2008.82 522.007 2017.56 518.112C2018.93 517.499 2019.81 517.02 2021.12 516.28C2047.17 501.622 2064.21 464.365 2053.3 432.952C2052.67 431.115 2040.61 397.924 2013.36 394.833C2000.91 393.424 1987.42 398.53 1978.65 407.215C1963.61 422.11 1968.24 441.827 1957.04 445.658C1951 447.724 1946.83 442.974 1934.77 436.863C1929.34 434.108 1888.65 414.051 1860.77 427.739C1855.55 430.304 1847.11 435.853 1839.49 443.707C1831.47 451.964 1828.33 458.693 1819.51 460.973C1813.84 462.438 1808.09 461.48 1807.07 461.298C1803.31 460.637 1803.06 459.849 1793.55 456.465C1785.5 453.603 1782.53 453.056 1781.17 452.819C1778.46 452.34 1775.45 452.047 1772.01 452.047ZM1772.84 525.016C1758.09 525.016 1731.84 522.403 1723.98 504.658C1717.46 489.933 1726.2 470.572 1738.04 461.076C1747.34 453.622 1757.79 452.609 1765.43 451.869C1779.09 450.543 1786.87 453.436 1793.73 455.99C1799.55 458.155 1804.59 460.027 1812.03 459.026C1823.96 457.426 1829.68 449.898 1836.3 441.177C1842.86 432.536 1850.3 422.743 1865.52 417.673C1878.56 413.326 1893.77 413.489 1910.72 418.159C1922.27 421.342 1931.58 426.599 1939.06 430.822C1946.6 435.081 1952.05 438.157 1954.72 435.822C1956.01 434.701 1955.88 433.023 1955.67 430.248C1955.54 428.507 1955.38 426.345 1955.52 423.638C1955.52 423.479 1956.44 407.626 1967.79 394.263C1979.9 380.009 2003.18 374.21 2023.14 380.476C2044.83 387.288 2054.37 405.888 2057.5 412C2076.25 448.56 2053.42 486.129 2052.44 487.712C2048.29 494.402 2038.73 507.064 2021.38 516.727C2011.41 522.272 1994.96 526.979 1904.32 523.674C1876.66 522.668 1862.8 522.162 1852.48 521.16C1847.92 520.713 1844.1 520.281 1840.74 519.901C1831.51 518.856 1825.41 518.168 1815.87 518.643C1804.99 519.189 1799.1 520.78 1793.9 522.181C1789.17 523.46 1784.71 524.663 1777.32 524.933C1776 524.98 1774.49 525.016 1772.84 525.016Z" fill="white"/>
<path d="M698.229 789.605C680.055 813.446 643.951 822.011 610.021 808.771C606.094 816.069 599.789 826.438 590.239 837.318C535.314 899.869 434.042 909.768 358.941 887.173C340 881.474 312.1 870.508 281.929 847.974C271.119 853.536 257.021 859.493 239.949 863.644C213.605 870.055 190.776 869.601 175.148 867.981C139.147 881.962 107.03 889.059 81.4776 892.817C53.9231 896.866 -68.4813 912.099 -168.046 844.782C-201.823 821.943 -211.251 804.294 -214.517 789.391C-221.386 758.058 -204.689 721.946 -188.851 711.665C-183.405 708.13 -171.016 700.491 -157.677 685.909C-155.571 683.607 -153.585 680.84 -151.477 677.034C-131.961 641.837 -169.211 614.053 -159.924 570.511C-148.982 519.207 -77.116 467.234 -22.9391 477.03C4.29568 481.949 12.4697 499.869 37.9132 496.261C70.2076 491.68 72.8733 460.563 102.645 455.601C137.896 449.726 182.122 485.343 188.522 520.454C191.903 539.003 185.118 559.634 187.849 560.218C189.915 560.659 191.183 548.708 200.369 540.066C212.345 528.805 234.072 526.697 251.192 534.375C267.827 541.84 281.312 559.087 280.784 576.142C280.163 596.084 260.562 609.855 262.259 611.56C264.021 613.339 281.054 594.848 304.891 582.688C338.813 565.386 375.379 575.661 380.536 577.191C422.079 589.502 446.566 626.553 449.301 630.808C458.169 644.614 459.082 652.319 468.195 655.802C483.544 661.673 494.359 644.957 528.238 637.12C542.49 633.825 558.563 630.105 576.082 636.871C601.041 646.517 611.679 670.071 612.562 672.106C620.591 690.614 613.87 700.692 621.984 706.408C632.824 714.044 646.814 697.118 673.647 701.729C678.897 702.633 691.144 704.433 699.973 713.033C717.444 730.04 715.327 767.172 698.229 789.605Z" fill="#E9F4F6"/>
<path d="M566.851 734.905C549.62 725.691 519.862 709.782 484.313 704.591C424.839 695.905 409.205 725.987 360.439 714.845C318.645 705.293 316.084 679.988 276.427 664.362C247.136 652.822 200.935 647.877 128.86 681.685C120.046 672.569 103.17 657.775 77.9601 650.291C34.6694 637.449 -20.7907 649.862 -43.0607 683.629C-66.0936 718.555 -39.3885 754.746 -67.1061 780.946C-84.4789 797.368 -110.498 797.827 -115.461 797.917C-151.803 798.555 -172.442 773.33 -182.48 780.946C-190.93 787.358 -186.616 813.063 -175.554 832.547C-134.512 904.837 6.3864 903.779 81.2139 892.579C122.388 886.415 154.828 875.492 174.813 867.752C190.428 869.372 213.24 869.826 239.563 863.417C256.623 859.268 270.71 853.313 281.511 847.753C311.66 870.279 339.538 881.24 358.464 886.937C433.507 909.523 534.702 899.628 589.585 837.101C599.128 826.225 605.428 815.86 609.351 808.565C620.204 812.681 636.741 816.814 655.891 813.516C664.979 811.953 692.789 807.165 697.492 789.406C699.976 780.012 695.826 767.637 687.915 763.98C678.942 759.825 670.547 769.389 658.225 773.309C631.666 781.764 608.478 757.157 566.851 734.905Z" fill="#CEEAF0"/>
<path d="M714.167 716.555C711.804 713.32 702.084 700.733 684.378 695.242C668.553 690.331 655.121 693.813 645.701 696.251C635.347 698.932 627.396 702.97 622.253 706.019C623.461 697.136 625.743 671.188 609.365 649.696C581.203 612.742 525.219 624.816 519.734 626.091C493.554 632.153 476.376 647.421 468.527 655.452C466.468 647.561 452.676 598.039 403.901 574.027C392.182 568.262 360.813 555.285 323.677 564.81C307.132 569.054 294.822 576.385 287.239 581.731C287.834 555.743 272.342 532.862 249.858 525.27C223.546 516.387 200.729 532.866 198.648 534.418C198.806 531.673 201.191 472.257 152.477 439.833C111.332 412.447 66.8845 426.378 62.6228 427.793C31.27 438.208 14.4471 460.816 9.09649 468.707C2.85101 466.256 -63.8085 441.411 -124.308 481.7C-171.593 513.183 -193.781 570.255 -186.068 619.983C-182.589 642.412 -173.612 659.474 -167.059 669.807C-174.914 673.343 -186.565 679.682 -198.02 690.726C-203.806 696.302 -217.197 709.457 -224.352 731.009C-227.231 739.684 -236.294 766.774 -222.776 794.429C-209.439 821.716 -181.472 834.531 -179.853 832.751C-179.127 831.946 -183.628 828.02 -188.614 820.472C-191.34 816.344 -204.023 796.264 -202.682 769.987C-201.048 738.008 -179.699 717.537 -173.796 712.281C-156.426 696.812 -137.459 692.492 -129.065 691.107C-131.517 678.827 -137.399 641.056 -117.096 601.145C-114.463 595.969 -88.3837 546.668 -31.643 531.356C-7.04217 524.718 14.4102 526.874 25.4325 528.722C60.97 534.693 73.5213 553.892 116.128 564.81C133.414 569.241 148.036 570.444 157.187 570.811C162.599 580.673 171.539 594.63 185.669 608.624C194.781 617.649 201.328 624.218 211.347 627.857C237.188 637.245 260.404 623.512 263.766 621.447C273.837 614.68 302.914 597.063 343.468 598.42C361.794 599.031 395.62 603.958 425.315 629.996C451.023 652.54 460.49 679.383 463.826 690.909C468.536 685.986 496.68 657.505 537.786 659.913C546.058 660.401 567.981 662.013 586.843 679.131C611.442 701.46 611.536 732.657 611.463 737.926C615.501 732.874 625.418 721.942 641.676 717.567C661.522 712.226 689.029 717.499 702.277 738.705C711.662 753.729 710.087 777.45 697.875 789.061C696.86 790.029 695.743 790.914 694.531 791.734C695.82 791.255 697.117 790.575 698.419 789.823C704.071 786.55 720.342 777.124 724.867 758.233C729.749 737.857 717.473 721.074 714.167 716.555Z" fill="white"/>
<path d="M38.7991 823.144C72.4805 822.008 103.773 798.914 119.534 764.064C147.719 786.218 167.705 787.868 180.544 785.525C212.79 779.646 215.255 745.808 257.349 731.74C289.133 721.119 320.704 727.744 320.704 727.744C344.374 732.713 358.766 743.908 374.797 737.088C385.013 732.74 390.756 723.262 393.901 716.458C387.289 715.61 382.47 713.745 379.475 712.339C365.737 705.904 355.899 693.788 349.573 683.655C337.36 672.099 315.132 654.439 282.705 644.887C229.288 629.147 184.267 646.035 170.204 652.034C153.818 659.023 141.454 667.45 133.272 673.813C133.421 668.29 133.263 660.531 131.821 651.418C130.935 645.81 126.471 617.6 109.4 597.432C86.4558 570.324 43.4899 560.983 8.31189 572.098C-31.3074 584.612 -48.7299 618.8 -54.4539 630.033C-76.9815 674.242 -72.336 729.178 -45.201 769.175C-35.1976 783.922 -7.53232 824.699 38.7991 823.144Z" fill="#E9F4F6"/>
<path d="M-13.6013 806.512C-13.456 806.366 -13.3119 806.216 -13.1661 806.07C-38.6225 782.788 -57.8111 745.6 -50.2973 722.389C-49.2167 719.051 -45.7512 708.346 -36.4416 703.903C-26.7216 699.263 -20.0787 705.956 -9.35025 705.991C17.6656 706.076 23.0088 663.793 56.2941 656.922C73.8846 653.292 88.7904 661.717 92.5154 663.823C115.454 676.789 121.092 701.518 122.04 706.043C131.216 697.428 146.867 684.845 169.276 676.046C206.127 661.576 239.565 666.03 256.189 669.429C286.681 675.663 311.881 691.422 322.639 698.863C346.502 715.369 360.305 732.882 377.195 729.002C384.995 727.206 390.454 721.535 393.901 716.891C387.276 716.04 382.448 714.171 379.446 712.761C365.682 706.308 355.824 694.159 349.486 683.998C328.102 650.585 279.211 638.456 273.812 637.117C236.387 627.831 203.721 639.483 184.451 646.354C161.404 654.576 144.085 665.669 132.76 674.129C132.91 668.591 132.751 660.811 131.306 651.672C130.419 646.049 125.925 617.784 108.842 597.539C86.6782 571.271 44.0833 560.585 7.55503 572.135C-32.1421 584.684 -49.5988 618.965 -55.3339 630.229C-89.6393 697.6 -47.8583 766.839 -46.0629 769.753C-40.7013 778.456 -30.375 792.653 -13.6013 806.512Z" fill="white"/>
<path d="M423.201 802.617C423.03 800.278 422.769 792.52 428.078 785.73C434.635 777.349 444.795 776.704 448.381 776.48C459.93 775.746 468.252 781.589 470.697 783.447C470.59 780.405 470.479 767.232 480.429 756.021C489.431 745.882 500.869 743.875 505.045 743.205C507.9 742.751 529.374 739.636 541.043 753.551C547.69 761.478 548.621 771.921 548.827 774.209C549.19 778.257 548.874 781.66 548.506 784.037C549.318 782.794 556.072 772.889 568.565 771.93C580.572 771.013 588.424 779.081 590.313 781.024C601.55 792.571 598.644 808.651 598.302 810.381C606.679 807.857 615.707 810.433 621.122 816.858C627.247 824.124 627.623 834.975 621.823 843.067C620.169 844.501 617.656 846.58 614.437 848.846C612.68 850.086 594.241 862.787 571.006 865.69C536.598 869.988 526.677 848.419 490.94 855.263C481.579 857.058 484.144 858.179 473.219 860.478C466.311 861.933 425.077 870.613 397.329 847.638C391.486 842.804 380.347 833.362 381.475 820.389C382.287 811.069 389.348 801.08 400.308 798.071C412.271 794.782 421.978 801.711 423.201 802.617Z" fill="white"/>
<path d="M491.347 822.73C472.706 827.178 460.465 838.283 454.692 844.401C453.8 842.782 444.987 827.385 428.463 826.136C417.828 825.331 404.036 830.388 402.401 838.886C400.727 847.564 412.443 856.214 414.937 858.053C432.801 871.238 448.74 863.839 492.624 865.99C518.784 867.274 525.163 870.497 546.503 868.282C577.33 865.08 584.716 856.201 587.393 851.089C587.872 850.169 590.796 844.388 589.494 837.335C587.039 824.039 571.877 818.74 570.242 818.194C568.201 817.515 553.497 812.619 544.21 821.489C539.693 825.804 538.544 831.379 538.19 834.056C535.41 830.998 530.679 826.622 523.711 823.624C510.821 818.083 498.836 820.942 491.347 822.73Z" fill="#E9F4F6"/>
<path d="M-13.7112 280.95C-29.1226 298.342 -87.2414 241.744 -156.821 251.279C-165.062 252.411 -204.395 257.799 -211.807 282.287C-215.948 295.968 -208.811 313.145 -198.098 322.249C-190.708 328.526 -179.425 328.598 -158.064 330.323C-149.307 331.028 -140.961 331.143 -136.111 337.176C-132.986 341.066 -134.734 343.987 -131.971 348.299C-126.241 357.236 -113.171 361.011 -100.2 362.416C-75.7318 365.067 -35.4841 369.427 -1.99935 351.194C3.23364 348.346 13.3817 342.181 25.6649 344.085C33.0533 345.229 32.9932 348.018 44.2233 351.762C57.1678 356.079 68.5229 356.045 76.4161 356.105C103.491 356.301 110.092 347.731 128.477 347.599C149.727 347.445 160.193 360.622 180.156 367.749C250.53 392.877 352.002 387.518 382.581 355.413C386.69 351.096 387.492 347.719 392.633 343.799C409.064 331.28 426.446 334.226 472.282 332.441C502.878 331.254 510.443 329.059 517.273 323.56C530.739 312.727 533.081 295.724 533.41 293.056C537.177 262.517 509.261 237.645 498.449 228.012C477.735 209.558 454.657 199.805 414.768 189.797C379.867 181.035 287.918 158.904 200.337 178.375C176.538 183.665 157.932 188.008 138.615 202.436C118.685 217.325 117.327 228.508 100.079 234.498C75.6861 242.97 67.7395 223.858 39.6734 231.048C19.0785 236.322 -1.90805 253 -10.8078 273.704C-13.1744 279.204 -12.226 279.272 -13.7112 280.95Z" fill="#E9F4F6"/>
<path d="M687.421 306.832C636.879 345.836 443.741 321.751 444.809 310.706C445.423 304.344 509.422 313.722 521.336 285.877C525.241 276.742 523.223 264.366 518.828 255.609C512.939 243.883 502.834 238.733 495.386 234.939C491.801 233.11 476.334 225.617 454.229 226.897C430.646 228.262 423.151 238.12 413.408 232.719C403.912 227.458 409.337 216.158 398.917 202.353C382.463 180.552 350.078 180.841 347.791 180.892C330.106 181.3 315.581 189.075 308.759 192.728C305.025 194.727 299.412 199.244 288.877 205.538C280.637 210.455 276.519 212.917 274.224 213.542C261.163 217.094 251.084 206.138 235.106 198.427C235.106 198.427 213.163 187.833 186.178 189.458C151.463 191.55 127.548 214.274 120.636 220.84C105.878 234.867 97.8539 249.723 93.702 258.952C90.1991 254.261 82.9032 245.882 70.8699 240.791C49.9989 231.954 30.4572 239.63 25.3987 241.548C0.0912741 251.152 -9.13744 273.612 -11.8935 271.864C-14.9045 269.958 -6.45596 241.859 15.6543 219.943C39.0621 196.743 66.6265 191.533 73.287 190.431C98.5344 186.255 118.758 192.311 128.05 195.752C130.445 189.168 148.302 142.326 192.617 128.746C212.401 122.685 230.354 125.429 232.973 125.858C255.168 129.486 270.046 140.773 276.37 146.209C277.694 144.98 288.57 135.245 304.028 137.686C317.872 139.876 325.069 150.194 326.244 151.942C330.949 143.164 339.172 130.307 352.829 118.233C362.138 109.999 383.813 91.3791 416.836 89.2058C452.743 86.8411 478.6 105.457 486.669 111.887C523.934 141.573 526.489 185.898 526.774 192.928C530.364 188.756 538.936 179.931 553.023 175.384C560.705 172.905 576.116 169.779 592.4 176.894C612.593 185.719 620.501 205.462 621.157 207.167C627.097 222.669 621.204 230.716 627.676 235.705C636.321 242.373 648.436 228.955 670.349 233.71C674.216 234.552 683.286 236.628 691.611 243.947C693.093 245.248 708.828 259.522 706.354 278.83C704.455 293.669 692.271 303.089 687.421 306.832Z" fill="white"/>
<path d="M508.194 282.775C478.895 272.842 481.721 265.268 458.521 258.544C399.262 241.372 359.299 295.373 305.057 277.237C287.885 271.499 276.176 260.831 269.812 254.107C264.881 260.38 228.66 304.924 170.927 304.342C143.736 304.07 122.967 293.899 112.005 287.357C94.2049 313.029 62.8618 324.395 35.3883 315.958C2.48902 305.859 -8.04693 272.532 -8.86614 269.778C-9.63677 271.235 -10.3644 272.706 -11.0122 274.207C-13.3765 279.681 -12.429 279.749 -13.9127 281.419C-29.3085 298.731 -87.3685 242.392 -156.877 251.884C-165.111 253.01 -204.403 258.374 -211.808 282.75C-215.945 296.368 -208.816 313.467 -198.113 322.529C-190.731 328.777 -179.459 328.849 -158.12 330.566C-149.372 331.268 -141.034 331.383 -136.188 337.388C-133.067 341.26 -134.813 344.168 -132.053 348.461C-126.329 357.357 -113.272 361.114 -100.314 362.512C-75.8706 365.152 -35.6653 369.491 -2.21272 351.342C3.01498 348.507 13.1528 342.37 25.4235 344.265C32.8045 345.405 32.7444 348.18 43.9632 351.908C56.8946 356.205 68.2382 356.171 76.1234 356.23C103.171 356.426 109.765 347.895 128.131 347.763C149.36 347.61 159.816 360.727 179.759 367.821C250.061 392.835 351.431 387.5 381.979 355.542C386.083 351.245 386.885 347.883 392.021 343.981C416.665 325.271 450.61 329.674 471.589 332.675C513.219 338.638 576.16 347.215 636.403 334.515C636.403 334.515 693.377 322.903 704.468 295.824C710.175 281.895 707.251 270.156 707.251 270.156C706.143 265.71 704.353 262.301 703.01 260.121C702.055 262.288 689.912 288.573 661.095 293.546C639.067 297.35 622.44 286.086 619.098 283.719C591.662 291.089 550.991 297.282 508.194 282.775Z" fill="#CEEAF0"/>
<path d="M432.549 274.945C451.589 269.467 470.309 275.554 475.704 277.309C498.233 284.632 511.946 300.518 517.358 296.156C519.559 294.375 518.084 291.099 518.722 284.258C518.722 284.258 520.133 269.071 531.653 256.563C544.202 242.94 566.871 239.029 585.005 245.645C605.409 253.091 613.834 271.597 616.47 277.382C632.67 312.953 609.894 347.872 608.453 350.002C605.898 353.777 596.325 367.153 577.562 376.623C569.167 380.857 556.134 385.722 465.234 378.399C438.751 376.265 425.51 375.2 415.678 373.798C399.214 371.455 393.148 369.751 380.659 369.837C360.812 369.969 358.411 374.395 343.452 374.288C338.036 374.25 301.709 373.939 293.428 352.643C287.996 338.671 296.485 320.429 308.646 311.458C317.628 304.829 327.358 304.182 335.146 303.764C359.252 302.469 363.673 314.065 379.507 312.625C402.878 310.503 403.329 283.35 432.549 274.945Z" fill="white"/>
<path d="M41.336 300.488C39.7528 310.006 22.4344 313.464 20.8096 313.775C8.48555 316.129 2.07209 311.49 -15.3722 307.217C-46.4269 299.614 -53.4483 300.356 -58.7861 302.484C-65.7252 305.251 -65.4155 307.942 -73.5664 310.624C-76.9629 311.741 -89.4159 315.634 -102.727 309.831C-106.625 308.13 -118.525 302.944 -121.22 291.231C-122.987 283.556 -119.654 277.096 -118.831 275.526C-115.144 268.499 -109.045 265.489 -104.889 263.433C-102.341 262.175 -96.6326 259.438 -88.7648 259.6C-83.2899 259.715 -78.9844 261.186 -76.4009 262.299C-75.3518 258.636 -73.3304 253.485 -69.1671 248.641C-56.8499 234.31 -30.7933 228.502 -12.8688 241.243C2.4302 252.125 3.80053 270.832 3.96588 273.718C9.44595 274.077 20.296 275.616 30.1012 283.436C34.1874 286.694 42.5238 293.346 41.336 300.488Z" fill="white"/>
<path d="M32.5219 284.251C15.576 291.579 -4.55992 290.851 -18.2764 277.805C-23.4157 279.963 -34.0227 283.567 -47.4709 281.974C-57.7917 280.752 -65.5736 276.967 -70.087 274.307C-71.5934 276.887 -74.7346 281.498 -80.3075 285.076C-81.9257 286.117 -91.8283 292.245 -104.296 288.95C-113.343 286.558 -118.665 280.545 -120.526 278.22C-121.356 280.863 -122.338 285.327 -121.244 290.428C-118.665 302.441 -106.743 307.868 -102.75 309.672C-89.4351 315.677 -76.9804 311.649 -73.5834 310.493C-65.4313 307.718 -65.7411 304.934 -58.801 302.071C-53.4624 299.869 -46.4401 299.101 -15.381 306.968C2.06569 311.388 8.48004 316.189 20.8058 313.753C22.4308 313.431 39.7516 309.853 41.3351 300.006C42.371 293.56 36.2021 287.339 32.5219 284.251Z" fill="#E9F4F6"/>
<path d="M620.07 283.987C618.458 288.027 601.816 327.759 558.026 338.674C520.362 348.066 490.728 329.134 485.939 325.959C463.641 349.241 412.431 359.112 386.9 338.513C383.68 340.469 359.975 354.33 332.768 344.564C314.04 337.846 304.384 323.786 301.369 318.957C298.985 320.625 294.604 324.206 292.139 330.237C287.802 340.847 292.689 350.994 293.577 352.755C303.919 373.206 337.379 374.187 341.622 374.289C342.556 374.31 343.286 374.314 343.772 374.318C358.781 374.424 361.186 370.015 381.104 369.883C393.634 369.798 399.721 371.496 416.239 373.83C426.104 375.222 439.39 376.287 465.961 378.414C557.165 385.709 570.237 380.862 578.665 376.644C596.958 367.477 607.322 353.511 609.659 350.124C612.427 346.105 626.885 324.304 622.979 296.375C622.249 291.151 621.042 286.898 620.07 283.987Z" fill="#CEEAF0"/>
<path d="M1586.57 684.338C1609.79 669.642 1633.36 656.293 1657.8 644.551C1639.36 639.741 1624.4 640.547 1622.76 640.663C1619.28 640.901 1573.42 644.789 1547.38 679.959C1535.55 695.936 1531.05 713.963 1527.02 724.738C1547.87 714.576 1567 696.732 1586.57 684.338Z" fill="#F2F7F8"/>
<path d="M1965.45 811.639C1954.9 803.28 1943.78 801.329 1939.05 800.556C1912.2 796.164 1898.37 813.224 1887.48 805.677C1879.32 800.025 1885.95 789.882 1877.77 771.424C1876.87 769.391 1866.04 745.91 1841.03 736.468C1820.3 728.651 1801.01 734.689 1793.23 737.131C1763.8 746.347 1754.84 766.286 1744.58 761.794C1735.48 757.816 1740.13 741.396 1730.81 714.546C1728.89 709.021 1721.09 687.85 1704.56 671.022C1694.49 660.768 1683 653.984 1671.87 649.498C1628.06 669.276 1586.82 694.359 1548.18 723.132C1505.43 754.971 1455.07 736.651 1405.64 741.391C1371.55 744.662 1342.65 762.335 1316 782.722C1303.72 792.114 1297.41 801.849 1287.62 813.357C1285.16 816.252 1280.97 822.053 1276.61 823.196C1266.77 825.776 1251.27 818.147 1239.08 811.898C1241.89 820.495 1247.17 824.914 1245.85 826.467C1244.36 828.207 1237.28 823.064 1227.38 819.522C1215.47 815.263 1205.36 815.495 1199.07 815.517C1194.25 815.539 1174.5 816.053 1155.13 827.776C1154.72 828.031 1154.1 828.401 1153.32 828.892C1149.44 831.356 1114.85 854.124 1115 890.068C1115.09 910.974 1126.91 930.786 1142.08 941.52C1159.51 953.857 1169.64 945.918 1204.3 959.752C1224.9 967.973 1222.52 971.249 1241.44 978.332C1269.27 988.752 1293.53 988.807 1307.71 988.707C1325.51 988.591 1346.07 988.453 1370.23 979.398C1397.03 969.354 1412.78 954.145 1433.11 960.36C1438.45 961.995 1438.7 963.641 1447.17 966.205C1451.61 967.548 1466.62 971.752 1486.34 970.244C1519.12 967.746 1526.71 952.404 1548.95 950.25C1574.66 947.758 1587.96 969.188 1612.46 979.277C1698.82 1014.85 1821.39 995.055 1856.87 936.962C1863.76 925.686 1864.99 916.858 1876.39 908.228C1904.02 887.295 1935.33 909.515 1964.35 888.289C1967.13 886.262 1983.98 873.527 1985.51 853.08C1987.29 829.472 1967.33 813.13 1965.45 811.639Z" fill="#F2F7F8"/>
<path d="M1965.97 907.57C1940.24 920.215 1891.43 900.718 1880.35 909.912C1877.24 912.487 1874.81 915.441 1874.81 915.441C1870.1 921.549 1870 927.227 1856.88 941.747C1835.25 965.676 1810.31 976.827 1809.29 975.416C1807.81 973.349 1836.28 959.596 1860.42 926.94C1870.78 912.917 1905.84 865.488 1889.63 814.763C1879.83 784.119 1856.44 768.249 1852.08 765.393C1811.16 738.598 1765.73 756.579 1762.57 757.891C1744.26 765.498 1732.46 777.24 1726.32 784.362C1722.57 774.478 1712.82 752.88 1690.23 735.704C1667.62 718.522 1644.77 715.341 1632.35 713.786C1589.69 708.445 1556.45 725.721 1546.88 730.853C1519.64 745.488 1515.38 758.79 1501.37 767.152C1497.88 769.23 1493.44 771.154 1488.01 772.571C1482.54 774.004 1477.86 774.329 1474.75 774.379C1462.43 751.772 1437.91 742.511 1419.98 749.915C1403.38 756.767 1398.27 775.487 1397.59 778.138C1392.8 775.101 1384.12 770.542 1372.63 769.671C1355.82 768.392 1343.4 775.796 1336.08 780.156C1306.39 797.862 1295.6 830.17 1292.54 840.693C1285.51 836.553 1275.62 832.413 1265.86 835.247C1253.85 838.742 1251.99 849.937 1242.93 850.704C1231.51 851.663 1226.75 834.541 1212.46 825.644C1202.12 819.206 1184.51 815.645 1152.62 828.378C1161.53 823.12 1177.85 815.237 1198.4 815.033C1204.82 814.972 1215 814.427 1226.73 819.029C1229.77 820.226 1232.2 821.466 1233.89 822.408C1232.99 819.101 1231.99 813.77 1232.72 807.299C1233.02 804.614 1234.1 795.971 1240.18 788.121C1249.08 776.639 1265.96 770.344 1278.41 774.842C1287.34 778.072 1291.87 786.093 1293.86 784.742C1295.85 783.392 1290.16 776.27 1290.78 766.446C1291.67 752.379 1304.84 743.162 1306.68 741.916C1310.05 739.623 1321.2 732.054 1334.01 736.123C1342.1 738.697 1346.74 744.606 1348.52 747.169C1348.24 741.745 1348.19 726.774 1357.93 712.067C1359.8 709.233 1373.27 689.603 1398.54 686.886C1417.7 684.819 1431.75 693.771 1435.63 696.328C1447.28 704.002 1453.21 713.93 1455.76 718.929C1457.1 716.085 1460.76 709.354 1468.45 705.463C1481.55 698.837 1494.56 705.766 1496.06 706.598C1505.87 712.078 1509.42 721.316 1510.33 723.929C1512.27 712.513 1518.28 686.72 1539.66 664.037C1563.5 638.757 1601.82 622.181 1639.97 629.915C1674.44 636.899 1695.13 660.476 1704.25 670.861C1721.21 690.188 1728.67 709.156 1730.52 714.288C1735.35 727.705 1737.1 739.601 1737.74 748.107C1747.1 740.946 1764.95 729.453 1789.98 725.621C1800.56 724.006 1819.47 721.36 1841.03 729.938C1863.82 739 1876.13 755.245 1881.49 762.51C1893.52 778.827 1897.95 794.984 1899.76 804.212C1906.51 801.439 1921.23 796.539 1938.9 800.105C1959.68 804.3 1984.21 820.121 1989.8 847.209C1994.6 870.444 1984.71 898.364 1965.97 907.57Z" fill="white"/>
<path d="M1947.41 826.658C1925.29 813.945 1900.51 822.006 1892.77 824.518C1868.92 832.269 1869.98 843.436 1851.58 846.08C1830.3 849.141 1825.5 834.698 1803.75 837.481C1783.76 840.042 1782.48 853.149 1761.31 856.182C1746.62 858.284 1744.45 852.362 1718.06 847.666C1707.13 845.725 1683.07 841.645 1655.43 846.834C1644.37 848.908 1627.75 853.404 1608.96 864.277C1602.73 874.318 1588.78 897.394 1560.68 907.884C1539.3 915.868 1514.51 918.025 1492.03 916.539C1476.16 915.486 1409.07 906.875 1402.01 880.96C1380.77 897.976 1358.7 915.447 1331.8 921.401C1318.43 924.362 1289.85 930.323 1260.72 915.425C1246.81 908.306 1237.51 898.836 1232 892.193C1224.28 895.903 1210.16 901.203 1192.8 899.357C1151.32 894.943 1131.12 853.981 1129.59 850.765C1125.08 857.136 1116.66 870.925 1115.19 890.081C1114.8 895.087 1112.75 929.585 1140.21 953.265C1166.66 976.081 1198.86 970.204 1202.85 969.405C1212.57 978.005 1252.89 1011.75 1313.69 1011.36C1382.3 1010.92 1425.22 967.332 1432.81 959.353C1436.2 962.852 1459.28 985.894 1495.19 983.926C1529.48 982.047 1549.52 958.788 1552.8 954.857C1565.98 962.968 1586.26 974.14 1612.5 983.505C1639.35 993.08 1738.77 1028.56 1829.29 979.086C1845.49 970.231 1870.4 953.742 1894.48 923.431C1928.47 935.152 1961.92 922.117 1972.67 899.102C1980.71 881.886 1975.5 860.291 1966.98 846.319C1964.68 842.543 1958.85 833.234 1947.41 826.658Z" fill="#CEEAF0"/>
<path d="M1858.28 919.904C1857.17 922.526 1853.86 929.399 1838.52 942.964C1826.86 953.268 1812.73 965.757 1790.66 974.367C1779.38 978.765 1730.94 997.663 1704.49 976.307C1691.9 966.15 1690.68 952.05 1678.12 950.525C1666.82 949.154 1660.99 959.971 1649.64 957.289C1640.41 955.109 1634.38 945.63 1632.2 938.692C1626.31 919.887 1641.76 897.471 1659.59 890.063C1662.8 888.735 1669.12 885.878 1677.39 886.944C1687.44 888.233 1693.91 894.346 1696.12 896.646C1696.25 894.199 1697.22 880.087 1708.95 870.772C1725.02 858.01 1745.55 866.751 1746.48 867.166C1753.25 870.182 1757.66 874.646 1760.1 877.574C1762.22 873.045 1770.34 857.201 1788.41 850.039C1810.79 841.172 1837.77 849.842 1851.81 869.106C1862.77 884.146 1864.86 904.3 1858.28 919.904Z" fill="white"/>
<path d="M1856.63 923.594C1857.07 924.012 1845.54 941.066 1828.84 955.11C1788.03 989.442 1722.33 1003.5 1700.25 980.13C1693.68 973.172 1692.9 964.956 1682.91 960.676C1670.89 955.522 1661.68 963.014 1649.12 957.798C1640.86 954.364 1635.78 947.362 1632.72 941.779C1636.44 944.117 1643.2 947.607 1652.16 948.158C1670.69 949.304 1683.4 936.992 1685.67 934.715C1696.05 943.399 1716.21 957.67 1745.03 963.019C1758.8 965.58 1796.55 970.367 1828.58 949.338C1845.04 938.528 1856.21 923.193 1856.63 923.594Z" fill="#CEEAF0"/>
<path d="M-196.659 1255.04C-221.493 1265.3 -256.681 1275.21 -284 1276.45V2878.5H2097V1231.72C2053.84 1241.49 2008.8 1246.42 1965.78 1257.33C1934.55 1265.25 1899.14 1272.67 1866.83 1276.45C1802.87 1283.92 1738.41 1279.91 1674.64 1290.21C1620.29 1298.99 1566.42 1292.4 1512.19 1297.86C1427.42 1306.39 1357.41 1265.36 1282.45 1235.54C1255.02 1224.63 1221.66 1227.88 1192.36 1228.28C1143.41 1228.95 1092.67 1235.97 1045.11 1246.25C919.829 1273.32 793.742 1282.37 665.573 1276.26C620.878 1274.12 576.119 1267.82 531.607 1263.45C489.35 1259.3 451.601 1247.98 410.089 1242.04C259.923 1220.56 104.084 1219.06 -47.5034 1225.03C-94.5913 1226.88 -153.829 1237.34 -196.659 1255.04Z" fill="#25C2FF" stroke="#83DCFF" stroke-width="80" stroke-linecap="round"/>
<path d="M1649 1743H23C-282.413 1743 -530 1990.59 -530 2296C-530 2601.41 -282.413 2849 23.0001 2849H1649C1954.41 2849 2202 2601.41 2202 2296C2202 1990.59 1954.41 1743 1649 1743Z" fill="#03D20B" stroke="black" stroke-width="10" stroke-linecap="round"/>
<path d="M1908.33 1866.6C1883.29 1884.58 1856.61 1865.31 1832.76 1883.04C1822.92 1890.36 1821.8 1897.91 1815.81 1907.52C1784.97 1957.04 1679.73 1973.11 1605.93 1942C1584.99 1933.17 1573.75 1914.71 1551.69 1916.66C1532.6 1918.34 1525.98 1931.44 1497.86 1933.34C1480.93 1934.48 1468.09 1930.77 1464.3 1929.59C1458.97 1927.93 1455.22 1926.19 1452.28 1924.48C1439.66 1917.12 1439.24 1914.9 1434.69 1914.18C1423.44 1912.4 1420.02 1930.8 1398.23 1940.33C1394.13 1942.12 1381.02 1947.64 1368.91 1942.3C1367.24 1941.56 1359.07 1937.96 1358.06 1931.51C1357.08 1925.24 1363.46 1919.92 1362.41 1918.84C1361.2 1917.59 1352.63 1924.3 1348.57 1927.2C1330.89 1939.78 1301.42 1949.23 1287.8 1938.48C1282.96 1934.66 1278.96 1927.37 1279.32 1920.45C1279.72 1912.8 1285.26 1908.95 1283.74 1906.72C1281.43 1903.33 1267.91 1911.15 1250.12 1915.04C1238.61 1917.56 1223.72 1920.82 1210.54 1915.57C1191.5 1907.98 1179.37 1883.98 1180.03 1861.93C1181.02 1828.93 1210.6 1811.4 1214.89 1808.85C1231.58 1798.95 1248.52 1798.65 1252.65 1798.67C1258.05 1798.7 1266.72 1798.57 1276.9 1802.31C1285.37 1805.42 1291.4 1809.87 1292.69 1808.39C1293.93 1806.96 1288.51 1802.64 1286.42 1793.97C1285.81 1791.43 1283.9 1783.73 1287.53 1777.5C1293.5 1767.29 1309.1 1767.59 1311.01 1767.64C1324.09 1768.02 1331.95 1776.16 1334.67 1773.35C1336.75 1771.21 1332.02 1766.61 1332.17 1757.62C1332.19 1756.19 1332.48 1746.73 1339.11 1739.99C1345.74 1733.27 1355.93 1731.73 1363.64 1733.4C1374.07 1735.67 1377.41 1743.27 1381.78 1741.49C1386.39 1739.62 1383.94 1730.68 1387.72 1718.21C1388.84 1714.49 1393.98 1696.73 1408.6 1689.98C1425.39 1682.23 1442.42 1691.26 1444.87 1692.61C1461.82 1701.94 1466.14 1719.73 1473.88 1718.02C1478.59 1716.97 1477.75 1710.54 1484.85 1706.55C1492.12 1702.46 1502 1704.19 1508.49 1707.72C1522.38 1715.28 1521.71 1731.57 1527.71 1731.86C1535.25 1732.23 1536.03 1706.59 1552.06 1685.42C1574.74 1655.47 1614.27 1652.47 1617.26 1652.29C1619.82 1652.13 1659.83 1650.28 1687.15 1678.55C1701.2 1693.09 1707.74 1711.29 1709.34 1716.03C1717.13 1739.11 1713.03 1753.14 1720.8 1756.62C1729.57 1760.54 1737.4 1743.52 1762.7 1735.84C1769.39 1733.81 1785.97 1728.77 1803.69 1735.63C1825.07 1743.89 1834.18 1764.09 1834.94 1765.84C1841.82 1781.71 1836.06 1790.36 1843.01 1795.26C1852.3 1801.81 1864.28 1787.29 1887.27 1791.25C1891.32 1791.94 1900.85 1793.7 1909.83 1800.94C1911.43 1802.23 1928.42 1816.37 1926.73 1836.59C1925.27 1854.09 1910.73 1864.89 1908.33 1866.6Z" fill="#F2F7F8"/>
<path d="M1555.51 1915.62C1559.11 1915.6 1565.64 1914.02 1586.51 1928.95C1592.67 1933.35 1599.04 1937.91 1606.77 1941.17C1642.11 1956.08 1686.19 1960.82 1727.67 1954.16C1769.42 1947.46 1801.72 1930.19 1816.29 1906.8C1818.09 1903.9 1819.44 1901.21 1820.75 1898.61C1823.78 1892.56 1826.4 1887.34 1833.35 1882.17C1845.34 1873.24 1858.29 1873.6 1870.82 1873.95C1883.45 1874.3 1896.51 1874.65 1908.97 1865.7C1912.9 1862.87 1925.84 1852.38 1927.22 1835.93C1928.88 1816.06 1912.34 1802.1 1910.45 1800.57C1901.36 1793.24 1891.7 1791.57 1888.06 1790.95C1876.13 1788.89 1867.19 1791.85 1860.01 1794.23C1853.42 1796.42 1848.21 1798.14 1843.61 1794.9C1839.88 1792.26 1839.65 1788.61 1839.35 1783.56C1839.06 1778.82 1838.71 1772.92 1835.4 1765.26C1834.44 1763.05 1825.41 1743.37 1804.35 1735.22C1786.75 1728.4 1770.52 1733.33 1763.59 1735.44C1750.73 1739.35 1742.3 1745.76 1736.15 1750.45C1730.2 1754.98 1725.9 1758.25 1721.39 1756.23C1716.89 1754.22 1716.19 1748.85 1715.13 1740.72C1714.26 1734 1713.18 1725.65 1709.7 1715.35C1703.49 1696.93 1692.28 1682.53 1687.59 1677.96C1660.41 1651.43 1620.74 1656.49 1616.97 1657.03C1613.73 1657.49 1576.32 1663.35 1559.34 1690.7C1556.04 1696.01 1549.57 1708.49 1543.86 1721.69C1537.52 1736.38 1534.47 1746.54 1530.52 1746.28C1526.62 1746.02 1527.33 1735.98 1517.72 1725.97C1515.4 1723.55 1510.46 1718.41 1503.31 1716.88C1489.47 1713.93 1477.41 1726.68 1476.1 1728.11C1472.96 1724.03 1467.79 1718.23 1460.09 1713.14C1453.98 1709.1 1433.24 1695.39 1413.67 1704.06C1399.45 1710.36 1393.95 1724.89 1392.33 1729.17C1387.62 1741.62 1389.2 1752.67 1390.2 1757.5C1389.35 1756.13 1382.1 1744.8 1368.56 1743.71C1365.37 1743.45 1358.2 1743.47 1351.92 1748.03C1343.89 1753.87 1342.08 1763.71 1340.57 1771.93C1339.77 1776.28 1339.6 1779.99 1339.6 1782.6C1337.05 1781.1 1333.01 1779.15 1327.77 1778.34C1324.1 1777.78 1312.94 1776.08 1305.89 1783.15C1298.67 1790.41 1300.77 1802.19 1301.09 1804C1303.25 1816.18 1312.66 1822.46 1311.23 1824.31C1309.65 1826.34 1298.63 1818.22 1286.68 1813.62C1267.95 1806.4 1243.47 1806.48 1223.18 1816.83C1216.42 1820.28 1191.47 1833 1186.9 1860.11C1183.29 1881.55 1193.29 1906.84 1211.11 1914.69C1227.24 1921.8 1249.4 1914.38 1250.48 1914.15C1258.04 1912.49 1264.85 1910.12 1270.32 1908.21C1278.25 1905.45 1283.04 1903.78 1284.54 1905.98C1285.38 1907.21 1284.55 1908.66 1283.39 1910.68C1282.13 1912.89 1280.4 1915.91 1280.19 1919.99C1279.8 1927.33 1284.23 1934.32 1288.52 1937.7C1301.54 1947.99 1329.97 1939.83 1348.85 1926.38C1349.52 1925.9 1350.33 1925.31 1351.2 1924.67C1358.49 1919.32 1362.15 1916.96 1363.21 1918.06C1363.83 1918.69 1363.18 1919.7 1362.12 1921.36C1360.63 1923.68 1358.38 1927.18 1358.98 1930.97C1359.6 1935 1363.37 1938.73 1369.6 1941.47C1377.69 1945.05 1387.45 1944.39 1398.61 1939.5C1409.52 1934.72 1415.76 1927.74 1420.79 1922.13C1425.66 1916.67 1429.52 1912.37 1435.32 1913.28C1437.97 1913.7 1439.28 1914.62 1442.14 1916.64C1444.42 1918.23 1447.54 1920.43 1453.06 1923.65C1456.44 1925.61 1460.34 1927.28 1465 1928.73C1470.91 1930.57 1483.1 1933.5 1498.44 1932.46C1504.88 1932.03 1510.2 1930.99 1514.81 1929.64C1521.74 1927.61 1524.5 1925.66 1531.04 1922.86C1541.15 1918.53 1547.88 1915.65 1555.51 1915.62ZM1690.33 1957.91C1660.67 1957.91 1631.41 1952.44 1606.45 1941.91C1598.65 1938.62 1592.24 1934.03 1586.04 1929.6C1575.79 1922.27 1566.12 1915.35 1552.36 1916.56C1543.92 1917.31 1537.84 1920.35 1531.4 1923.58C1523.32 1927.62 1514.17 1932.21 1498.49 1933.27C1483.02 1934.31 1470.72 1931.35 1464.76 1929.5C1460.05 1928.02 1456.09 1926.34 1452.66 1924.34C1447.11 1921.1 1443.84 1918.81 1441.68 1917.29C1438.84 1915.3 1437.66 1914.47 1435.19 1914.08C1429.83 1913.23 1426.28 1917.19 1421.38 1922.66C1416.31 1928.34 1410 1935.39 1398.93 1940.24C1387.56 1945.22 1377.58 1945.88 1369.27 1942.21C1362.79 1939.35 1358.85 1935.4 1358.18 1931.1C1357.54 1927 1359.89 1923.35 1361.44 1920.92C1362 1920.06 1362.76 1918.87 1362.64 1918.62C1361.88 1917.83 1354.2 1923.47 1351.67 1925.32C1350.8 1925.96 1349.99 1926.55 1349.31 1927.04C1330.2 1940.66 1301.34 1948.85 1288.02 1938.33C1283.58 1934.83 1278.99 1927.57 1279.38 1919.94C1279.61 1915.67 1281.39 1912.56 1282.7 1910.28C1283.7 1908.52 1284.43 1907.24 1283.88 1906.43C1282.72 1904.74 1277.36 1906.61 1270.58 1908.97C1265.09 1910.89 1258.26 1913.27 1250.65 1914.93C1238.83 1917.52 1224.12 1920.74 1210.81 1915.44C1192.56 1908.17 1179.32 1884.9 1180.03 1861.34C1180.97 1829.55 1208.36 1811.84 1215.1 1807.84C1250.81 1786.66 1289.82 1805.89 1292.86 1807.46C1285.36 1798.4 1283.22 1786.35 1287.66 1776.58C1293.68 1763.32 1310.73 1756.65 1321.72 1761.61C1325.22 1763.19 1327.59 1765.71 1329.12 1767.78C1328.22 1763.3 1325.55 1747.06 1335.28 1733.22C1337.49 1730.07 1341.67 1724.29 1349.45 1721.49C1350.04 1721.28 1363.86 1716.54 1374.72 1725.19C1378.99 1728.58 1381.12 1732.7 1382.12 1735.06C1378.64 1712.43 1390.59 1690.53 1410.47 1681.98C1431.13 1673.09 1455.7 1680.64 1467.17 1696.79C1472.3 1704.02 1473.87 1711.66 1474.38 1716.81C1475.03 1714.17 1476.93 1708 1482.58 1702.97C1489.57 1696.74 1499.6 1694.65 1508.47 1697.41C1519.19 1700.75 1523.87 1709.83 1525.1 1712.22C1529.2 1720.16 1528.72 1727.66 1528.36 1730.66C1528.85 1723.82 1530.38 1713.5 1535.58 1702.35C1550.19 1671.03 1584.83 1652.26 1617.92 1650.97C1622.7 1650.78 1661.5 1649.77 1688.17 1677.4C1701.46 1691.17 1708.19 1708.34 1710.46 1715.09C1713.96 1725.47 1715.05 1733.86 1715.93 1740.61C1716.99 1748.75 1717.63 1753.67 1721.72 1755.5C1725.79 1757.33 1729.72 1754.34 1735.66 1749.81C1741.86 1745.09 1750.35 1738.62 1763.36 1734.67C1770.37 1732.54 1786.78 1727.55 1804.64 1734.47C1826.01 1742.74 1835.16 1762.7 1836.14 1764.95C1839.51 1772.72 1839.86 1778.71 1840.16 1783.51C1840.45 1788.52 1840.65 1791.83 1844.07 1794.24C1848.34 1797.25 1853.13 1795.66 1859.76 1793.47C1867.03 1791.06 1876.07 1788.06 1888.2 1790.15C1891.89 1790.79 1901.71 1792.48 1910.95 1799.94C1912.88 1801.5 1929.72 1815.72 1928.02 1836C1926.61 1852.79 1913.44 1863.48 1909.44 1866.35C1896.75 1875.47 1883.56 1875.1 1870.79 1874.75C1857.84 1874.39 1845.6 1874.05 1833.82 1882.82C1827.04 1887.87 1824.45 1893.01 1821.46 1898.97C1820.15 1901.59 1818.79 1904.29 1816.97 1907.22C1802.29 1930.81 1769.78 1948.21 1727.8 1954.95C1715.44 1956.94 1702.85 1957.91 1690.33 1957.91Z" fill="white"/>
<path d="M1384.74 1871.68C1361.91 1879.01 1346.61 1855.31 1303.35 1845.65C1268.39 1837.84 1244.84 1845.83 1239.74 1847.67C1229.53 1851.34 1204.93 1860.21 1201.14 1880.38C1199.42 1889.51 1202.17 1900.07 1208.62 1907.09C1223.14 1922.9 1253.54 1915.87 1257.16 1914.98C1268.27 1912.27 1276.11 1907.28 1278.65 1910.22C1281.29 1913.28 1274.05 1920.03 1274.54 1929.86C1275.06 1940.46 1284.28 1948.02 1288.68 1951.64C1309.95 1969.1 1354.94 1968.69 1379.12 1967.98C1445.45 1966.03 1480.25 1964.62 1522.44 1944.28C1535.75 1937.86 1546.15 1931.33 1553.05 1926.64C1568.77 1935.83 1587.5 1944.67 1609.27 1951.32C1627.03 1956.75 1695.53 1977.68 1764.76 1950.32C1793.86 1938.81 1788.26 1932.54 1816.59 1923.26C1854.09 1910.95 1879.38 1916.87 1908.46 1895.52C1916.4 1889.69 1922.57 1883.34 1926.48 1874.6C1926.99 1873.47 1937.05 1850.04 1924.25 1831.06C1913.57 1815.22 1893.89 1812.76 1890.96 1812.44C1855.65 1808.56 1840.59 1845.5 1801.1 1847.67C1783.48 1848.63 1768.62 1842.25 1758.7 1836.6C1751.1 1844.9 1691.7 1907.76 1609.68 1897.88C1580.14 1894.33 1557.31 1882.49 1542.64 1872.82C1534.88 1877.09 1523.6 1882.54 1509.32 1886.91C1495.76 1891.07 1480.15 1895.85 1464.89 1893.96C1432.61 1889.97 1413.11 1857.5 1408.62 1849.59C1404.65 1856.78 1397.18 1867.68 1384.74 1871.68Z" fill="#CEEAF0"/>
<path d="M2131.5 1859.12C2089.46 1894.56 2007.47 1883.85 1949.49 1858.64C1931.77 1850.93 1918.36 1842.77 1910.62 1837.73C1917.37 1838.26 1922.07 1837.46 1923.55 1834.72C1927.36 1827.66 1910.1 1807.01 1889.22 1799.25C1869.57 1791.95 1851.16 1797.72 1843.85 1800.49C1842.25 1793.59 1837.55 1777.68 1823.22 1763.98C1820.1 1761 1800.51 1742.89 1773.21 1743.96C1759.18 1744.51 1748.72 1749.94 1733.23 1757.99C1722.53 1763.54 1714.29 1769.29 1708.8 1773.49C1700.26 1767.84 1685.92 1759.84 1666.59 1755.77C1657.34 1753.82 1627.04 1747.88 1594.6 1762.71C1587.4 1766 1565 1777.27 1548.75 1801.21C1533.59 1823.56 1534.48 1841.4 1524.01 1843.14C1513.28 1844.92 1509.84 1826.58 1488.45 1818.53C1466.85 1810.4 1445.26 1819.67 1441.29 1821.37C1415.27 1832.54 1406.71 1856.07 1403.95 1854.47C1400.4 1852.41 1407.96 1809.94 1441.58 1792.67C1444.49 1791.18 1471.23 1777.96 1497.42 1790.16C1504.62 1793.51 1509.8 1797.86 1513.17 1801.21C1511.73 1798.31 1509.71 1793.16 1510.23 1786.83C1511.27 1774.26 1521.91 1763.01 1534.8 1760.63C1546.83 1758.42 1556.29 1764.79 1558.43 1766.32C1556.91 1763.1 1554.83 1757.37 1555.93 1750.66C1558.2 1736.78 1572.91 1725.69 1587.37 1726.56C1596.33 1727.1 1602.71 1732.09 1605.5 1734.61C1605.5 1729.51 1606.23 1720.53 1611.42 1711.44C1621.26 1694.22 1642.8 1684.13 1663.3 1687.74C1684.36 1691.45 1695.45 1708.05 1697.49 1711.25C1698.66 1708.83 1701.84 1703.1 1708.46 1699.84C1718.63 1694.81 1728.91 1699.55 1732.07 1701.01C1746.39 1707.59 1750.61 1722.52 1751.28 1725.02C1753.61 1715.29 1759.55 1696.39 1775.6 1678.81C1782.3 1671.46 1804.37 1648.05 1840.73 1645.84C1843.29 1645.68 1883.26 1643.84 1910.55 1671.97C1921.8 1683.57 1927.3 1696.51 1932.72 1709.28C1939.47 1725.18 1942.6 1739.41 1944.16 1749.67C1948.38 1743.78 1957.61 1732.6 1973.28 1725.49C1975.47 1724.5 2010.02 1709.44 2035.9 1727.5C2048 1735.94 2053.52 1748.35 2058.19 1758.84C2063.39 1770.52 2065.39 1781.02 2066.25 1788.12C2073.43 1785.24 2087.15 1780.92 2104.14 1783.08C2111.79 1784.05 2122.8 1785.45 2133 1793.77C2134.02 1794.6 2151.56 1809.34 2149.89 1829.25C2148.61 1844.41 2137.04 1854.45 2131.5 1859.12Z" fill="white"/>
<path d="M1865.56 1837.79C1885.17 1831.24 1904.97 1836.71 1910.68 1838.28C1934.51 1844.86 1949.54 1860.72 1954.99 1855.95C1957.2 1854 1955.52 1850.67 1955.87 1843.54C1955.87 1843.54 1956.65 1827.72 1968.1 1814.21C1980.58 1799.5 2004.04 1794.42 2023.26 1800.46C2044.88 1807.26 2054.51 1826.09 2057.53 1831.97C2076.04 1868.15 2053.87 1905.42 2052.46 1907.7C2049.96 1911.73 2040.59 1926.05 2021.45 1936.73C2012.88 1941.5 1999.51 1947.14 1904.35 1943.67C1876.63 1942.65 1862.77 1942.15 1852.45 1941.14C1835.17 1939.46 1828.76 1937.96 1815.74 1938.62C1795.04 1939.66 1792.73 1944.36 1777.12 1944.93C1771.47 1945.14 1733.56 1946.46 1723.96 1924.73C1717.65 1910.48 1725.69 1891.17 1737.96 1881.3C1747.03 1874.01 1757.15 1872.9 1765.25 1872.12C1790.34 1869.68 1795.48 1881.51 1811.94 1879.3C1836.22 1876.04 1835.45 1847.84 1865.56 1837.79Z" fill="#CEEAF0"/>
<path d="M1772.01 1872.05C1769.99 1872.05 1767.82 1872.15 1765.48 1872.38C1757.91 1873.11 1747.54 1874.11 1738.36 1881.48C1726.67 1890.85 1718.03 1909.95 1724.45 1924.45C1733.07 1943.9 1764.28 1944.9 1777.3 1944.42C1784.63 1944.16 1789.07 1942.96 1793.77 1941.69C1798.99 1940.28 1804.91 1938.68 1815.84 1938.14C1825.42 1937.65 1831.54 1938.35 1840.8 1939.39C1844.16 1939.77 1847.97 1940.21 1852.54 1940.65C1862.83 1941.66 1876.69 1942.16 1904.31 1943.16C1988.7 1946.24 2008.82 1942.01 2017.56 1938.11C2018.93 1937.5 2019.81 1937.02 2021.12 1936.28C2047.17 1921.62 2064.21 1884.37 2053.3 1852.95C2052.67 1851.12 2040.61 1817.92 2013.36 1814.83C2000.91 1813.42 1987.42 1818.53 1978.65 1827.21C1963.61 1842.11 1968.24 1861.83 1957.04 1865.66C1951 1867.72 1946.83 1862.97 1934.77 1856.86C1929.34 1854.11 1888.65 1834.05 1860.77 1847.74C1855.55 1850.3 1847.11 1855.85 1839.49 1863.71C1831.47 1871.96 1828.33 1878.69 1819.51 1880.97C1813.84 1882.44 1808.09 1881.48 1807.07 1881.3C1803.31 1880.64 1803.06 1879.85 1793.55 1876.46C1785.5 1873.6 1782.53 1873.06 1781.17 1872.82C1778.46 1872.34 1775.45 1872.05 1772.01 1872.05ZM1772.84 1945.02C1758.09 1945.02 1731.84 1942.4 1723.98 1924.66C1717.46 1909.93 1726.2 1890.57 1738.04 1881.08C1747.34 1873.62 1757.79 1872.61 1765.43 1871.87C1779.09 1870.54 1786.87 1873.44 1793.73 1875.99C1799.55 1878.15 1804.59 1880.03 1812.03 1879.03C1823.96 1877.43 1829.68 1869.9 1836.3 1861.18C1842.86 1852.54 1850.3 1842.74 1865.52 1837.67C1878.56 1833.33 1893.77 1833.49 1910.72 1838.16C1922.27 1841.34 1931.58 1846.6 1939.06 1850.82C1946.6 1855.08 1952.05 1858.16 1954.72 1855.82C1956.01 1854.7 1955.88 1853.02 1955.67 1850.25C1955.54 1848.51 1955.38 1846.35 1955.52 1843.64C1955.52 1843.48 1956.44 1827.63 1967.79 1814.26C1979.9 1800.01 2003.18 1794.21 2023.14 1800.48C2044.83 1807.29 2054.37 1825.89 2057.5 1832C2076.25 1868.56 2053.42 1906.13 2052.44 1907.71C2048.29 1914.4 2038.73 1927.06 2021.38 1936.73C2011.41 1942.27 1994.96 1946.98 1904.32 1943.67C1876.66 1942.67 1862.8 1942.16 1852.48 1941.16C1847.92 1940.71 1844.1 1940.28 1840.74 1939.9C1831.51 1938.86 1825.41 1938.17 1815.87 1938.64C1804.99 1939.19 1799.1 1940.78 1793.9 1942.18C1789.17 1943.46 1784.71 1944.66 1777.32 1944.93C1776 1944.98 1774.49 1945.02 1772.84 1945.02Z" fill="white"/>
<path d="M698.229 2209.6C680.055 2233.45 643.951 2242.01 610.021 2228.77C606.094 2236.07 599.789 2246.44 590.239 2257.32C535.314 2319.87 434.042 2329.77 358.941 2307.17C340 2301.47 312.1 2290.51 281.929 2267.97C271.119 2273.54 257.021 2279.49 239.949 2283.64C213.605 2290.05 190.776 2289.6 175.148 2287.98C139.147 2301.96 107.03 2309.06 81.4776 2312.82C53.9231 2316.87 -68.4813 2332.1 -168.046 2264.78C-201.823 2241.94 -211.251 2224.29 -214.517 2209.39C-221.386 2178.06 -204.689 2141.95 -188.851 2131.67C-183.405 2128.13 -171.016 2120.49 -157.677 2105.91C-155.571 2103.61 -153.585 2100.84 -151.477 2097.03C-131.961 2061.84 -169.211 2034.05 -159.924 1990.51C-148.982 1939.21 -77.116 1887.23 -22.9391 1897.03C4.29568 1901.95 12.4697 1919.87 37.9132 1916.26C70.2076 1911.68 72.8733 1880.56 102.645 1875.6C137.896 1869.73 182.122 1905.34 188.522 1940.45C191.903 1959 185.118 1979.63 187.849 1980.22C189.915 1980.66 191.183 1968.71 200.369 1960.07C212.345 1948.8 234.072 1946.7 251.192 1954.37C267.827 1961.84 281.312 1979.09 280.784 1996.14C280.163 2016.08 260.562 2029.86 262.259 2031.56C264.021 2033.34 281.054 2014.85 304.891 2002.69C338.813 1985.39 375.379 1995.66 380.536 1997.19C422.079 2009.5 446.566 2046.55 449.301 2050.81C458.169 2064.61 459.082 2072.32 468.195 2075.8C483.544 2081.67 494.359 2064.96 528.238 2057.12C542.49 2053.82 558.563 2050.11 576.082 2056.87C601.041 2066.52 611.679 2090.07 612.562 2092.11C620.591 2110.61 613.87 2120.69 621.984 2126.41C632.824 2134.04 646.814 2117.12 673.647 2121.73C678.897 2122.63 691.144 2124.43 699.973 2133.03C717.444 2150.04 715.327 2187.17 698.229 2209.6Z" fill="#E9F4F6"/>
<path d="M566.851 2154.91C549.62 2145.69 519.862 2129.78 484.313 2124.59C424.839 2115.9 409.205 2145.99 360.439 2134.85C318.645 2125.29 316.084 2099.99 276.427 2084.36C247.136 2072.82 200.935 2067.88 128.86 2101.68C120.046 2092.57 103.17 2077.77 77.9601 2070.29C34.6694 2057.45 -20.7907 2069.86 -43.0607 2103.63C-66.0936 2138.55 -39.3885 2174.75 -67.1061 2200.95C-84.4789 2217.37 -110.498 2217.83 -115.461 2217.92C-151.803 2218.55 -172.442 2193.33 -182.48 2200.95C-190.93 2207.36 -186.616 2233.06 -175.554 2252.55C-134.512 2324.84 6.3864 2323.78 81.2139 2312.58C122.388 2306.41 154.828 2295.49 174.813 2287.75C190.428 2289.37 213.24 2289.83 239.563 2283.42C256.623 2279.27 270.71 2273.31 281.511 2267.75C311.66 2290.28 339.538 2301.24 358.464 2306.94C433.507 2329.52 534.702 2319.63 589.585 2257.1C599.128 2246.23 605.428 2235.86 609.351 2228.57C620.204 2232.68 636.741 2236.81 655.891 2233.52C664.979 2231.95 692.789 2227.16 697.492 2209.41C699.976 2200.01 695.826 2187.64 687.915 2183.98C678.942 2179.83 670.547 2189.39 658.225 2193.31C631.666 2201.76 608.478 2177.16 566.851 2154.91Z" fill="#CEEAF0"/>
<path d="M714.167 2136.55C711.804 2133.32 702.084 2120.73 684.378 2115.24C668.553 2110.33 655.121 2113.81 645.701 2116.25C635.347 2118.93 627.396 2122.97 622.253 2126.02C623.461 2117.14 625.743 2091.19 609.365 2069.7C581.203 2032.74 525.219 2044.82 519.734 2046.09C493.554 2052.15 476.376 2067.42 468.527 2075.45C466.468 2067.56 452.676 2018.04 403.901 1994.03C392.182 1988.26 360.813 1975.29 323.677 1984.81C307.132 1989.05 294.822 1996.38 287.239 2001.73C287.834 1975.74 272.342 1952.86 249.858 1945.27C223.546 1936.39 200.729 1952.87 198.648 1954.42C198.806 1951.67 201.191 1892.26 152.477 1859.83C111.332 1832.45 66.8845 1846.38 62.6228 1847.79C31.27 1858.21 14.4471 1880.82 9.09649 1888.71C2.85101 1886.26 -63.8085 1861.41 -124.308 1901.7C-171.593 1933.18 -193.781 1990.25 -186.068 2039.98C-182.589 2062.41 -173.612 2079.47 -167.059 2089.81C-174.914 2093.34 -186.565 2099.68 -198.02 2110.73C-203.806 2116.3 -217.197 2129.46 -224.352 2151.01C-227.231 2159.68 -236.294 2186.77 -222.776 2214.43C-209.439 2241.72 -181.472 2254.53 -179.853 2252.75C-179.127 2251.95 -183.628 2248.02 -188.614 2240.47C-191.34 2236.34 -204.023 2216.26 -202.682 2189.99C-201.048 2158.01 -179.699 2137.54 -173.796 2132.28C-156.426 2116.81 -137.459 2112.49 -129.065 2111.11C-131.517 2098.83 -137.399 2061.06 -117.096 2021.14C-114.463 2015.97 -88.3837 1966.67 -31.643 1951.36C-7.04217 1944.72 14.4102 1946.87 25.4325 1948.72C60.97 1954.69 73.5213 1973.89 116.128 1984.81C133.414 1989.24 148.036 1990.44 157.187 1990.81C162.599 2000.67 171.539 2014.63 185.669 2028.62C194.781 2037.65 201.328 2044.22 211.347 2047.86C237.188 2057.24 260.404 2043.51 263.766 2041.45C273.837 2034.68 302.914 2017.06 343.468 2018.42C361.794 2019.03 395.62 2023.96 425.315 2050C451.023 2072.54 460.49 2099.38 463.826 2110.91C468.536 2105.99 496.68 2077.51 537.786 2079.91C546.058 2080.4 567.981 2082.01 586.843 2099.13C611.442 2121.46 611.536 2152.66 611.463 2157.93C615.501 2152.87 625.418 2141.94 641.676 2137.57C661.522 2132.23 689.029 2137.5 702.277 2158.7C711.662 2173.73 710.087 2197.45 697.875 2209.06C696.86 2210.03 695.743 2210.91 694.531 2211.73C695.82 2211.25 697.117 2210.57 698.419 2209.82C704.071 2206.55 720.342 2197.12 724.867 2178.23C729.749 2157.86 717.473 2141.07 714.167 2136.55Z" fill="white"/>
<path d="M38.7991 2243.14C72.4805 2242.01 103.773 2218.91 119.534 2184.06C147.719 2206.22 167.705 2207.87 180.544 2205.53C212.79 2199.65 215.255 2165.81 257.349 2151.74C289.133 2141.12 320.704 2147.74 320.704 2147.74C344.374 2152.71 358.766 2163.91 374.797 2157.09C385.013 2152.74 390.756 2143.26 393.901 2136.46C387.289 2135.61 382.47 2133.75 379.475 2132.34C365.737 2125.9 355.899 2113.79 349.573 2103.65C337.36 2092.1 315.132 2074.44 282.705 2064.89C229.288 2049.15 184.267 2066.04 170.204 2072.03C153.818 2079.02 141.454 2087.45 133.272 2093.81C133.421 2088.29 133.263 2080.53 131.821 2071.42C130.935 2065.81 126.471 2037.6 109.4 2017.43C86.4558 1990.32 43.4899 1980.98 8.31189 1992.1C-31.3074 2004.61 -48.7299 2038.8 -54.4539 2050.03C-76.9815 2094.24 -72.336 2149.18 -45.201 2189.18C-35.1976 2203.92 -7.53232 2244.7 38.7991 2243.14Z" fill="#E9F4F6"/>
<path d="M-13.6013 2226.51C-13.456 2226.37 -13.3119 2226.22 -13.1661 2226.07C-38.6225 2202.79 -57.8111 2165.6 -50.2973 2142.39C-49.2167 2139.05 -45.7512 2128.35 -36.4416 2123.9C-26.7216 2119.26 -20.0787 2125.96 -9.35025 2125.99C17.6656 2126.08 23.0088 2083.79 56.2941 2076.92C73.8846 2073.29 88.7904 2081.72 92.5154 2083.82C115.454 2096.79 121.092 2121.52 122.04 2126.04C131.216 2117.43 146.867 2104.84 169.276 2096.05C206.127 2081.58 239.565 2086.03 256.189 2089.43C286.681 2095.66 311.881 2111.42 322.639 2118.86C346.502 2135.37 360.305 2152.88 377.195 2149C384.995 2147.21 390.454 2141.54 393.901 2136.89C387.276 2136.04 382.448 2134.17 379.446 2132.76C365.682 2126.31 355.824 2114.16 349.486 2104C328.102 2070.58 279.211 2058.46 273.812 2057.12C236.387 2047.83 203.721 2059.48 184.451 2066.35C161.404 2074.58 144.085 2085.67 132.76 2094.13C132.91 2088.59 132.751 2080.81 131.306 2071.67C130.419 2066.05 125.925 2037.78 108.842 2017.54C86.6782 1991.27 44.0833 1980.59 7.55503 1992.14C-32.1421 2004.68 -49.5988 2038.97 -55.3339 2050.23C-89.6393 2117.6 -47.8583 2186.84 -46.0629 2189.75C-40.7013 2198.46 -30.375 2212.65 -13.6013 2226.51Z" fill="white"/>
<path d="M423.201 2222.62C423.03 2220.28 422.769 2212.52 428.078 2205.73C434.635 2197.35 444.795 2196.7 448.381 2196.48C459.93 2195.75 468.252 2201.59 470.697 2203.45C470.59 2200.41 470.479 2187.23 480.429 2176.02C489.431 2165.88 500.869 2163.87 505.045 2163.21C507.9 2162.75 529.374 2159.64 541.043 2173.55C547.69 2181.48 548.621 2191.92 548.827 2194.21C549.19 2198.26 548.874 2201.66 548.506 2204.04C549.318 2202.79 556.072 2192.89 568.565 2191.93C580.572 2191.01 588.424 2199.08 590.313 2201.02C601.55 2212.57 598.644 2228.65 598.302 2230.38C606.679 2227.86 615.707 2230.43 621.122 2236.86C627.247 2244.12 627.623 2254.97 621.823 2263.07C620.169 2264.5 617.656 2266.58 614.437 2268.85C612.68 2270.09 594.241 2282.79 571.006 2285.69C536.598 2289.99 526.677 2268.42 490.94 2275.26C481.579 2277.06 484.144 2278.18 473.219 2280.48C466.311 2281.93 425.077 2290.61 397.329 2267.64C391.486 2262.8 380.347 2253.36 381.475 2240.39C382.287 2231.07 389.348 2221.08 400.308 2218.07C412.271 2214.78 421.978 2221.71 423.201 2222.62Z" fill="white"/>
<path d="M491.347 2242.73C472.706 2247.18 460.465 2258.28 454.692 2264.4C453.8 2262.78 444.987 2247.38 428.463 2246.14C417.828 2245.33 404.036 2250.39 402.401 2258.89C400.727 2267.56 412.443 2276.21 414.937 2278.05C432.801 2291.24 448.74 2283.84 492.624 2285.99C518.784 2287.27 525.163 2290.5 546.503 2288.28C577.33 2285.08 584.716 2276.2 587.393 2271.09C587.872 2270.17 590.796 2264.39 589.494 2257.34C587.039 2244.04 571.877 2238.74 570.242 2238.19C568.201 2237.51 553.497 2232.62 544.21 2241.49C539.693 2245.8 538.544 2251.38 538.19 2254.06C535.41 2251 530.679 2246.62 523.711 2243.62C510.821 2238.08 498.836 2240.94 491.347 2242.73Z" fill="#E9F4F6"/>
<path d="M-13.7112 1700.95C-29.1226 1718.34 -87.2414 1661.74 -156.821 1671.28C-165.062 1672.41 -204.395 1677.8 -211.807 1702.29C-215.948 1715.97 -208.811 1733.15 -198.098 1742.25C-190.708 1748.53 -179.425 1748.6 -158.064 1750.32C-149.307 1751.03 -140.961 1751.14 -136.111 1757.18C-132.986 1761.07 -134.734 1763.99 -131.971 1768.3C-126.241 1777.24 -113.171 1781.01 -100.2 1782.42C-75.7318 1785.07 -35.4841 1789.43 -1.99935 1771.19C3.23364 1768.35 13.3817 1762.18 25.6649 1764.09C33.0533 1765.23 32.9932 1768.02 44.2233 1771.76C57.1678 1776.08 68.5229 1776.05 76.4161 1776.1C103.491 1776.3 110.092 1767.73 128.477 1767.6C149.727 1767.45 160.193 1780.62 180.156 1787.75C250.53 1812.88 352.002 1807.52 382.581 1775.41C386.69 1771.1 387.492 1767.72 392.633 1763.8C409.064 1751.28 426.446 1754.23 472.282 1752.44C502.878 1751.25 510.443 1749.06 517.273 1743.56C530.739 1732.73 533.081 1715.72 533.41 1713.06C537.177 1682.52 509.261 1657.65 498.449 1648.01C477.735 1629.56 454.657 1619.81 414.768 1609.8C379.867 1601.04 287.918 1578.9 200.337 1598.37C176.538 1603.67 157.932 1608.01 138.615 1622.44C118.685 1637.32 117.327 1648.51 100.079 1654.5C75.6861 1662.97 67.7395 1643.86 39.6734 1651.05C19.0785 1656.32 -1.90805 1673 -10.8078 1693.7C-13.1744 1699.2 -12.226 1699.27 -13.7112 1700.95Z" fill="#E9F4F6"/>
<path d="M687.421 1726.83C636.879 1765.84 443.741 1741.75 444.809 1730.71C445.423 1724.34 509.422 1733.72 521.336 1705.88C525.241 1696.74 523.223 1684.37 518.828 1675.61C512.939 1663.88 502.834 1658.73 495.386 1654.94C491.801 1653.11 476.334 1645.62 454.229 1646.9C430.646 1648.26 423.151 1658.12 413.408 1652.72C403.912 1647.46 409.337 1636.16 398.917 1622.35C382.463 1600.55 350.078 1600.84 347.791 1600.89C330.106 1601.3 315.581 1609.07 308.759 1612.73C305.025 1614.73 299.412 1619.24 288.877 1625.54C280.637 1630.45 276.519 1632.92 274.224 1633.54C261.163 1637.09 251.084 1626.14 235.106 1618.43C235.106 1618.43 213.163 1607.83 186.178 1609.46C151.463 1611.55 127.548 1634.27 120.636 1640.84C105.878 1654.87 97.8539 1669.72 93.702 1678.95C90.1991 1674.26 82.9032 1665.88 70.8699 1660.79C49.9989 1651.95 30.4572 1659.63 25.3987 1661.55C0.0912741 1671.15 -9.13744 1693.61 -11.8935 1691.86C-14.9045 1689.96 -6.45596 1661.86 15.6543 1639.94C39.0621 1616.74 66.6265 1611.53 73.287 1610.43C98.5344 1606.26 118.758 1612.31 128.05 1615.75C130.445 1609.17 148.302 1562.33 192.617 1548.75C212.401 1542.69 230.354 1545.43 232.973 1545.86C255.168 1549.49 270.046 1560.77 276.37 1566.21C277.694 1564.98 288.57 1555.24 304.028 1557.69C317.872 1559.88 325.069 1570.19 326.244 1571.94C330.949 1563.16 339.172 1550.31 352.829 1538.23C362.138 1530 383.813 1511.38 416.836 1509.21C452.743 1506.84 478.6 1525.46 486.669 1531.89C523.934 1561.57 526.489 1605.9 526.774 1612.93C530.364 1608.76 538.936 1599.93 553.023 1595.38C560.705 1592.9 576.116 1589.78 592.4 1596.89C612.593 1605.72 620.501 1625.46 621.157 1627.17C627.097 1642.67 621.204 1650.72 627.676 1655.7C636.321 1662.37 648.436 1648.96 670.349 1653.71C674.216 1654.55 683.286 1656.63 691.611 1663.95C693.093 1665.25 708.828 1679.52 706.354 1698.83C704.455 1713.67 692.271 1723.09 687.421 1726.83Z" fill="white"/>
<path d="M508.194 1702.78C478.895 1692.84 481.721 1685.27 458.521 1678.54C399.262 1661.37 359.299 1715.37 305.057 1697.24C287.885 1691.5 276.176 1680.83 269.812 1674.11C264.881 1680.38 228.66 1724.92 170.927 1724.34C143.736 1724.07 122.967 1713.9 112.005 1707.36C94.2049 1733.03 62.8618 1744.39 35.3883 1735.96C2.48902 1725.86 -8.04693 1692.53 -8.86614 1689.78C-9.63677 1691.24 -10.3644 1692.71 -11.0122 1694.21C-13.3765 1699.68 -12.429 1699.75 -13.9127 1701.42C-29.3085 1718.73 -87.3685 1662.39 -156.877 1671.88C-165.111 1673.01 -204.403 1678.37 -211.808 1702.75C-215.945 1716.37 -208.816 1733.47 -198.113 1742.53C-190.731 1748.78 -179.459 1748.85 -158.12 1750.57C-149.372 1751.27 -141.034 1751.38 -136.188 1757.39C-133.067 1761.26 -134.813 1764.17 -132.053 1768.46C-126.329 1777.36 -113.272 1781.11 -100.314 1782.51C-75.8706 1785.15 -35.6653 1789.49 -2.21272 1771.34C3.01498 1768.51 13.1528 1762.37 25.4235 1764.27C32.8045 1765.4 32.7444 1768.18 43.9632 1771.91C56.8946 1776.2 68.2382 1776.17 76.1234 1776.23C103.171 1776.43 109.765 1767.9 128.131 1767.76C149.36 1767.61 159.816 1780.73 179.759 1787.82C250.061 1812.83 351.431 1807.5 381.979 1775.54C386.083 1771.24 386.885 1767.88 392.021 1763.98C416.665 1745.27 450.61 1749.67 471.589 1752.67C513.219 1758.64 576.16 1767.22 636.403 1754.52C636.403 1754.52 693.377 1742.9 704.468 1715.82C710.175 1701.9 707.251 1690.16 707.251 1690.16C706.143 1685.71 704.353 1682.3 703.01 1680.12C702.055 1682.29 689.912 1708.57 661.095 1713.55C639.067 1717.35 622.44 1706.09 619.098 1703.72C591.662 1711.09 550.991 1717.28 508.194 1702.78Z" fill="#CEEAF0"/>
<path d="M432.549 1694.95C451.589 1689.47 470.309 1695.55 475.704 1697.31C498.233 1704.63 511.946 1720.52 517.358 1716.16C519.559 1714.38 518.084 1711.1 518.722 1704.26C518.722 1704.26 520.133 1689.07 531.653 1676.56C544.202 1662.94 566.871 1659.03 585.005 1665.64C605.409 1673.09 613.834 1691.6 616.47 1697.38C632.67 1732.95 609.894 1767.87 608.453 1770C605.898 1773.78 596.325 1787.15 577.562 1796.62C569.167 1800.86 556.134 1805.72 465.234 1798.4C438.751 1796.27 425.51 1795.2 415.678 1793.8C399.214 1791.46 393.148 1789.75 380.659 1789.84C360.812 1789.97 358.411 1794.39 343.452 1794.29C338.036 1794.25 301.709 1793.94 293.428 1772.64C287.996 1758.67 296.485 1740.43 308.646 1731.46C317.628 1724.83 327.358 1724.18 335.146 1723.76C359.252 1722.47 363.673 1734.06 379.507 1732.62C402.878 1730.5 403.329 1703.35 432.549 1694.95Z" fill="white"/>
<path d="M41.336 1720.49C39.7528 1730.01 22.4344 1733.46 20.8096 1733.78C8.48555 1736.13 2.07209 1731.49 -15.3722 1727.22C-46.4269 1719.61 -53.4483 1720.36 -58.7861 1722.48C-65.7252 1725.25 -65.4155 1727.94 -73.5664 1730.62C-76.9629 1731.74 -89.4159 1735.63 -102.727 1729.83C-106.625 1728.13 -118.525 1722.94 -121.22 1711.23C-122.987 1703.56 -119.654 1697.1 -118.831 1695.53C-115.144 1688.5 -109.045 1685.49 -104.889 1683.43C-102.341 1682.18 -96.6326 1679.44 -88.7648 1679.6C-83.2899 1679.72 -78.9844 1681.19 -76.4009 1682.3C-75.3518 1678.64 -73.3304 1673.49 -69.1671 1668.64C-56.8499 1654.31 -30.7933 1648.5 -12.8688 1661.24C2.4302 1672.12 3.80053 1690.83 3.96588 1693.72C9.44595 1694.08 20.296 1695.62 30.1012 1703.44C34.1874 1706.69 42.5238 1713.35 41.336 1720.49Z" fill="white"/>
<path d="M32.5219 1704.25C15.576 1711.58 -4.55992 1710.85 -18.2764 1697.81C-23.4157 1699.96 -34.0227 1703.57 -47.4709 1701.97C-57.7917 1700.75 -65.5736 1696.97 -70.087 1694.31C-71.5934 1696.89 -74.7346 1701.5 -80.3075 1705.08C-81.9257 1706.12 -91.8283 1712.25 -104.296 1708.95C-113.343 1706.56 -118.665 1700.54 -120.526 1698.22C-121.356 1700.86 -122.338 1705.33 -121.244 1710.43C-118.665 1722.44 -106.743 1727.87 -102.75 1729.67C-89.4351 1735.68 -76.9804 1731.65 -73.5834 1730.49C-65.4313 1727.72 -65.7411 1724.93 -58.801 1722.07C-53.4624 1719.87 -46.4401 1719.1 -15.381 1726.97C2.06569 1731.39 8.48004 1736.19 20.8058 1733.75C22.4308 1733.43 39.7516 1729.85 41.3351 1720.01C42.371 1713.56 36.2021 1707.34 32.5219 1704.25Z" fill="#E9F4F6"/>
<path d="M620.07 1703.99C618.458 1708.03 601.816 1747.76 558.026 1758.67C520.362 1768.07 490.728 1749.13 485.939 1745.96C463.641 1769.24 412.431 1779.11 386.9 1758.51C383.68 1760.47 359.975 1774.33 332.768 1764.56C314.04 1757.85 304.384 1743.79 301.369 1738.96C298.985 1740.62 294.604 1744.21 292.139 1750.24C287.802 1760.85 292.689 1770.99 293.577 1772.76C303.919 1793.21 337.379 1794.19 341.622 1794.29C342.556 1794.31 343.286 1794.31 343.772 1794.32C358.781 1794.42 361.186 1790.01 381.104 1789.88C393.634 1789.8 399.721 1791.5 416.239 1793.83C426.104 1795.22 439.39 1796.29 465.961 1798.41C557.165 1805.71 570.237 1800.86 578.665 1796.64C596.958 1787.48 607.322 1773.51 609.659 1770.12C612.427 1766.1 626.885 1744.3 622.979 1716.38C622.249 1711.15 621.042 1706.9 620.07 1703.99Z" fill="#CEEAF0"/>
<path d="M1586.57 2104.34C1609.79 2089.64 1633.36 2076.29 1657.8 2064.55C1639.36 2059.74 1624.4 2060.55 1622.76 2060.66C1619.28 2060.9 1573.42 2064.79 1547.38 2099.96C1535.55 2115.94 1531.05 2133.96 1527.02 2144.74C1547.87 2134.58 1567 2116.73 1586.57 2104.34Z" fill="#F2F7F8"/>
<path d="M1965.45 2231.64C1954.9 2223.28 1943.78 2221.33 1939.05 2220.56C1912.2 2216.16 1898.37 2233.22 1887.48 2225.68C1879.32 2220.03 1885.95 2209.88 1877.77 2191.42C1876.87 2189.39 1866.04 2165.91 1841.03 2156.47C1820.3 2148.65 1801.01 2154.69 1793.23 2157.13C1763.8 2166.35 1754.84 2186.29 1744.58 2181.79C1735.48 2177.82 1740.13 2161.4 1730.81 2134.55C1728.89 2129.02 1721.09 2107.85 1704.56 2091.02C1694.49 2080.77 1683 2073.98 1671.87 2069.5C1628.06 2089.28 1586.82 2114.36 1548.18 2143.13C1505.43 2174.97 1455.07 2156.65 1405.64 2161.39C1371.55 2164.66 1342.65 2182.34 1316 2202.72C1303.72 2212.11 1297.41 2221.85 1287.62 2233.36C1285.16 2236.25 1280.97 2242.05 1276.61 2243.2C1266.77 2245.78 1251.27 2238.15 1239.08 2231.9C1241.89 2240.49 1247.17 2244.91 1245.85 2246.47C1244.36 2248.21 1237.28 2243.06 1227.38 2239.52C1215.47 2235.26 1205.36 2235.49 1199.07 2235.52C1194.25 2235.54 1174.5 2236.05 1155.13 2247.78C1154.72 2248.03 1154.1 2248.4 1153.32 2248.89C1149.44 2251.36 1114.85 2274.12 1115 2310.07C1115.09 2330.97 1126.91 2350.79 1142.08 2361.52C1159.51 2373.86 1169.64 2365.92 1204.3 2379.75C1224.9 2387.97 1222.52 2391.25 1241.44 2398.33C1269.27 2408.75 1293.53 2408.81 1307.71 2408.71C1325.51 2408.59 1346.07 2408.45 1370.23 2399.4C1397.03 2389.35 1412.78 2374.14 1433.11 2380.36C1438.45 2382 1438.7 2383.64 1447.17 2386.2C1451.61 2387.55 1466.62 2391.75 1486.34 2390.24C1519.12 2387.75 1526.71 2372.4 1548.95 2370.25C1574.66 2367.76 1587.96 2389.19 1612.46 2399.28C1698.82 2434.85 1821.39 2415.06 1856.87 2356.96C1863.76 2345.69 1864.99 2336.86 1876.39 2328.23C1904.02 2307.29 1935.33 2329.52 1964.35 2308.29C1967.13 2306.26 1983.98 2293.53 1985.51 2273.08C1987.29 2249.47 1967.33 2233.13 1965.45 2231.64Z" fill="#F2F7F8"/>
<path d="M1965.97 2327.57C1940.24 2340.22 1891.43 2320.72 1880.35 2329.91C1877.24 2332.49 1874.81 2335.44 1874.81 2335.44C1870.1 2341.55 1870 2347.23 1856.88 2361.75C1835.25 2385.68 1810.31 2396.83 1809.29 2395.42C1807.81 2393.35 1836.28 2379.6 1860.42 2346.94C1870.78 2332.92 1905.84 2285.49 1889.63 2234.76C1879.83 2204.12 1856.44 2188.25 1852.08 2185.39C1811.16 2158.6 1765.73 2176.58 1762.57 2177.89C1744.26 2185.5 1732.46 2197.24 1726.32 2204.36C1722.57 2194.48 1712.82 2172.88 1690.23 2155.7C1667.62 2138.52 1644.77 2135.34 1632.35 2133.79C1589.69 2128.44 1556.45 2145.72 1546.88 2150.85C1519.64 2165.49 1515.38 2178.79 1501.37 2187.15C1497.88 2189.23 1493.44 2191.15 1488.01 2192.57C1482.54 2194 1477.86 2194.33 1474.75 2194.38C1462.43 2171.77 1437.91 2162.51 1419.98 2169.91C1403.38 2176.77 1398.27 2195.49 1397.59 2198.14C1392.8 2195.1 1384.12 2190.54 1372.63 2189.67C1355.82 2188.39 1343.4 2195.8 1336.08 2200.16C1306.39 2217.86 1295.6 2250.17 1292.54 2260.69C1285.51 2256.55 1275.62 2252.41 1265.86 2255.25C1253.85 2258.74 1251.99 2269.94 1242.93 2270.7C1231.51 2271.66 1226.75 2254.54 1212.46 2245.64C1202.12 2239.21 1184.51 2235.64 1152.62 2248.38C1161.53 2243.12 1177.85 2235.24 1198.4 2235.03C1204.82 2234.97 1215 2234.43 1226.73 2239.03C1229.77 2240.23 1232.2 2241.47 1233.89 2242.41C1232.99 2239.1 1231.99 2233.77 1232.72 2227.3C1233.02 2224.61 1234.1 2215.97 1240.18 2208.12C1249.08 2196.64 1265.96 2190.34 1278.41 2194.84C1287.34 2198.07 1291.87 2206.09 1293.86 2204.74C1295.85 2203.39 1290.16 2196.27 1290.78 2186.45C1291.67 2172.38 1304.84 2163.16 1306.68 2161.92C1310.05 2159.62 1321.2 2152.05 1334.01 2156.12C1342.1 2158.7 1346.74 2164.61 1348.52 2167.17C1348.24 2161.75 1348.19 2146.77 1357.93 2132.07C1359.8 2129.23 1373.27 2109.6 1398.54 2106.89C1417.7 2104.82 1431.75 2113.77 1435.63 2116.33C1447.28 2124 1453.21 2133.93 1455.76 2138.93C1457.1 2136.08 1460.76 2129.35 1468.45 2125.46C1481.55 2118.84 1494.56 2125.77 1496.06 2126.6C1505.87 2132.08 1509.42 2141.32 1510.33 2143.93C1512.27 2132.51 1518.28 2106.72 1539.66 2084.04C1563.5 2058.76 1601.82 2042.18 1639.97 2049.91C1674.44 2056.9 1695.13 2080.48 1704.25 2090.86C1721.21 2110.19 1728.67 2129.16 1730.52 2134.29C1735.35 2147.71 1737.1 2159.6 1737.74 2168.11C1747.1 2160.95 1764.95 2149.45 1789.98 2145.62C1800.56 2144.01 1819.47 2141.36 1841.03 2149.94C1863.82 2159 1876.13 2175.25 1881.49 2182.51C1893.52 2198.83 1897.95 2214.98 1899.76 2224.21C1906.51 2221.44 1921.23 2216.54 1938.9 2220.11C1959.68 2224.3 1984.21 2240.12 1989.8 2267.21C1994.6 2290.44 1984.71 2318.36 1965.97 2327.57Z" fill="white"/>
<path d="M1947.41 2246.66C1925.29 2233.94 1900.51 2242.01 1892.77 2244.52C1868.92 2252.27 1869.98 2263.44 1851.58 2266.08C1830.3 2269.14 1825.5 2254.7 1803.75 2257.48C1783.76 2260.04 1782.48 2273.15 1761.31 2276.18C1746.62 2278.28 1744.45 2272.36 1718.06 2267.67C1707.13 2265.73 1683.07 2261.64 1655.43 2266.83C1644.37 2268.91 1627.75 2273.4 1608.96 2284.28C1602.73 2294.32 1588.78 2317.39 1560.68 2327.88C1539.3 2335.87 1514.51 2338.02 1492.03 2336.54C1476.16 2335.49 1409.07 2326.87 1402.01 2300.96C1380.77 2317.98 1358.7 2335.45 1331.8 2341.4C1318.43 2344.36 1289.85 2350.32 1260.72 2335.42C1246.81 2328.31 1237.51 2318.84 1232 2312.19C1224.28 2315.9 1210.16 2321.2 1192.8 2319.36C1151.32 2314.94 1131.12 2273.98 1129.59 2270.77C1125.08 2277.14 1116.66 2290.92 1115.19 2310.08C1114.8 2315.09 1112.75 2349.59 1140.21 2373.27C1166.66 2396.08 1198.86 2390.2 1202.85 2389.41C1212.57 2398 1252.89 2431.75 1313.69 2431.36C1382.3 2430.92 1425.22 2387.33 1432.81 2379.35C1436.2 2382.85 1459.28 2405.89 1495.19 2403.93C1529.48 2402.05 1549.52 2378.79 1552.8 2374.86C1565.98 2382.97 1586.26 2394.14 1612.5 2403.5C1639.35 2413.08 1738.77 2448.56 1829.29 2399.09C1845.49 2390.23 1870.4 2373.74 1894.48 2343.43C1928.47 2355.15 1961.92 2342.12 1972.67 2319.1C1980.71 2301.89 1975.5 2280.29 1966.98 2266.32C1964.68 2262.54 1958.85 2253.23 1947.41 2246.66Z" fill="#CEEAF0"/>
<path d="M1858.28 2339.9C1857.17 2342.53 1853.86 2349.4 1838.52 2362.96C1826.86 2373.27 1812.73 2385.76 1790.66 2394.37C1779.38 2398.76 1730.94 2417.66 1704.49 2396.31C1691.9 2386.15 1690.68 2372.05 1678.12 2370.53C1666.82 2369.15 1660.99 2379.97 1649.64 2377.29C1640.41 2375.11 1634.38 2365.63 1632.2 2358.69C1626.31 2339.89 1641.76 2317.47 1659.59 2310.06C1662.8 2308.74 1669.12 2305.88 1677.39 2306.94C1687.44 2308.23 1693.91 2314.35 1696.12 2316.65C1696.25 2314.2 1697.22 2300.09 1708.95 2290.77C1725.02 2278.01 1745.55 2286.75 1746.48 2287.17C1753.25 2290.18 1757.66 2294.65 1760.1 2297.57C1762.22 2293.05 1770.34 2277.2 1788.41 2270.04C1810.79 2261.17 1837.77 2269.84 1851.81 2289.11C1862.77 2304.15 1864.86 2324.3 1858.28 2339.9Z" fill="white"/>
<path d="M1856.63 2343.59C1857.07 2344.01 1845.54 2361.07 1828.84 2375.11C1788.03 2409.44 1722.33 2423.5 1700.25 2400.13C1693.68 2393.17 1692.9 2384.96 1682.91 2380.68C1670.89 2375.52 1661.68 2383.01 1649.12 2377.8C1640.86 2374.36 1635.78 2367.36 1632.72 2361.78C1636.44 2364.12 1643.2 2367.61 1652.16 2368.16C1670.69 2369.3 1683.4 2356.99 1685.67 2354.72C1696.05 2363.4 1716.21 2377.67 1745.03 2383.02C1758.8 2385.58 1796.55 2390.37 1828.58 2369.34C1845.04 2358.53 1856.21 2343.19 1856.63 2343.59Z" fill="#CEEAF0"/>
</g>
<defs>
<clipPath id="clip0_24_764">
<rect width="1920" height="2727" fill="white"/>
</clipPath>
</defs>
</svg>
