<svg width="830" height="59" viewBox="0 0 830 59" fill="none" xmlns="http://www.w3.org/2000/svg">
<path d="M28.1367 26.7031C27.3711 30.987 26.9154 35.5078 26.7695 40.2656C26.5872 46.1536 25.6029 50.4284 23.8164 53.0898C21.4284 56.6445 17.1992 58.4219 11.1289 58.4219C4.03776 58.4219 0.492188 57.0182 0.492188 54.2109C0.492188 53.2083 0.811198 52.3971 1.44922 51.7773C2.08724 51.1576 2.92578 50.8477 3.96484 50.8477C4.78516 50.8477 5.96094 51.0026 7.49219 51.3125C9.02344 51.6224 10.3815 51.7773 11.5664 51.7773C14.2826 51.7773 16.2878 50.9479 17.582 49.2891C18.8216 47.6667 19.5508 45.0872 19.7695 41.5508C18.8398 42.4987 17.7917 43.2096 16.625 43.6836C15.4583 44.1576 14.1823 44.3945 12.7969 44.3945C9.16927 44.3945 6.21615 43.2188 3.9375 40.8672C1.67708 38.4974 0.546875 35.4714 0.546875 31.7891C0.546875 26.8307 2.0599 22.8203 5.08594 19.7578C8.22135 16.5859 12.4596 15 17.8008 15C19.5143 15 20.9909 15.2096 22.2305 15.6289C23.4701 16.0482 24.4727 16.6862 25.2383 17.543C27.5534 17.8164 28.7109 19.1836 28.7109 21.6445C28.7109 22.8659 28.5195 24.5521 28.1367 26.7031ZM17.5273 21.2344C14.4466 21.2344 12.0495 22.2461 10.3359 24.2695C8.80469 26.1107 8.03906 28.4987 8.03906 31.4336C8.03906 33.6029 8.44922 35.2344 9.26953 36.3281C10.0898 37.4219 11.3203 37.9688 12.9609 37.9688C14.4557 37.9688 15.9596 37.1029 17.4727 35.3711C18.8945 33.7305 19.7057 32.1081 19.9062 30.5039C20.2526 28.7539 20.6536 26.0286 21.1094 22.3281C20.4896 21.9635 19.8789 21.6901 19.2773 21.5078C18.6758 21.3255 18.0924 21.2344 17.5273 21.2344ZM60.5391 43.3281C59.5547 43.3281 58.6523 42.9453 57.832 42.1797C52.3086 37.0026 46.2383 33.4115 39.6211 31.4062C39.8216 36.7109 39.9219 39.6549 39.9219 40.2383C39.9219 41.2773 39.5573 42.1615 38.8281 42.8906C38.099 43.6016 37.1875 43.957 36.0938 43.957C35 43.957 34.0885 43.6016 33.3594 42.8906C32.6302 42.1615 32.2656 41.2773 32.2656 40.2383C32.2656 38.8711 32.2839 36.8294 32.3203 34.1133C32.3568 31.3789 32.375 29.3281 32.375 27.9609L32.4297 5.89453C32.4297 4.70964 32.7852 3.63411 33.4961 2.66797C34.4258 1.42839 35.7109 0.872396 37.3516 1C41.7812 1.32812 44.0508 1.5013 44.1602 1.51953C46.7122 1.82943 48.8815 2.4401 50.668 3.35156C58.4518 7.27083 62.3438 12.1289 62.3438 17.9258C62.3438 20.3138 61.5234 22.4284 59.8828 24.2695C58.2604 26.0924 55.8177 27.6328 52.5547 28.8906C57.3854 31.5885 61.0221 34.3411 63.4648 37.1484C64.1029 37.8776 64.4219 38.6888 64.4219 39.582C64.4219 40.6029 64.0391 41.487 63.2734 42.2344C62.5078 42.9635 61.5964 43.3281 60.5391 43.3281ZM43.0117 8.92969C42.8659 8.91146 41.7995 8.83854 39.8125 8.71094V23.2305C40.2682 23.2487 40.6693 23.2578 41.0156 23.2578C45.4818 23.2578 48.7904 22.7018 50.9414 21.5898C51.8711 21.1159 52.7188 20.487 53.4844 19.7031C54.2682 18.9193 54.6602 18.3268 54.6602 17.9258C54.6602 15.8841 53.3659 13.9154 50.7773 12.0195C48.3164 10.2331 45.7279 9.20312 43.0117 8.92969ZM99.8047 43.8203C98.3646 43.7656 96.9154 42.0703 95.457 38.7344C94.4909 36.5833 93.6615 34.1042 92.9688 31.2969C91.6198 31.4974 89.4141 31.6979 86.3516 31.8984C83.4714 32.099 81.2656 32.3359 79.7344 32.6094C78.8958 34.6146 77.4375 37.6315 75.3594 41.6602C74.5573 42.9727 73.4453 43.6289 72.0234 43.6289C71.0208 43.6289 70.1185 43.2917 69.3164 42.6172C68.5143 41.9245 68.1133 41.0495 68.1133 39.9922C68.1133 39.0625 69.444 35.9089 72.1055 30.5312C71.8503 29.9661 71.7409 29.4375 71.7773 28.9453C71.8503 28.0703 72.7344 27.3867 74.4297 26.8945C77.0182 22.4102 79.8984 17.7617 83.0703 12.9492C87.6276 6.04036 90.4349 2.58594 91.4922 2.58594C93.4974 2.58594 94.8372 3.79818 95.5117 6.22266C95.8763 8.17318 96.4505 11.099 97.2344 15C98.3464 20.25 99.7044 26.2565 101.309 33.0195C101.436 33.5299 101.901 34.7331 102.703 36.6289C103.359 38.1966 103.688 39.3724 103.688 40.1562C103.688 41.2135 103.286 42.0977 102.484 42.8086C101.701 43.5195 100.807 43.8568 99.8047 43.8203ZM89.6055 15.7656C88.1836 18.2083 86.224 21.5352 83.7266 25.7461C84.5469 25.5638 85.8229 25.418 87.5547 25.3086C89.5964 25.181 90.8815 25.0807 91.4102 25.0078C90.9727 22.638 90.3711 19.5573 89.6055 15.7656ZM117.879 27.7422C117.569 27.7422 116.803 27.6784 115.582 27.5508C115.473 30.1029 115.418 34.2956 115.418 40.1289C115.418 41.0951 115.081 41.9245 114.406 42.6172C113.732 43.3099 112.875 43.6562 111.836 43.6562C110.797 43.6562 109.931 43.3099 109.238 42.6172C108.564 41.9245 108.227 41.0951 108.227 40.1289V32.5C108.227 29.6745 108.409 25.4909 108.773 19.9492C109.12 14.3164 109.302 10.1146 109.32 7.34375C109.339 2.60417 110.669 0.334635 113.312 0.535156C113.932 0.371094 114.789 0.252604 115.883 0.179688C116.977 0.0885417 118.307 0.0429688 119.875 0.0429688C123.448 0.0429688 126.802 1.20052 129.938 3.51562C133.419 6.10417 135.16 9.25781 135.16 12.9766C135.16 17.6432 133.31 21.3529 129.609 24.1055C126.328 26.5299 122.418 27.7422 117.879 27.7422ZM119.246 7.09766C118.663 7.09766 118.143 7.10677 117.688 7.125C117.25 7.125 116.876 7.14323 116.566 7.17969C116.566 8.03646 116.557 9.32161 116.539 11.0352C116.503 13.0586 116.329 16.2122 116.02 20.4961C116.949 20.6419 117.569 20.7148 117.879 20.7148C120.723 20.7148 123.083 20.0404 124.961 18.6914C126.966 17.2513 127.969 15.3464 127.969 12.9766C127.969 11.4271 127.03 10.0508 125.152 8.84766C123.348 7.68099 121.379 7.09766 119.246 7.09766ZM177.488 5.07422C177.124 6.40495 176.941 7.5625 176.941 8.54688C176.941 9.05729 176.887 9.85026 176.777 10.9258C176.686 11.9831 176.641 12.7669 176.641 13.2773C176.641 15.0091 176.549 17.5794 176.367 20.9883C176.185 24.3971 176.094 26.9674 176.094 28.6992C176.094 30.0299 176.194 32.0169 176.395 34.6602C176.595 37.3034 176.695 39.2904 176.695 40.6211C176.695 41.6237 176.34 42.4714 175.629 43.1641C174.918 43.8568 174.034 44.2031 172.977 44.2031C171.901 44.2031 170.971 43.8568 170.188 43.1641C169.404 42.4896 169.012 41.6602 169.012 40.6758C169.012 39.3451 168.948 37.349 168.82 34.6875C168.711 32.026 168.656 30.0299 168.656 28.6992C168.656 27.6602 168.674 26.7396 168.711 25.9375C165.849 26.0651 162.312 26.5117 158.102 27.2773C154.602 27.9154 151.102 28.5625 147.602 29.2188C147.565 30.4583 147.438 32.5273 147.219 35.4258C147.036 37.9779 146.945 40.0651 146.945 41.6875C146.945 42.6901 146.59 43.5378 145.879 44.2305C145.168 44.9232 144.284 45.2695 143.227 45.2695C142.169 45.2695 141.285 44.9232 140.574 44.2305C139.863 43.5378 139.508 42.6901 139.508 41.6875C139.508 39.8464 139.663 37.0938 139.973 33.4297C140.301 29.7656 140.465 27.013 140.465 25.1719C140.465 22.8385 140.52 19.3294 140.629 14.6445C140.738 9.94141 140.793 6.42318 140.793 4.08984C140.793 3.08724 141.148 2.23958 141.859 1.54688C142.57 0.854167 143.454 0.507812 144.512 0.507812C145.569 0.507812 146.453 0.854167 147.164 1.54688C147.875 2.23958 148.23 3.08724 148.23 4.08984C148.23 5.47526 148.176 7.5625 148.066 10.3516C147.975 13.1224 147.93 15.2005 147.93 16.5859C147.93 17.0417 147.866 17.9167 147.738 19.2109C147.629 20.4141 147.583 21.3346 147.602 21.9727L158.102 20.0039C162.203 19.2747 165.74 18.8555 168.711 18.7461C168.784 17.5247 168.902 14.2435 169.066 8.90234C169.103 7.4987 169.531 5.88542 170.352 4.0625C171.372 1.82031 172.53 0.699219 173.824 0.699219C174.79 0.699219 175.647 1.01823 176.395 1.65625C177.197 2.34896 177.598 3.21484 177.598 4.25391C177.598 4.52734 177.561 4.80078 177.488 5.07422ZM205.652 10.6797C204.704 10.6797 202.107 10.4245 197.859 9.91406C197.604 13.2682 197.477 17.7253 197.477 23.2852L197.449 35.5625C199.874 35.5078 202.344 35.4805 204.859 35.4805C205.953 35.4805 206.855 35.8451 207.566 36.5742C208.296 37.3034 208.66 38.1784 208.66 39.1992C208.66 40.2201 208.296 41.0951 207.566 41.8242C206.855 42.5352 205.953 42.8906 204.859 42.8906C203.839 42.8906 202.307 42.918 200.266 42.9727C198.224 43.0091 196.693 43.0273 195.672 43.0273C194.469 43.0273 192.664 43.1823 190.258 43.4922C187.852 43.8203 186.047 43.9844 184.844 43.9844C183.75 43.9844 182.839 43.6289 182.109 42.918C181.398 42.1888 181.043 41.3138 181.043 40.293C181.043 39.2721 181.398 38.3971 182.109 37.668C182.839 36.9388 183.75 36.5742 184.844 36.5742C186.083 36.5742 187.715 36.4375 189.738 36.1641C189.702 34.013 189.684 29.8932 189.684 23.8047C189.684 18.8464 189.866 14.1159 190.23 9.61328L184.297 9.77734C183.203 9.77734 182.283 9.42188 181.535 8.71094C180.806 8 180.441 7.11589 180.441 6.05859C180.441 4.98307 180.806 4.10807 181.535 3.43359C182.21 2.8138 183.039 2.45833 184.023 2.36719C185.628 2.22135 188.417 2.14844 192.391 2.14844C195.964 2.14844 200.566 2.53125 206.199 3.29688C208.441 3.60677 209.562 4.86458 209.562 7.07031C209.562 8.23698 209.107 9.15755 208.195 9.83203C207.448 10.3971 206.6 10.6797 205.652 10.6797ZM240.297 13.8789C238.656 13.8789 237.444 13.013 236.66 11.2812C236.296 10.4609 235.931 9.96875 235.566 9.80469C235.293 9.67708 234.573 9.61328 233.406 9.61328C231.109 9.61328 228.457 11.3997 225.449 14.9727C221.238 19.9674 219.133 24.6432 219.133 29C219.133 30.987 219.798 32.6914 221.129 34.1133C222.46 35.5352 224.055 36.2461 225.914 36.2461C227.719 36.2461 229.551 35.7721 231.41 34.8242C232.066 34.4779 233.452 33.5846 235.566 32.1445C236.988 31.1966 238.064 30.7227 238.793 30.7227C239.887 30.7227 240.816 31.1237 241.582 31.9258C242.293 32.6732 242.648 33.5299 242.648 34.4961C242.648 35.5716 242.174 36.5104 241.227 37.3125C236.214 41.5417 231.109 43.6562 225.914 43.6562C221.812 43.6562 218.349 42.1615 215.523 39.1719C212.826 36.2917 211.477 32.901 211.477 29C211.477 22.8932 214.147 16.6589 219.488 10.2969C224.027 4.90104 228.667 2.20312 233.406 2.20312C234.208 2.20312 234.928 2.23047 235.566 2.28516C236.223 2.33984 236.797 2.42188 237.289 2.53125C238.091 1.7474 239.057 1.35547 240.188 1.35547C242.047 1.35547 243.195 2.42188 243.633 4.55469C243.943 6.08594 244.098 7.8724 244.098 9.91406C244.098 10.8255 243.833 11.6549 243.305 12.4023C242.612 13.3867 241.609 13.8789 240.297 13.8789ZM260.395 44.668C255.764 44.668 252.118 43.638 249.457 41.5781C247.215 39.8646 246.094 37.8867 246.094 35.6445C246.094 34.4961 246.44 33.5482 247.133 32.8008C247.826 32.0352 248.783 31.6523 250.004 31.6523C251.645 31.6523 252.848 32.4909 253.613 34.168C254.652 36.4102 257.004 37.5312 260.668 37.5312C263.803 37.5312 266.839 36.8477 269.773 35.4805C272.818 34.0768 274.34 32.5365 274.34 30.8594C274.34 28.5625 273.392 27.0495 271.496 26.3203C270.147 25.7917 267.44 25.4818 263.375 25.3906C260.221 25.3177 257.396 24.7253 254.898 23.6133C251.526 22.1003 249.867 19.931 249.922 17.1055C249.977 13.5508 251.872 10.2969 255.609 7.34375C259.346 4.3724 263.466 2.88672 267.969 2.88672C269.755 2.88672 271.961 3.29688 274.586 4.11719C277.849 5.13802 279.48 6.3138 279.48 7.64453C279.48 8.59245 279.152 9.43099 278.496 10.1602C277.767 10.9805 276.828 11.3906 275.68 11.3906C274.823 11.3906 273.538 11.2083 271.824 10.8438C270.129 10.4792 268.844 10.2969 267.969 10.2969C265.617 10.3151 263.384 10.8802 261.27 11.9922C259.082 13.1224 257.988 14.3529 257.988 15.6836C257.988 16.3763 258.316 16.9505 258.973 17.4062C259.647 17.8438 260.65 18.1536 261.98 18.3359C264.314 18.4635 266.638 18.5911 268.953 18.7188C273 19.0286 276.199 20.168 278.551 22.1367C281.139 24.3242 282.434 27.3503 282.434 31.2148C282.434 35.918 279.754 39.4818 274.395 41.9062C270.311 43.7474 265.645 44.668 260.395 44.668ZM334.277 44.8047C333.439 44.8047 332.108 43.8932 330.285 42.0703C328.608 42.8724 327.132 43.474 325.855 43.875C324.579 44.2943 323.495 44.5039 322.602 44.5039C318.208 44.5039 314.909 43.3281 312.703 40.9766C310.516 38.625 309.422 35.1068 309.422 30.4219C309.422 26.0286 311.044 22.2734 314.289 19.1562C317.534 16.0208 321.417 14.4531 325.938 14.4531C327.669 14.4531 329.674 14.9453 331.953 15.9297C334.706 17.1146 336.082 18.4909 336.082 20.0586C336.082 20.7148 335.872 21.2891 335.453 21.7812C335.271 22.5104 335.125 23.431 335.016 24.543C334.924 25.6367 334.879 26.9219 334.879 28.3984C334.879 31.8802 335.125 34.3867 335.617 35.918C335.672 36.082 336.091 37.0299 336.875 38.7617C337.586 40.3294 337.941 41.2227 337.941 41.4414C337.941 42.4076 337.568 43.2096 336.82 43.8477C336.091 44.4857 335.243 44.8047 334.277 44.8047ZM327.496 26.0469C327.496 25.4635 327.533 24.7982 327.605 24.0508C327.697 23.2852 327.824 22.4375 327.988 21.5078C327.624 21.3255 327.296 21.1979 327.004 21.125C326.73 21.0339 326.493 20.9883 326.293 20.9883C323.814 20.9883 321.645 21.9635 319.785 23.9141C317.926 25.8464 316.996 28.0885 316.996 30.6406C316.996 33.0833 317.434 34.9245 318.309 36.1641C319.184 37.3854 320.496 37.9961 322.246 37.9961C323.376 37.9961 324.443 37.8138 325.445 37.4492C326.466 37.0664 327.423 36.5104 328.316 35.7812C327.77 31.4427 327.496 28.1979 327.496 26.0469ZM382.238 36.2734C382.238 37.1849 382.083 38.625 381.773 40.5938C381.409 42.9453 380.078 44.1211 377.781 44.1211C376.505 44.1211 375.065 43.401 373.461 41.9609C366.443 35.6354 358.522 26.7669 349.699 15.3555C349.59 20.0951 349.535 23.0026 349.535 24.0781C349.535 25.5182 349.562 27.6875 349.617 30.5859C349.69 33.4844 349.727 35.6536 349.727 37.0938C349.727 42.4714 348.414 45.1602 345.789 45.1602C344.458 45.1602 343.392 44.75 342.59 43.9297C341.879 43.2005 341.523 42.3164 341.523 41.2773C341.523 40.5482 341.578 39.4453 341.688 37.9688C341.815 36.4922 341.879 35.3893 341.879 34.6602C341.879 33.5846 341.915 31.9714 341.988 29.8203C342.061 27.6693 342.098 26.056 342.098 24.9805C342.098 23.832 342.07 22.1003 342.016 19.7852C341.961 17.4701 341.934 15.7383 341.934 14.5898C341.934 13.4961 341.824 11.8646 341.605 9.69531C341.387 7.52604 341.277 5.89453 341.277 4.80078C341.277 3.70703 341.742 2.73177 342.672 1.875C343.62 1.01823 344.695 0.589844 345.898 0.589844C347.247 0.589844 348.742 1.75651 350.383 4.08984C358.659 15.9023 366.826 25.5365 374.883 32.9922C374.901 32.4089 374.91 31.0234 374.91 28.8359C374.91 19.849 374.819 13.7878 374.637 10.6523C374.6 10.1237 374.482 9.13932 374.281 7.69922C374.099 6.42318 374.008 5.42057 374.008 4.69141C374.008 2.17578 375.339 0.917969 378 0.917969C380.971 0.917969 382.457 5.5026 382.457 14.6719C382.457 14.8724 382.439 16.3125 382.402 18.9922C382.293 28.2526 382.238 34.013 382.238 36.2734ZM392.273 43.2734C391.198 43.2552 390.296 42.8906 389.566 42.1797C388.837 41.4505 388.473 40.5755 388.473 39.5547C388.473 37.7318 388.555 34.9974 388.719 31.3516C388.901 27.7057 388.992 24.9714 388.992 23.1484C388.992 21.125 388.947 18.0898 388.855 14.043C388.783 9.99609 388.746 6.96094 388.746 4.9375C388.746 3.9349 389.229 2.94141 390.195 1.95703C391.161 0.954427 392.191 0.453125 393.285 0.453125C393.887 0.453125 395.4 1.01823 397.824 2.14844C400.65 3.4974 402.327 4.25391 402.855 4.41797C408.197 6.14974 412.754 8.82943 416.527 12.457C421.03 16.7773 423.281 21.5534 423.281 26.7852C423.281 29.9388 422.507 32.9375 420.957 35.7812C419.408 38.6797 417.284 41.0039 414.586 42.7539C411.56 44.7227 407.303 45.707 401.816 45.707C400.486 45.707 398.954 45.5156 397.223 45.1328C395.126 44.6589 393.477 44.0391 392.273 43.2734ZM407.641 15.1641C405.872 14.0521 402.081 12.3021 396.266 9.91406V36.9844C396.977 37.4401 397.788 37.7865 398.699 38.0234C399.629 38.2422 400.659 38.3516 401.789 38.3516C405.727 38.3516 408.552 37.8047 410.266 36.7109C411.888 35.6719 413.173 34.2591 414.121 32.4727C415.087 30.6862 415.57 28.8268 415.57 26.8945C415.57 22.3737 412.927 18.4635 407.641 15.1641ZM464.625 44.7227C460.615 44.7227 457.251 43.5833 454.535 41.3047C451.673 38.8984 450.242 35.7266 450.242 31.7891C450.242 28.1615 451.527 24.4154 454.098 20.5508C457.014 16.1393 460.405 13.9336 464.27 13.9336C466.165 13.9336 468.38 14.444 470.914 15.4648C473.995 16.7227 475.535 18.1719 475.535 19.8125C475.535 20.7057 475.225 21.4987 474.605 22.1914C473.949 22.9388 473.102 23.3125 472.062 23.3125C471.279 23.3125 470.331 22.8932 469.219 22.0547C468.125 21.1979 466.475 20.7695 464.27 20.7695C462.866 20.7695 461.344 22.1458 459.703 24.8984C458.135 27.5599 457.352 29.8568 457.352 31.7891C457.352 33.7031 458.044 35.207 459.43 36.3008C460.742 37.3398 462.474 37.8594 464.625 37.8594C465.846 37.8594 467.341 37.3945 469.109 36.4648C470.878 35.5352 471.999 35.0703 472.473 35.0703C473.457 35.0703 474.296 35.4258 474.988 36.1367C475.699 36.8477 476.055 37.6589 476.055 38.5703C476.055 39.9922 474.505 41.4141 471.406 42.8359C468.635 44.0938 466.375 44.7227 464.625 44.7227ZM499.516 44.668C494.12 44.668 489.526 43.1185 485.734 40.0195C481.688 36.7018 479.664 32.4089 479.664 27.1406C479.664 20.9427 481.605 15.2917 485.488 10.1875C489.845 4.44531 495.332 1.57422 501.949 1.57422C508.311 1.57422 513.078 3.03255 516.25 5.94922C519.422 8.86589 521.008 13.25 521.008 19.1016C521.008 25.2995 519.221 30.9141 515.648 35.9453C511.529 41.7604 506.151 44.668 499.516 44.668ZM501.949 8.98438C497.884 8.98438 494.402 10.9531 491.504 14.8906C488.788 18.5729 487.43 22.6562 487.43 27.1406C487.43 30.1667 488.605 32.6276 490.957 34.5234C493.217 36.3464 496.07 37.2578 499.516 37.2578C503.526 37.2578 506.871 35.2891 509.551 31.3516C512.012 27.7604 513.242 23.6771 513.242 19.1016C513.242 15.2734 512.385 12.612 510.672 11.1172C509.031 9.69531 506.124 8.98438 501.949 8.98438ZM532.629 18.8008C535.382 15.6107 537.988 14.0156 540.449 14.0156C543.257 14.0156 545.316 15.082 546.629 17.2148C547.741 16.2305 548.971 15.4922 550.32 15C551.669 14.5078 553.128 14.2617 554.695 14.2617C558.268 14.2617 560.693 16.0391 561.969 19.5938C562.224 20.3229 562.616 22.793 563.145 27.0039C563.655 29.957 564.311 34.8789 565.113 41.7695C565.186 42.8086 564.831 43.6654 564.047 44.3398C563.263 45.0143 562.342 45.3516 561.285 45.3516C559.189 45.3516 557.958 44.3125 557.594 42.2344C557.266 40.3568 556.928 37.7044 556.582 34.2773C556.217 30.5221 555.917 27.8607 555.68 26.293C555.188 23.0299 554.559 21.3984 553.793 21.3984C553.374 21.3984 552.417 21.8177 550.922 22.6562C549.427 23.4948 548.333 24.2148 547.641 24.8164C547.641 26.8945 547.887 29.8841 548.379 33.7852C548.889 37.7773 549.145 40.7669 549.145 42.7539C549.145 43.793 548.789 44.6589 548.078 45.3516C547.367 46.0443 546.465 46.3906 545.371 46.3906C544.277 46.3906 543.375 46.0443 542.664 45.3516C541.953 44.6589 541.598 43.793 541.598 42.7539C541.598 40.6758 541.37 37.6224 540.914 33.5938C540.477 29.5469 540.258 26.4844 540.258 24.4062C540.258 23.2396 540.158 22.3099 539.957 21.6172C537.842 22.8385 535.719 24.8711 533.586 27.7148C533.495 27.8424 533.34 28.0339 533.121 28.2891C533.048 31.9714 533.012 34.8607 533.012 36.957C533.012 37.4674 532.993 38.1602 532.957 39.0352C532.921 39.8919 532.902 40.5299 532.902 40.9492C532.902 41.9336 532.501 42.7083 531.699 43.2734C530.97 43.8021 530.068 44.0664 528.992 44.0664C527.443 44.0664 526.395 43.3919 525.848 42.043C525.465 41.1315 525.273 39.6823 525.273 37.6953V27.5234C525.273 26.612 525.237 25.2812 525.164 23.5312C525.091 21.763 525.055 20.4232 525.055 19.5117C525.055 17.8893 525.346 16.4219 525.93 15.1094C526.641 13.4688 527.643 12.6484 528.938 12.6484C529.958 12.6484 530.87 13.0495 531.672 13.8516C532.474 14.6354 532.875 15.5013 532.875 16.4492C532.875 16.0664 532.793 16.8503 532.629 18.8008ZM581.711 44.6133C580.143 44.6133 578.493 44.431 576.762 44.0664L576.734 55.2227C576.734 56.2799 576.379 57.1549 575.668 57.8477C574.957 58.5404 574.055 58.8867 572.961 58.8867C571.867 58.8867 570.965 58.5404 570.254 57.8477C569.543 57.1549 569.188 56.2799 569.188 55.2227C569.188 54.3659 569.206 50.9661 569.242 45.0234C569.279 40.612 569.279 37.0117 569.242 34.2227C569.188 30.2852 569.06 26.8945 568.859 24.0508C568.586 20.1315 568.449 18.3359 568.449 18.6641C568.449 17.151 568.786 15.8568 569.461 14.7812C570.245 13.5599 571.302 12.9492 572.633 12.9492C573.654 12.9492 574.51 13.2956 575.203 13.9883C575.896 14.681 576.242 15.5104 576.242 16.4766L576.215 16.75C577.436 16.0573 578.658 15.5469 579.879 15.2188C581.118 14.8724 582.358 14.6992 583.598 14.6992C587.79 14.6992 590.853 16.4766 592.785 20.0312C594.225 22.7109 594.945 26.1836 594.945 30.4492C594.945 34.4414 593.806 37.75 591.527 40.375C589.085 43.2005 585.812 44.6133 581.711 44.6133ZM583.598 22C582.449 22 581.283 22.2734 580.098 22.8203C578.913 23.349 577.719 24.151 576.516 25.2266C576.734 28.9818 576.844 32.7461 576.844 36.5195C578.466 37.0482 580.089 37.3125 581.711 37.3125C583.589 37.3125 585.029 36.6471 586.031 35.3164C586.943 34.1133 587.398 32.4909 587.398 30.4492C587.398 27.9883 587.289 26.2839 587.07 25.3359C586.542 23.112 585.384 22 583.598 22ZM627.812 38.2695C626.482 40.0742 624.878 41.5781 623 42.7812C620.703 44.2396 618.342 44.9688 615.918 44.9688C611.27 44.9688 607.815 44.0755 605.555 42.2891C600.779 38.5156 598.391 31.9622 598.391 22.6289C598.391 21.7357 598.436 20.4049 598.527 18.6367C598.618 16.8685 598.664 15.5378 598.664 14.6445C598.664 13.9336 598.682 12.8763 598.719 11.4727C598.755 10.0508 598.773 8.98438 598.773 8.27344C598.773 6.8151 599.038 5.4388 599.566 4.14453C600.277 2.43099 601.271 1.57422 602.547 1.57422C603.549 1.57422 604.434 1.90234 605.199 2.55859C606.038 3.2513 606.457 4.14453 606.457 5.23828C606.457 6.27734 606.439 7.85417 606.402 9.96875C606.384 12.0651 606.375 13.6419 606.375 14.6992C606.375 15.5742 606.329 16.8958 606.238 18.6641C606.147 20.4323 606.102 21.7539 606.102 22.6289C606.102 25.4544 606.43 28.0794 607.086 30.5039C607.852 33.4023 608.973 35.4258 610.449 36.5742C611.215 37.1758 613.038 37.4948 615.918 37.5312C620.73 37.6042 623.975 33.5026 625.652 25.2266C626.527 20.9427 626.965 14.9271 626.965 7.17969C626.965 6.15885 627.266 5.17448 627.867 4.22656C628.688 2.96875 629.854 2.33984 631.367 2.33984C632.607 2.33984 633.536 2.79557 634.156 3.70703C634.63 4.38151 634.867 5.12891 634.867 5.94922C634.867 13.1497 634.53 18.7643 633.855 22.793C632.835 29.0091 630.82 34.168 627.812 38.2695ZM672.984 10.2148C671.562 10.2148 669.348 10.1146 666.34 9.91406C663.441 9.71354 661.227 9.6224 659.695 9.64062C659.768 11.7188 660.014 15.4193 660.434 20.7422C660.816 25.4453 661.008 29.1641 661.008 31.8984C661.008 32.5182 661.072 33.4388 661.199 34.6602C661.327 35.8815 661.391 36.8021 661.391 37.4219C661.391 38.7891 661.099 40.0195 660.516 41.1133C659.768 42.5169 658.702 43.2188 657.316 43.2188C656.314 43.2188 655.43 42.8997 654.664 42.2617C653.807 41.5508 653.379 40.6576 653.379 39.582C653.379 39.3268 653.424 38.944 653.516 38.4336C653.607 37.9049 653.652 37.5039 653.652 37.2305C653.652 36.3919 653.589 35.125 653.461 33.4297C653.352 31.7344 653.297 30.4583 653.297 29.6016C653.297 27.1589 653.105 23.8503 652.723 19.6758C652.285 14.8815 652.03 11.5729 651.957 9.75H650.535C646.47 9.75 643.243 9.45833 640.855 8.875C638.832 8.38281 637.82 7.1888 637.82 5.29297C637.82 4.36328 638.148 3.52474 638.805 2.77734C639.57 1.88411 640.573 1.48307 641.812 1.57422C642.451 1.61068 643.9 1.76562 646.16 2.03906C647.965 2.23958 649.423 2.33984 650.535 2.33984C651.647 2.33984 653.306 2.32161 655.512 2.28516C657.736 2.2487 659.404 2.23047 660.516 2.23047C661.901 2.23047 663.979 2.33073 666.75 2.53125C669.521 2.71354 671.599 2.80469 672.984 2.80469C674.078 2.80469 674.99 3.16016 675.719 3.87109C676.466 4.58203 676.84 5.45703 676.84 6.49609C676.84 7.53516 676.466 8.41927 675.719 9.14844C674.99 9.85938 674.078 10.2148 672.984 10.2148ZM711.977 10.2148C710.555 10.2148 708.34 10.1146 705.332 9.91406C702.434 9.71354 700.219 9.6224 698.688 9.64062C698.76 11.7188 699.007 15.4193 699.426 20.7422C699.809 25.4453 700 29.1641 700 31.8984C700 32.5182 700.064 33.4388 700.191 34.6602C700.319 35.8815 700.383 36.8021 700.383 37.4219C700.383 38.7891 700.091 40.0195 699.508 41.1133C698.76 42.5169 697.694 43.2188 696.309 43.2188C695.306 43.2188 694.422 42.8997 693.656 42.2617C692.799 41.5508 692.371 40.6576 692.371 39.582C692.371 39.3268 692.417 38.944 692.508 38.4336C692.599 37.9049 692.645 37.5039 692.645 37.2305C692.645 36.3919 692.581 35.125 692.453 33.4297C692.344 31.7344 692.289 30.4583 692.289 29.6016C692.289 27.1589 692.098 23.8503 691.715 19.6758C691.277 14.8815 691.022 11.5729 690.949 9.75H689.527C685.462 9.75 682.236 9.45833 679.848 8.875C677.824 8.38281 676.812 7.1888 676.812 5.29297C676.812 4.36328 677.141 3.52474 677.797 2.77734C678.562 1.88411 679.565 1.48307 680.805 1.57422C681.443 1.61068 682.892 1.76562 685.152 2.03906C686.957 2.23958 688.415 2.33984 689.527 2.33984C690.639 2.33984 692.298 2.32161 694.504 2.28516C696.728 2.2487 698.396 2.23047 699.508 2.23047C700.893 2.23047 702.971 2.33073 705.742 2.53125C708.513 2.71354 710.591 2.80469 711.977 2.80469C713.07 2.80469 713.982 3.16016 714.711 3.87109C715.458 4.58203 715.832 5.45703 715.832 6.49609C715.832 7.53516 715.458 8.41927 714.711 9.14844C713.982 9.85938 713.07 10.2148 711.977 10.2148ZM741.699 10.6797C740.751 10.6797 738.154 10.4245 733.906 9.91406C733.651 13.2682 733.523 17.7253 733.523 23.2852L733.496 35.5625C735.921 35.5078 738.391 35.4805 740.906 35.4805C742 35.4805 742.902 35.8451 743.613 36.5742C744.342 37.3034 744.707 38.1784 744.707 39.1992C744.707 40.2201 744.342 41.0951 743.613 41.8242C742.902 42.5352 742 42.8906 740.906 42.8906C739.885 42.8906 738.354 42.918 736.312 42.9727C734.271 43.0091 732.74 43.0273 731.719 43.0273C730.516 43.0273 728.711 43.1823 726.305 43.4922C723.898 43.8203 722.094 43.9844 720.891 43.9844C719.797 43.9844 718.885 43.6289 718.156 42.918C717.445 42.1888 717.09 41.3138 717.09 40.293C717.09 39.2721 717.445 38.3971 718.156 37.668C718.885 36.9388 719.797 36.5742 720.891 36.5742C722.13 36.5742 723.762 36.4375 725.785 36.1641C725.749 34.013 725.73 29.8932 725.73 23.8047C725.73 18.8464 725.913 14.1159 726.277 9.61328L720.344 9.77734C719.25 9.77734 718.329 9.42188 717.582 8.71094C716.853 8 716.488 7.11589 716.488 6.05859C716.488 4.98307 716.853 4.10807 717.582 3.43359C718.257 2.8138 719.086 2.45833 720.07 2.36719C721.674 2.22135 724.464 2.14844 728.438 2.14844C732.01 2.14844 736.613 2.53125 742.246 3.29688C744.488 3.60677 745.609 4.86458 745.609 7.07031C745.609 8.23698 745.154 9.15755 744.242 9.83203C743.495 10.3971 742.647 10.6797 741.699 10.6797ZM789.387 36.2734C789.387 37.1849 789.232 38.625 788.922 40.5938C788.557 42.9453 787.227 44.1211 784.93 44.1211C783.654 44.1211 782.214 43.401 780.609 41.9609C773.591 35.6354 765.671 26.7669 756.848 15.3555C756.738 20.0951 756.684 23.0026 756.684 24.0781C756.684 25.5182 756.711 27.6875 756.766 30.5859C756.839 33.4844 756.875 35.6536 756.875 37.0938C756.875 42.4714 755.562 45.1602 752.938 45.1602C751.607 45.1602 750.54 44.75 749.738 43.9297C749.027 43.2005 748.672 42.3164 748.672 41.2773C748.672 40.5482 748.727 39.4453 748.836 37.9688C748.964 36.4922 749.027 35.3893 749.027 34.6602C749.027 33.5846 749.064 31.9714 749.137 29.8203C749.21 27.6693 749.246 26.056 749.246 24.9805C749.246 23.832 749.219 22.1003 749.164 19.7852C749.109 17.4701 749.082 15.7383 749.082 14.5898C749.082 13.4961 748.973 11.8646 748.754 9.69531C748.535 7.52604 748.426 5.89453 748.426 4.80078C748.426 3.70703 748.891 2.73177 749.82 1.875C750.768 1.01823 751.844 0.589844 753.047 0.589844C754.396 0.589844 755.891 1.75651 757.531 4.08984C765.807 15.9023 773.974 25.5365 782.031 32.9922C782.049 32.4089 782.059 31.0234 782.059 28.8359C782.059 19.849 781.967 13.7878 781.785 10.6523C781.749 10.1237 781.63 9.13932 781.43 7.69922C781.247 6.42318 781.156 5.42057 781.156 4.69141C781.156 2.17578 782.487 0.917969 785.148 0.917969C788.12 0.917969 789.605 5.5026 789.605 14.6719C789.605 14.8724 789.587 16.3125 789.551 18.9922C789.441 28.2526 789.387 34.013 789.387 36.2734ZM828.215 26.9219C826.975 32.3542 824.478 36.7018 820.723 39.9648C816.913 43.2461 812.447 44.8867 807.324 44.8867C802.475 44.8867 798.839 43.6107 796.414 41.0586C793.99 38.4883 792.777 34.6419 792.777 29.5195C792.777 24.8529 793.926 20.0677 796.223 15.1641C798.52 10.2604 801.473 6.28646 805.082 3.24219C807.616 1.10938 810.332 0.0429688 813.23 0.0429688C814.999 0.0429688 817.405 0.68099 820.449 1.95703C824.059 3.47005 825.863 5.08333 825.863 6.79688C825.863 7.78125 825.49 8.66536 824.742 9.44922C823.995 10.2148 823.074 10.5977 821.98 10.5977C821.434 10.5977 820.221 10.0872 818.344 9.06641C816.484 8.02734 814.78 7.50781 813.23 7.50781C811.59 7.50781 809.375 9.27604 806.586 12.8125C802.521 17.9531 800.488 23.5221 800.488 29.5195C800.488 32.5638 800.935 34.6328 801.828 35.7266C802.776 36.875 804.608 37.4492 807.324 37.4492C810.113 37.4492 812.565 36.6562 814.68 35.0703C816.922 33.3932 818.581 30.9505 819.656 27.7422C815.427 28.0703 811.745 28.9362 808.609 30.3398C808.044 30.5951 807.479 30.7227 806.914 30.7227C805.784 30.7227 804.845 30.3034 804.098 29.4648C803.423 28.7174 803.086 27.8698 803.086 26.9219C803.086 24.1328 806.385 22.1823 812.984 21.0703C816.703 20.4505 821.042 20.1406 826 20.1406C827.094 20.1406 828.005 20.4961 828.734 21.207C829.482 21.918 829.855 22.793 829.855 23.832C829.855 25.1628 829.309 26.1927 828.215 26.9219Z" fill="white"/>
</svg>
