<svg width="307" height="72" viewBox="0 0 307 72" fill="none" xmlns="http://www.w3.org/2000/svg">
<path d="M4.3381 32.5728C7.17549 40.9568 5.85345 53.0704 6.22835 61.3788C9.5701 66.3159 31.7577 59.4051 36.9498 63.2406C39.5389 65.1531 41.1246 65.1023 44.6508 65.1023C52.0106 65.1023 56.9577 58.891 64.1962 59.9307C82.8448 62.6094 102.111 62.3672 120.624 65.1023C140.203 67.995 159.614 67.895 179.502 67.895C210.419 67.895 241.22 69.7568 272.124 69.7568C278.825 69.7568 285.335 69.4392 292.007 69.0328C295.67 68.8096 301.08 69.6289 304.538 68.6708C306.456 68.1397 304.889 58.5882 304.889 56.6209C304.889 42.2948 302.834 27.896 297.328 14.1101C294.341 6.63245 276.13 10.826 268.414 11.576C254.484 12.9299 241.142 12.8276 227.248 11.576C206.088 9.66978 184.314 10.5955 163.049 9.04189C142.273 7.52399 122.279 4.59429 101.301 4.59429C93.3618 4.59429 85.6661 4.5341 77.778 3.87026C69.3625 3.16204 59.3114 1.21712 50.8944 2.00847C38.0066 3.22014 26.9609 2.86801 14.4895 5.93891C6.7602 7.84213 6.27304 11.9672 3.42798 16.6959C0.91944 20.8653 2.83754 28.1389 4.3381 32.5728Z" fill="#A4FF00" stroke="black" stroke-width="3" stroke-linecap="round"/>
<path d="M68.7594 26.7021C68.5723 27.1249 68.3517 27.6459 68.0975 28.2651C67.9063 28.8649 67.5989 29.7538 67.1752 30.9317C66.5457 32.4485 65.5509 34.6549 64.1908 37.5509C62.7983 40.4982 61.7984 42.6992 61.1911 44.1541C60.7385 45.2375 60.317 46.1029 59.9267 46.7501C59.4169 47.603 58.6622 48.0177 57.6625 47.9942C57.0689 47.9802 56.5364 47.8062 56.0649 47.4721C55.5114 47.084 55.221 46.5823 55.1938 45.9669C54.7429 44.758 54.4639 43.7721 54.3568 43.0089C53.9509 40.7696 53.3944 37.4066 52.687 32.92C51.961 34.9973 51.1878 36.8599 50.3677 38.5077C49.1426 40.9796 48.3311 42.9247 47.9331 44.3428C48.0214 44.5741 48.0625 44.8199 48.0564 45.0803C48.0412 45.7259 47.7425 46.2451 47.1602 46.6378C46.6523 46.9697 46.0963 47.1285 45.4923 47.1143C44.7321 47.0965 44.1066 46.889 43.6158 46.492C43.0843 46.0523 42.8168 45.4625 42.8133 44.7226L42.372 42.8836C42.0666 41.251 41.5612 38.8114 40.856 35.5648C40.2267 33.0805 39.1586 29.5389 37.6516 24.9397C37.564 24.6771 37.5232 24.4157 37.5293 24.1553C37.544 23.5305 37.7952 23.0415 38.2828 22.6883C38.7176 22.3651 39.2369 22.2105 39.8409 22.2247C40.6324 22.2433 41.2546 22.5914 41.7076 23.2689C41.9593 23.6395 42.2406 24.3077 42.5513 25.2736C43.5029 28.2343 44.5531 32.5414 45.7018 38.1949C46.5827 36.1838 47.4876 33.8086 48.4168 31.0692C49.1674 28.8362 49.7725 27.2511 50.2322 26.3137C51.3269 24.0679 52.4157 22.9578 53.4988 22.9832C54.5193 23.0072 55.2508 23.5818 55.6933 24.7071C55.9099 25.2436 56.1112 26.2121 56.2971 27.6127C56.3495 28.0412 56.4603 29.0909 56.6294 30.762C56.806 32.5583 57.3855 35.8333 58.3679 40.5868C59.5324 38.0301 61.1039 34.3421 63.0822 29.5226C63.2036 29.2337 63.4969 28.282 63.962 26.6675C64.2914 25.5083 64.6932 24.5956 65.1673 23.9294C65.6843 23.2122 66.3593 22.8634 67.1924 22.883C67.8276 22.8979 68.3489 23.1081 68.7562 23.5136C69.1637 23.9087 69.3602 24.4135 69.3457 25.0279C69.3406 25.2466 69.1452 25.8046 68.7594 26.7021ZM89.0218 47.6994C88.1998 47.6488 87.3947 46.6609 86.6064 44.7356C86.0833 43.4938 85.6428 42.0664 85.2847 40.4534C84.5114 40.5498 83.2486 40.6348 81.4964 40.7082C79.8484 40.7841 78.5851 40.8899 77.7067 41.0255C77.2007 42.1598 76.3271 43.8637 75.0859 46.1373C74.6101 46.8763 73.966 47.2363 73.1538 47.2172C72.581 47.2037 72.07 46.999 71.6209 46.6029C71.172 46.1964 70.9546 45.6912 70.9688 45.0872C70.9813 44.5561 71.7838 42.7723 73.3764 39.736C73.2382 39.4097 73.1828 39.1063 73.2102 38.8256C73.2636 38.3267 73.7779 37.948 74.753 37.6896C76.2919 35.1626 77.9997 32.5457 79.8763 29.839C82.5725 25.9534 84.2225 24.0176 84.8265 24.0318C85.9721 24.0587 86.7212 24.7692 87.074 26.1633C87.2561 27.2825 87.5448 28.9616 87.9403 31.2007C88.505 34.2148 89.2003 37.6644 90.0259 41.5494C90.092 41.8427 90.3414 42.5363 90.7741 43.6301C91.128 44.5345 91.2996 45.2105 91.2891 45.6583C91.2749 46.2623 91.034 46.762 90.5662 47.1574C90.1089 47.553 89.5941 47.7337 89.0218 47.6994ZM83.5718 31.5357C82.7268 32.912 81.5626 34.7863 80.0794 37.1583C80.5505 37.0652 81.2814 36.999 82.2722 36.9598C83.4402 36.9143 84.1758 36.8743 84.4787 36.8397C84.2606 35.48 83.9583 33.712 83.5718 31.5357ZM117.693 44.0593C117.681 44.58 117.573 45.4006 117.37 46.5212C117.13 47.8596 116.354 48.5135 115.042 48.4826C114.313 48.4655 113.5 48.0348 112.603 47.1906C108.678 43.4828 104.273 38.3102 99.3855 31.6728C99.2594 34.3789 99.1891 36.0392 99.1747 36.6536C99.1553 37.4763 99.1418 38.7159 99.1342 40.3724C99.1369 42.0292 99.1287 43.2689 99.1093 44.0916C99.0372 47.1637 98.2513 48.6821 96.7517 48.6468C95.9915 48.629 95.3878 48.3804 94.9406 47.901C94.5442 47.4749 94.353 46.965 94.367 46.3715C94.3768 45.9549 94.4228 45.3256 94.5051 44.4836C94.5978 43.6417 94.6491 43.0126 94.6589 42.596C94.6733 41.9816 94.7158 41.0605 94.7863 39.8326C94.8568 38.6048 94.8993 37.6836 94.9137 37.0692C94.9291 36.4132 94.9368 35.4235 94.9366 34.1002C94.9364 32.7769 94.9441 31.7872 94.9595 31.1312C94.9741 30.5063 94.9336 29.5728 94.8377 28.3307C94.7419 27.0885 94.7013 26.155 94.716 25.5302C94.7306 24.9053 95.0093 24.3544 95.5519 23.8775C96.1049 23.4007 96.7251 23.1704 97.4124 23.1866C98.183 23.2047 99.0213 23.8912 99.9272 25.2462C104.497 32.1054 109.033 37.7187 113.535 42.0861C113.554 41.7531 113.577 40.9618 113.607 39.7121C113.727 34.5781 113.757 31.1143 113.695 29.3207C113.681 29.0182 113.626 28.4543 113.531 27.6289C113.444 26.8975 113.406 26.3235 113.415 25.907C113.449 24.4699 114.226 23.7692 115.747 23.8049C117.444 23.8448 118.231 26.4838 118.108 31.7219C118.106 31.8365 118.076 32.6589 118.019 34.1892C117.832 39.478 117.724 42.768 117.693 44.0593ZM139.615 29.6796C138.803 29.6605 137.539 29.5735 135.823 29.4186C134.17 29.2652 132.906 29.1834 132.031 29.1732C132.045 30.3614 132.136 32.4787 132.304 35.5251C132.46 38.217 132.519 40.344 132.482 41.9061C132.474 42.2602 132.498 42.7869 132.555 43.4863C132.611 44.1858 132.635 44.7125 132.627 45.0666C132.609 45.8476 132.425 46.5467 132.078 47.1637C131.632 47.9555 131.013 48.3421 130.222 48.3235C129.649 48.31 129.148 48.1159 128.719 47.7412C128.239 47.3235 128.007 46.8075 128.021 46.1931C128.024 46.0473 128.056 45.8292 128.115 45.5389C128.174 45.2381 128.205 45.0096 128.209 44.8534C128.22 44.3744 128.201 43.6497 128.151 42.6796C128.111 41.7096 128.097 40.9799 128.108 40.4905C128.141 39.095 128.076 37.2023 127.913 34.8124C127.728 32.0677 127.626 30.1742 127.609 29.1319L126.797 29.1128C124.475 29.0582 122.635 28.8483 121.279 28.483C120.13 28.1747 119.568 27.479 119.593 26.3959C119.606 25.8648 119.804 25.3902 120.189 24.9721C120.639 24.4721 121.217 24.2564 121.924 24.3251C122.288 24.3545 123.113 24.4625 124.401 24.649C125.429 24.7878 126.261 24.8646 126.896 24.8796C127.532 24.8945 128.48 24.9063 129.74 24.9151C131.011 24.9241 131.964 24.9361 132.599 24.951C133.391 24.9696 134.577 25.0548 136.157 25.2065C137.737 25.3479 138.923 25.4278 139.715 25.4464C140.34 25.4611 140.855 25.6764 141.262 26.0923C141.68 26.5085 141.882 27.0134 141.868 27.607C141.854 28.2005 141.628 28.7006 141.192 29.1071C140.766 29.5035 140.24 29.6943 139.615 29.6796ZM170.822 49.1836C170.562 49.1775 170.157 49.1263 169.607 49.03C169.067 48.9236 168.678 48.8675 168.438 48.8619L163.846 48.7384C163.45 48.7291 162.85 48.7671 162.046 48.8524C161.242 48.9273 160.637 48.9599 160.231 48.9504C160.116 48.9477 159.95 48.923 159.732 48.8762C159.515 48.8294 159.349 48.8046 159.234 48.8019C158.297 48.7799 157.67 48.3849 157.355 47.6169C157.158 47.1329 157.071 46.3911 157.095 45.3914C157.141 43.444 157.611 41.8244 158.506 40.5326C159.196 39.5381 160.298 38.5533 161.811 37.5781C163.238 36.6843 164.661 35.7956 166.078 34.912C167.751 33.753 168.606 32.4134 168.642 30.893C168.651 30.4972 168.332 30.099 167.685 29.6983C167.038 29.2872 166.402 29.0742 165.778 29.0596C164.674 29.0336 163.491 29.5008 162.228 30.461C160.976 31.411 160.121 31.8806 159.663 31.8698C159.111 31.8569 158.63 31.7101 158.22 31.4296C157.707 31.0841 157.458 30.6146 157.472 30.021C157.486 29.3857 157.76 28.8451 158.291 28.3992C159.577 27.3145 160.695 26.528 161.644 26.0398C163.015 25.3322 164.425 24.9954 165.872 25.0294C167.674 25.0718 169.287 25.5837 170.713 26.5654C172.343 27.6873 173.138 29.1231 173.096 30.8726C173.055 32.6429 172.613 34.1382 171.772 35.3583C171.114 36.3327 170.086 37.2724 168.689 38.1773C167.368 38.9694 166.047 39.7563 164.727 40.538C162.718 41.7829 161.621 43.2315 161.436 44.8838C162.011 44.8244 162.856 44.7609 163.972 44.6934C166.193 44.6309 167.783 44.6109 168.741 44.6335C169.636 44.6545 170.517 44.868 171.383 45.2738C172.455 45.7783 172.982 46.4054 172.964 47.1552C172.951 47.6967 172.747 48.166 172.353 48.5631C171.936 48.991 171.426 49.1978 170.822 49.1836ZM202.297 49.2823C199.849 50.1313 196.772 50.5122 193.065 50.4251C192.44 50.4104 191.884 50.1369 191.396 49.6044C190.919 49.0723 190.687 48.5094 190.701 47.9158L191.09 31.3578C191.075 30.649 191.066 29.9402 191.062 29.2316C191.049 28.429 191.091 27.7527 191.188 27.2027C191.356 26.2273 192.282 25.6551 193.963 25.4862C194.76 25.2757 196.075 25.192 197.908 25.235C199.876 25.2813 201.746 25.9608 203.518 27.2736C205.597 28.802 206.61 30.6753 206.558 32.8935C206.53 34.091 206.288 35.096 205.831 35.9085C205.472 36.5669 204.856 37.2661 203.984 38.0063C204.983 38.5195 205.861 39.2799 206.619 40.2875C207.478 41.4122 207.895 42.5213 207.869 43.6147C207.837 44.9997 207.051 46.2941 205.512 47.4979C204.482 48.2969 203.411 48.8917 202.297 49.2823ZM197.808 29.4682C196.465 29.4367 195.657 29.4281 195.386 29.4426L195.324 32.7546L195.231 36.0345C196.176 36.1713 196.889 36.2246 197.369 36.1942C200.561 36.0191 202.182 34.885 202.231 32.7918C202.249 32.0524 201.797 31.3281 200.876 30.6187C199.924 29.8774 198.902 29.4939 197.808 29.4682ZM199.376 40.555C198.429 40.5327 197.013 40.463 195.13 40.3458L194.993 46.188C196.786 46.1363 198.736 45.8383 200.844 45.2939C202.689 44.8163 203.608 44.2752 203.601 43.6707C203.589 42.8681 203.017 42.141 201.886 41.4892C201.002 40.9683 200.166 40.6569 199.376 40.555ZM226.746 47.7623C225.961 48.7754 225.025 49.6131 223.936 50.2752C222.604 51.0774 221.246 51.4623 219.861 51.4298C217.205 51.3674 215.244 50.8107 213.977 49.7599C211.299 47.5401 210.023 43.7643 210.148 38.4324C210.16 37.9221 210.204 37.1626 210.28 36.1536C210.355 35.1447 210.399 34.3851 210.411 33.8749C210.421 33.4687 210.445 32.865 210.485 32.0636C210.525 31.2518 210.55 30.6428 210.559 30.2367C210.579 29.4036 210.748 28.6209 211.068 27.8886C211.497 26.9193 212.076 26.4431 212.805 26.4603C213.378 26.4737 213.878 26.673 214.307 27.0582C214.777 27.4652 215.004 27.9811 214.989 28.6059C214.975 29.1995 214.944 30.1001 214.895 31.3076C214.856 32.5049 214.83 33.4056 214.816 34.0096C214.804 34.5094 214.76 35.2638 214.684 36.2727C214.608 37.2817 214.565 38.0361 214.553 38.5359C214.515 40.1501 214.667 41.654 215.01 43.0479C215.408 44.714 216.021 45.8849 216.849 46.5608C217.279 46.9147 218.316 47.1215 219.961 47.1809C222.709 47.2872 224.618 44.9876 225.687 40.2823C226.244 37.8468 226.575 34.4161 226.679 29.9902C226.693 29.4071 226.878 28.8488 227.234 28.3153C227.719 27.6078 228.394 27.2642 229.259 27.2845C229.967 27.3011 230.492 27.5739 230.834 28.1029C231.095 28.4946 231.221 28.9247 231.21 29.3934C231.113 33.5068 230.845 36.7097 230.406 39.0021C229.739 42.5395 228.519 45.4596 226.746 47.7623ZM251.55 31.7624C250.994 32.8434 249.871 35.1822 248.181 38.779C246.777 41.7885 245.586 44.1466 244.608 45.8532C242.913 48.8142 242.006 50.3819 241.888 50.5563C241.252 51.4478 240.533 51.8842 239.731 51.8653C239.158 51.8519 238.658 51.6526 238.229 51.2674C237.76 50.8396 237.533 50.3185 237.547 49.7041C237.559 49.1938 238.698 47.0741 240.963 43.345C240.188 42.1703 239.079 40.3885 237.634 37.9998C236.55 36.2447 234.961 33.5972 232.866 30.0575C232.667 29.6985 232.571 29.3264 232.58 28.9411C232.594 28.3371 232.841 27.8323 233.319 27.4267C233.765 27.0517 234.28 26.871 234.863 26.8847C235.551 26.9009 236.167 27.2644 236.713 27.9754L237.841 29.8774C237.911 30.0041 238.771 31.5455 240.42 34.5017C241.46 36.3913 242.383 37.8873 243.191 38.9899C244.02 37.4152 245.217 35.0312 246.782 31.8379C247.111 31.1267 247.605 30.0495 248.264 28.6062C248.682 27.6783 249.37 27.2256 250.328 27.2481C250.901 27.2615 251.401 27.4608 251.83 27.846C252.299 28.2634 252.527 28.7793 252.512 29.3937C252.504 29.7478 252.183 30.5373 251.55 31.7624ZM266.378 41.2852C266.304 41.3355 265.43 41.9193 263.758 43.0366C262.689 43.7409 261.871 44.3937 261.305 44.9952C260.792 45.5353 260.233 45.7983 259.629 45.7842C259.036 45.7702 258.52 45.5445 258.082 45.107C257.645 44.6591 257.433 44.154 257.446 43.5916C257.466 42.7585 258.159 41.8423 259.527 40.8429C260.787 39.9972 262.046 39.1464 263.307 38.2903C264.674 37.3013 265.367 36.3955 265.387 35.5728C265.409 34.6043 264.936 33.6867 263.966 32.8199C263.008 31.943 261.997 31.4921 260.935 31.4671C260.373 31.4539 259.594 31.7586 258.6 32.3813C257.606 32.9935 256.906 33.2949 256.5 33.2853C255.886 33.2709 255.37 33.0348 254.954 32.5769C254.548 32.1089 254.352 31.599 254.365 31.0471C254.389 30.0057 255.323 29.0742 257.166 28.2527C258.724 27.5495 260.014 27.2099 261.034 27.2339C263.294 27.287 265.316 28.1681 267.099 29.8771C268.893 31.5863 269.764 33.5188 269.713 35.6745C269.663 37.8093 268.551 39.6795 266.378 41.2852ZM258.616 52.3403C258.022 52.3263 257.485 52.1262 257.005 51.7398C256.483 51.3107 256.23 50.789 256.244 50.1746C256.261 49.4665 256.485 48.8153 256.915 48.2211C257.432 47.4934 258.113 47.1395 258.956 47.1593C259.665 47.176 260.21 47.4545 260.593 47.9949C260.896 48.4396 261.04 48.9588 261.026 49.5524C261.011 50.1876 260.825 50.7772 260.468 51.321C260.014 52.0189 259.397 52.3586 258.616 52.3403Z" fill="black"/>
</svg>
