<svg width="277" height="46" viewBox="0 0 277 46" fill="none" xmlns="http://www.w3.org/2000/svg">
<path d="M41.2305 36.2734C41.2305 37.1849 41.0755 38.625 40.7656 40.5938C40.401 42.9453 39.0703 44.1211 36.7734 44.1211C35.4974 44.1211 34.0573 43.401 32.4531 41.9609C25.4349 35.6354 17.5143 26.7669 8.69141 15.3555C8.58203 20.0951 8.52734 23.0026 8.52734 24.0781C8.52734 25.5182 8.55469 27.6875 8.60938 30.5859C8.68229 33.4844 8.71875 35.6536 8.71875 37.0938C8.71875 42.4714 7.40625 45.1602 4.78125 45.1602C3.45052 45.1602 2.38411 44.75 1.58203 43.9297C0.871094 43.2005 0.515625 42.3164 0.515625 41.2773C0.515625 40.5482 0.570312 39.4453 0.679688 37.9688C0.807292 36.4922 0.871094 35.3893 0.871094 34.6602C0.871094 33.5846 0.907552 31.9714 0.980469 29.8203C1.05339 27.6693 1.08984 26.056 1.08984 24.9805C1.08984 23.832 1.0625 22.1003 1.00781 19.7852C0.953125 17.4701 0.925781 15.7383 0.925781 14.5898C0.925781 13.4961 0.816406 11.8646 0.597656 9.69531C0.378906 7.52604 0.269531 5.89453 0.269531 4.80078C0.269531 3.70703 0.734375 2.73177 1.66406 1.875C2.61198 1.01823 3.6875 0.589844 4.89062 0.589844C6.23958 0.589844 7.73438 1.75651 9.375 4.08984C17.651 15.9023 25.8177 25.5365 33.875 32.9922C33.8932 32.4089 33.9023 31.0234 33.9023 28.8359C33.9023 19.849 33.8112 13.7878 33.6289 10.6523C33.5924 10.1237 33.474 9.13932 33.2734 7.69922C33.0911 6.42318 33 5.42057 33 4.69141C33 2.17578 34.3307 0.917969 36.9922 0.917969C39.9635 0.917969 41.4492 5.5026 41.4492 14.6719C41.4492 14.8724 41.431 16.3125 41.3945 18.9922C41.2852 28.2526 41.2305 34.013 41.2305 36.2734ZM60.8906 31.5156C63.6432 24.5885 65.776 19.0742 67.2891 14.9727C68.0911 12.8034 68.8841 10.625 69.668 8.4375C70.7435 5.84896 71.901 3.85286 73.1406 2.44922C73.9609 1.51953 74.9453 1.05469 76.0938 1.05469C77.1328 1.05469 78.0443 1.41927 78.8281 2.14844C79.612 2.85938 80.0039 3.73438 80.0039 4.77344C80.0039 5.5026 79.7578 6.22266 79.2656 6.93359C78.2812 8.35547 77.3789 10.069 76.5586 12.0742C76.5221 12.1471 75.8477 13.9518 74.5352 17.4883C72.8945 21.6992 70.4518 28.0156 67.207 36.4375C66.3685 38.6432 65.3385 40.849 64.1172 43.0547C63.3333 44.4766 62.194 45.1875 60.6992 45.1875C58.8034 45.1875 57.4818 44.2943 56.7344 42.5078C54.5104 37.2031 52.0404 29.556 49.3242 19.5664C48.5768 17.1055 47.8203 14.6445 47.0547 12.1836C46.0339 8.75651 45.5234 6.3776 45.5234 5.04688C45.5234 3.97135 45.9245 3.07812 46.7266 2.36719C47.4922 1.71094 48.3854 1.38281 49.4062 1.38281C51.1562 1.38281 52.3776 2.29427 53.0703 4.11719C53.4349 5.70312 53.7995 7.27995 54.1641 8.84766C54.7656 10.8164 55.6315 13.7695 56.7617 17.707C58.1836 22.9206 59.5599 27.5234 60.8906 31.5156ZM107.512 10.6797C106.564 10.6797 103.966 10.4245 99.7188 9.91406C99.4635 13.2682 99.3359 17.7253 99.3359 23.2852L99.3086 35.5625C101.733 35.5078 104.203 35.4805 106.719 35.4805C107.812 35.4805 108.715 35.8451 109.426 36.5742C110.155 37.3034 110.52 38.1784 110.52 39.1992C110.52 40.2201 110.155 41.0951 109.426 41.8242C108.715 42.5352 107.812 42.8906 106.719 42.8906C105.698 42.8906 104.167 42.918 102.125 42.9727C100.083 43.0091 98.5521 43.0273 97.5312 43.0273C96.3281 43.0273 94.5234 43.1823 92.1172 43.4922C89.7109 43.8203 87.9062 43.9844 86.7031 43.9844C85.6094 43.9844 84.6979 43.6289 83.9688 42.918C83.2578 42.1888 82.9023 41.3138 82.9023 40.293C82.9023 39.2721 83.2578 38.3971 83.9688 37.668C84.6979 36.9388 85.6094 36.5742 86.7031 36.5742C87.9427 36.5742 89.5742 36.4375 91.5977 36.1641C91.5612 34.013 91.543 29.8932 91.543 23.8047C91.543 18.8464 91.7253 14.1159 92.0898 9.61328L86.1562 9.77734C85.0625 9.77734 84.1419 9.42188 83.3945 8.71094C82.6654 8 82.3008 7.11589 82.3008 6.05859C82.3008 4.98307 82.6654 4.10807 83.3945 3.43359C84.069 2.8138 84.8984 2.45833 85.8828 2.36719C87.487 2.22135 90.276 2.14844 94.25 2.14844C97.8229 2.14844 102.426 2.53125 108.059 3.29688C110.301 3.60677 111.422 4.86458 111.422 7.07031C111.422 8.23698 110.966 9.15755 110.055 9.83203C109.307 10.3971 108.46 10.6797 107.512 10.6797ZM119.68 43.2734C118.604 43.2552 117.702 42.8906 116.973 42.1797C116.243 41.4505 115.879 40.5755 115.879 39.5547C115.879 37.7318 115.961 34.9974 116.125 31.3516C116.307 27.7057 116.398 24.9714 116.398 23.1484C116.398 21.125 116.353 18.0898 116.262 14.043C116.189 9.99609 116.152 6.96094 116.152 4.9375C116.152 3.9349 116.635 2.94141 117.602 1.95703C118.568 0.954427 119.598 0.453125 120.691 0.453125C121.293 0.453125 122.806 1.01823 125.23 2.14844C128.056 3.4974 129.733 4.25391 130.262 4.41797C135.603 6.14974 140.16 8.82943 143.934 12.457C148.436 16.7773 150.688 21.5534 150.688 26.7852C150.688 29.9388 149.913 32.9375 148.363 35.7812C146.814 38.6797 144.69 41.0039 141.992 42.7539C138.966 44.7227 134.71 45.707 129.223 45.707C127.892 45.707 126.361 45.5156 124.629 45.1328C122.533 44.6589 120.883 44.0391 119.68 43.2734ZM135.047 15.1641C133.279 14.0521 129.487 12.3021 123.672 9.91406V36.9844C124.383 37.4401 125.194 37.7865 126.105 38.0234C127.035 38.2422 128.065 38.3516 129.195 38.3516C133.133 38.3516 135.958 37.8047 137.672 36.7109C139.294 35.6719 140.579 34.2591 141.527 32.4727C142.493 30.6862 142.977 28.8268 142.977 26.8945C142.977 22.3737 140.333 18.4635 135.047 15.1641ZM183.938 38.2695C182.607 40.0742 181.003 41.5781 179.125 42.7812C176.828 44.2396 174.467 44.9688 172.043 44.9688C167.395 44.9688 163.94 44.0755 161.68 42.2891C156.904 38.5156 154.516 31.9622 154.516 22.6289C154.516 21.7357 154.561 20.4049 154.652 18.6367C154.743 16.8685 154.789 15.5378 154.789 14.6445C154.789 13.9336 154.807 12.8763 154.844 11.4727C154.88 10.0508 154.898 8.98438 154.898 8.27344C154.898 6.8151 155.163 5.4388 155.691 4.14453C156.402 2.43099 157.396 1.57422 158.672 1.57422C159.674 1.57422 160.559 1.90234 161.324 2.55859C162.163 3.2513 162.582 4.14453 162.582 5.23828C162.582 6.27734 162.564 7.85417 162.527 9.96875C162.509 12.0651 162.5 13.6419 162.5 14.6992C162.5 15.5742 162.454 16.8958 162.363 18.6641C162.272 20.4323 162.227 21.7539 162.227 22.6289C162.227 25.4544 162.555 28.0794 163.211 30.5039C163.977 33.4023 165.098 35.4258 166.574 36.5742C167.34 37.1758 169.163 37.4948 172.043 37.5312C176.855 37.6042 180.1 33.5026 181.777 25.2266C182.652 20.9427 183.09 14.9271 183.09 7.17969C183.09 6.15885 183.391 5.17448 183.992 4.22656C184.812 2.96875 185.979 2.33984 187.492 2.33984C188.732 2.33984 189.661 2.79557 190.281 3.70703C190.755 4.38151 190.992 5.12891 190.992 5.94922C190.992 13.1497 190.655 18.7643 189.98 22.793C188.96 29.0091 186.945 34.168 183.938 38.2695ZM225.227 38.2695C223.896 40.0742 222.292 41.5781 220.414 42.7812C218.117 44.2396 215.757 44.9688 213.332 44.9688C208.684 44.9688 205.229 44.0755 202.969 42.2891C198.193 38.5156 195.805 31.9622 195.805 22.6289C195.805 21.7357 195.85 20.4049 195.941 18.6367C196.033 16.8685 196.078 15.5378 196.078 14.6445C196.078 13.9336 196.096 12.8763 196.133 11.4727C196.169 10.0508 196.188 8.98438 196.188 8.27344C196.188 6.8151 196.452 5.4388 196.98 4.14453C197.691 2.43099 198.685 1.57422 199.961 1.57422C200.964 1.57422 201.848 1.90234 202.613 2.55859C203.452 3.2513 203.871 4.14453 203.871 5.23828C203.871 6.27734 203.853 7.85417 203.816 9.96875C203.798 12.0651 203.789 13.6419 203.789 14.6992C203.789 15.5742 203.743 16.8958 203.652 18.6641C203.561 20.4323 203.516 21.7539 203.516 22.6289C203.516 25.4544 203.844 28.0794 204.5 30.5039C205.266 33.4023 206.387 35.4258 207.863 36.5742C208.629 37.1758 210.452 37.4948 213.332 37.5312C218.145 37.6042 221.389 33.5026 223.066 25.2266C223.941 20.9427 224.379 14.9271 224.379 7.17969C224.379 6.15885 224.68 5.17448 225.281 4.22656C226.102 2.96875 227.268 2.33984 228.781 2.33984C230.021 2.33984 230.951 2.79557 231.57 3.70703C232.044 4.38151 232.281 5.12891 232.281 5.94922C232.281 13.1497 231.944 18.7643 231.27 22.793C230.249 29.0091 228.234 34.168 225.227 38.2695ZM276.004 5.07422C275.639 6.40495 275.457 7.5625 275.457 8.54688C275.457 9.05729 275.402 9.85026 275.293 10.9258C275.202 11.9831 275.156 12.7669 275.156 13.2773C275.156 15.0091 275.065 17.5794 274.883 20.9883C274.701 24.3971 274.609 26.9674 274.609 28.6992C274.609 30.0299 274.71 32.0169 274.91 34.6602C275.111 37.3034 275.211 39.2904 275.211 40.6211C275.211 41.6237 274.855 42.4714 274.145 43.1641C273.434 43.8568 272.549 44.2031 271.492 44.2031C270.417 44.2031 269.487 43.8568 268.703 43.1641C267.919 42.4896 267.527 41.6602 267.527 40.6758C267.527 39.3451 267.464 37.349 267.336 34.6875C267.227 32.026 267.172 30.0299 267.172 28.6992C267.172 27.6602 267.19 26.7396 267.227 25.9375C264.365 26.0651 260.828 26.5117 256.617 27.2773C253.117 27.9154 249.617 28.5625 246.117 29.2188C246.081 30.4583 245.953 32.5273 245.734 35.4258C245.552 37.9779 245.461 40.0651 245.461 41.6875C245.461 42.6901 245.105 43.5378 244.395 44.2305C243.684 44.9232 242.799 45.2695 241.742 45.2695C240.685 45.2695 239.801 44.9232 239.09 44.2305C238.379 43.5378 238.023 42.6901 238.023 41.6875C238.023 39.8464 238.178 37.0938 238.488 33.4297C238.816 29.7656 238.98 27.013 238.98 25.1719C238.98 22.8385 239.035 19.3294 239.145 14.6445C239.254 9.94141 239.309 6.42318 239.309 4.08984C239.309 3.08724 239.664 2.23958 240.375 1.54688C241.086 0.854167 241.97 0.507812 243.027 0.507812C244.085 0.507812 244.969 0.854167 245.68 1.54688C246.391 2.23958 246.746 3.08724 246.746 4.08984C246.746 5.47526 246.691 7.5625 246.582 10.3516C246.491 13.1224 246.445 15.2005 246.445 16.5859C246.445 17.0417 246.382 17.9167 246.254 19.2109C246.145 20.4141 246.099 21.3346 246.117 21.9727L256.617 20.0039C260.719 19.2747 264.255 18.8555 267.227 18.7461C267.299 17.5247 267.418 14.2435 267.582 8.90234C267.618 7.4987 268.047 5.88542 268.867 4.0625C269.888 1.82031 271.046 0.699219 272.34 0.699219C273.306 0.699219 274.163 1.01823 274.91 1.65625C275.712 2.34896 276.113 3.21484 276.113 4.25391C276.113 4.52734 276.077 4.80078 276.004 5.07422Z" fill="white"/>
</svg>
