<svg width="367" height="14" viewBox="0 0 367 14" fill="none" xmlns="http://www.w3.org/2000/svg">
<path d="M12.3516 11.0781C12.3516 11.3385 12.3073 11.75 12.2188 12.3125C12.1146 12.9844 11.7344 13.3203 11.0781 13.3203C10.7135 13.3203 10.3021 13.1146 9.84375 12.7031C7.83854 10.8958 5.57552 8.36198 3.05469 5.10156C3.02344 6.45573 3.00781 7.28646 3.00781 7.59375C3.00781 8.00521 3.01562 8.625 3.03125 9.45312C3.05208 10.2812 3.0625 10.901 3.0625 11.3125C3.0625 12.849 2.6875 13.6172 1.9375 13.6172C1.55729 13.6172 1.2526 13.5 1.02344 13.2656C0.820312 13.0573 0.71875 12.8047 0.71875 12.5078C0.71875 12.2995 0.734375 11.9844 0.765625 11.5625C0.802083 11.1406 0.820312 10.8255 0.820312 10.6172C0.820312 10.3099 0.830729 9.84896 0.851562 9.23438C0.872396 8.61979 0.882812 8.15885 0.882812 7.85156C0.882812 7.52344 0.875 7.02865 0.859375 6.36719C0.84375 5.70573 0.835938 5.21094 0.835938 4.88281C0.835938 4.57031 0.804688 4.10417 0.742188 3.48438C0.679688 2.86458 0.648438 2.39844 0.648438 2.08594C0.648438 1.77344 0.78125 1.49479 1.04688 1.25C1.31771 1.00521 1.625 0.882812 1.96875 0.882812C2.35417 0.882812 2.78125 1.21615 3.25 1.88281C5.61458 5.25781 7.94792 8.01042 10.25 10.1406C10.2552 9.97396 10.2578 9.57812 10.2578 8.95312C10.2578 6.38542 10.2318 4.65365 10.1797 3.75781C10.1693 3.60677 10.1354 3.32552 10.0781 2.91406C10.026 2.54948 10 2.26302 10 2.05469C10 1.33594 10.3802 0.976562 11.1406 0.976562C11.9896 0.976562 12.4141 2.28646 12.4141 4.90625C12.4141 4.96354 12.4089 5.375 12.3984 6.14062C12.3672 8.78646 12.3516 10.4323 12.3516 11.0781ZM17.9688 9.71875C18.7552 7.73958 19.3646 6.16406 19.7969 4.99219C20.026 4.3724 20.2526 3.75 20.4766 3.125C20.7839 2.38542 21.1146 1.8151 21.4688 1.41406C21.7031 1.14844 21.9844 1.01562 22.3125 1.01562C22.6094 1.01562 22.8698 1.11979 23.0938 1.32812C23.3177 1.53125 23.4297 1.78125 23.4297 2.07812C23.4297 2.28646 23.3594 2.49219 23.2188 2.69531C22.9375 3.10156 22.6797 3.59115 22.4453 4.16406C22.4349 4.1849 22.2422 4.70052 21.8672 5.71094C21.3984 6.91406 20.7005 8.71875 19.7734 11.125C19.5339 11.7552 19.2396 12.3854 18.8906 13.0156C18.6667 13.4219 18.3411 13.625 17.9141 13.625C17.3724 13.625 16.9948 13.3698 16.7812 12.8594C16.1458 11.3438 15.4401 9.15885 14.6641 6.30469C14.4505 5.60156 14.2344 4.89844 14.0156 4.19531C13.724 3.21615 13.5781 2.53646 13.5781 2.15625C13.5781 1.84896 13.6927 1.59375 13.9219 1.39062C14.1406 1.20312 14.3958 1.10938 14.6875 1.10938C15.1875 1.10938 15.5365 1.36979 15.7344 1.89062C15.8385 2.34375 15.9427 2.79427 16.0469 3.24219C16.2188 3.80469 16.4661 4.64844 16.7891 5.77344C17.1953 7.26302 17.5885 8.57812 17.9688 9.71875ZM31.2891 3.76562C31.0182 3.76562 30.276 3.69271 29.0625 3.54688C28.9896 4.50521 28.9531 5.77865 28.9531 7.36719L28.9453 10.875C29.638 10.8594 30.3438 10.8516 31.0625 10.8516C31.375 10.8516 31.6328 10.9557 31.8359 11.1641C32.0443 11.3724 32.1484 11.6224 32.1484 11.9141C32.1484 12.2057 32.0443 12.4557 31.8359 12.6641C31.6328 12.8672 31.375 12.9688 31.0625 12.9688C30.7708 12.9688 30.3333 12.9766 29.75 12.9922C29.1667 13.0026 28.7292 13.0078 28.4375 13.0078C28.0938 13.0078 27.5781 13.0521 26.8906 13.1406C26.2031 13.2344 25.6875 13.2812 25.3438 13.2812C25.0312 13.2812 24.7708 13.1797 24.5625 12.9766C24.3594 12.7682 24.2578 12.5182 24.2578 12.2266C24.2578 11.9349 24.3594 11.6849 24.5625 11.4766C24.7708 11.2682 25.0312 11.1641 25.3438 11.1641C25.6979 11.1641 26.1641 11.125 26.7422 11.0469C26.7318 10.4323 26.7266 9.25521 26.7266 7.51562C26.7266 6.09896 26.7786 4.7474 26.8828 3.46094L25.1875 3.50781C24.875 3.50781 24.612 3.40625 24.3984 3.20312C24.1901 3 24.0859 2.7474 24.0859 2.44531C24.0859 2.13802 24.1901 1.88802 24.3984 1.69531C24.5911 1.51823 24.8281 1.41667 25.1094 1.39062C25.5677 1.34896 26.3646 1.32812 27.5 1.32812C28.5208 1.32812 29.8359 1.4375 31.4453 1.65625C32.0859 1.74479 32.4062 2.10417 32.4062 2.73438C32.4062 3.06771 32.276 3.33073 32.0156 3.52344C31.8021 3.6849 31.5599 3.76562 31.2891 3.76562ZM34.7656 13.0781C34.4583 13.0729 34.2005 12.9688 33.9922 12.7656C33.7839 12.5573 33.6797 12.3073 33.6797 12.0156C33.6797 11.4948 33.7031 10.7135 33.75 9.67188C33.8021 8.63021 33.8281 7.84896 33.8281 7.32812C33.8281 6.75 33.8151 5.88281 33.7891 4.72656C33.7682 3.57031 33.7578 2.70312 33.7578 2.125C33.7578 1.83854 33.8958 1.55469 34.1719 1.27344C34.4479 0.986979 34.7422 0.84375 35.0547 0.84375C35.2266 0.84375 35.6589 1.00521 36.3516 1.32812C37.1589 1.71354 37.638 1.92969 37.7891 1.97656C39.3151 2.47135 40.6172 3.23698 41.6953 4.27344C42.9818 5.50781 43.625 6.8724 43.625 8.36719C43.625 9.26823 43.4036 10.125 42.9609 10.9375C42.5182 11.7656 41.9115 12.4297 41.1406 12.9297C40.276 13.4922 39.0599 13.7734 37.4922 13.7734C37.112 13.7734 36.6745 13.7188 36.1797 13.6094C35.5807 13.474 35.1094 13.2969 34.7656 13.0781ZM39.1562 5.04688C38.651 4.72917 37.5677 4.22917 35.9062 3.54688V11.2812C36.1094 11.4115 36.3411 11.5104 36.6016 11.5781C36.8672 11.6406 37.1615 11.6719 37.4844 11.6719C38.6094 11.6719 39.4167 11.5156 39.9062 11.2031C40.3698 10.9062 40.737 10.5026 41.0078 9.99219C41.2839 9.48177 41.4219 8.95052 41.4219 8.39844C41.4219 7.10677 40.6667 5.98958 39.1562 5.04688ZM53.125 11.6484C52.7448 12.1641 52.2865 12.5938 51.75 12.9375C51.0938 13.3542 50.4193 13.5625 49.7266 13.5625C48.3984 13.5625 47.4115 13.3073 46.7656 12.7969C45.401 11.7188 44.7188 9.84635 44.7188 7.17969C44.7188 6.92448 44.7318 6.54427 44.7578 6.03906C44.7839 5.53385 44.7969 5.15365 44.7969 4.89844C44.7969 4.69531 44.8021 4.39323 44.8125 3.99219C44.8229 3.58594 44.8281 3.28125 44.8281 3.07812C44.8281 2.66146 44.9036 2.26823 45.0547 1.89844C45.2578 1.40885 45.5417 1.16406 45.9062 1.16406C46.1927 1.16406 46.4453 1.25781 46.6641 1.44531C46.9036 1.64323 47.0234 1.89844 47.0234 2.21094C47.0234 2.50781 47.0182 2.95833 47.0078 3.5625C47.0026 4.16146 47 4.61198 47 4.91406C47 5.16406 46.987 5.54167 46.9609 6.04688C46.9349 6.55208 46.9219 6.92969 46.9219 7.17969C46.9219 7.98698 47.0156 8.73698 47.2031 9.42969C47.4219 10.2578 47.7422 10.8359 48.1641 11.1641C48.3828 11.3359 48.9036 11.4271 49.7266 11.4375C51.1016 11.4583 52.0286 10.2865 52.5078 7.92188C52.7578 6.69792 52.8828 4.97917 52.8828 2.76562C52.8828 2.47396 52.9688 2.19271 53.1406 1.92188C53.375 1.5625 53.7083 1.38281 54.1406 1.38281C54.4948 1.38281 54.7604 1.51302 54.9375 1.77344C55.0729 1.96615 55.1406 2.17969 55.1406 2.41406C55.1406 4.47135 55.0443 6.07552 54.8516 7.22656C54.5599 9.0026 53.9844 10.4766 53.125 11.6484ZM64.9219 11.6484C64.5417 12.1641 64.0833 12.5938 63.5469 12.9375C62.8906 13.3542 62.2161 13.5625 61.5234 13.5625C60.1953 13.5625 59.2083 13.3073 58.5625 12.7969C57.1979 11.7188 56.5156 9.84635 56.5156 7.17969C56.5156 6.92448 56.5286 6.54427 56.5547 6.03906C56.5807 5.53385 56.5938 5.15365 56.5938 4.89844C56.5938 4.69531 56.599 4.39323 56.6094 3.99219C56.6198 3.58594 56.625 3.28125 56.625 3.07812C56.625 2.66146 56.7005 2.26823 56.8516 1.89844C57.0547 1.40885 57.3385 1.16406 57.7031 1.16406C57.9896 1.16406 58.2422 1.25781 58.4609 1.44531C58.7005 1.64323 58.8203 1.89844 58.8203 2.21094C58.8203 2.50781 58.8151 2.95833 58.8047 3.5625C58.7995 4.16146 58.7969 4.61198 58.7969 4.91406C58.7969 5.16406 58.7839 5.54167 58.7578 6.04688C58.7318 6.55208 58.7188 6.92969 58.7188 7.17969C58.7188 7.98698 58.8125 8.73698 59 9.42969C59.2188 10.2578 59.5391 10.8359 59.9609 11.1641C60.1797 11.3359 60.7005 11.4271 61.5234 11.4375C62.8984 11.4583 63.8255 10.2865 64.3047 7.92188C64.5547 6.69792 64.6797 4.97917 64.6797 2.76562C64.6797 2.47396 64.7656 2.19271 64.9375 1.92188C65.1719 1.5625 65.5052 1.38281 65.9375 1.38281C66.2917 1.38281 66.5573 1.51302 66.7344 1.77344C66.8698 1.96615 66.9375 2.17969 66.9375 2.41406C66.9375 4.47135 66.8411 6.07552 66.6484 7.22656C66.3568 9.0026 65.7812 10.4766 64.9219 11.6484ZM79.4297 2.16406C79.3255 2.54427 79.2734 2.875 79.2734 3.15625C79.2734 3.30208 79.2578 3.52865 79.2266 3.83594C79.2005 4.13802 79.1875 4.36198 79.1875 4.50781C79.1875 5.0026 79.1615 5.73698 79.1094 6.71094C79.0573 7.6849 79.0312 8.41927 79.0312 8.91406C79.0312 9.29427 79.0599 9.86198 79.1172 10.6172C79.1745 11.3724 79.2031 11.9401 79.2031 12.3203C79.2031 12.6068 79.1016 12.849 78.8984 13.0469C78.6953 13.2448 78.4427 13.3438 78.1406 13.3438C77.8333 13.3438 77.5677 13.2448 77.3438 13.0469C77.1198 12.8542 77.0078 12.6172 77.0078 12.3359C77.0078 11.9557 76.9896 11.3854 76.9531 10.625C76.9219 9.86458 76.9062 9.29427 76.9062 8.91406C76.9062 8.61719 76.9115 8.35417 76.9219 8.125C76.1042 8.16146 75.0938 8.28906 73.8906 8.50781C72.8906 8.6901 71.8906 8.875 70.8906 9.0625C70.8802 9.41667 70.8438 10.0078 70.7812 10.8359C70.7292 11.5651 70.7031 12.1615 70.7031 12.625C70.7031 12.9115 70.6016 13.1536 70.3984 13.3516C70.1953 13.5495 69.9427 13.6484 69.6406 13.6484C69.3385 13.6484 69.0859 13.5495 68.8828 13.3516C68.6797 13.1536 68.5781 12.9115 68.5781 12.625C68.5781 12.099 68.6224 11.3125 68.7109 10.2656C68.8047 9.21875 68.8516 8.43229 68.8516 7.90625C68.8516 7.23958 68.8672 6.23698 68.8984 4.89844C68.9297 3.55469 68.9453 2.54948 68.9453 1.88281C68.9453 1.59635 69.0469 1.35417 69.25 1.15625C69.4531 0.958333 69.7057 0.859375 70.0078 0.859375C70.3099 0.859375 70.5625 0.958333 70.7656 1.15625C70.9688 1.35417 71.0703 1.59635 71.0703 1.88281C71.0703 2.27865 71.0547 2.875 71.0234 3.67188C70.9974 4.46354 70.9844 5.05729 70.9844 5.45312C70.9844 5.58333 70.9661 5.83333 70.9297 6.20312C70.8984 6.54688 70.8854 6.8099 70.8906 6.99219L73.8906 6.42969C75.0625 6.22135 76.0729 6.10156 76.9219 6.07031C76.9427 5.72135 76.9766 4.78385 77.0234 3.25781C77.0339 2.85677 77.1562 2.39583 77.3906 1.875C77.6823 1.23438 78.013 0.914062 78.3828 0.914062C78.6589 0.914062 78.9036 1.00521 79.1172 1.1875C79.3464 1.38542 79.4609 1.63281 79.4609 1.92969C79.4609 2.00781 79.4505 2.08594 79.4297 2.16406ZM93.8438 12.6953C92.6302 13.1484 91.0964 13.375 89.2422 13.375C88.9297 13.375 88.6484 13.2448 88.3984 12.9844C88.1536 12.724 88.0312 12.4453 88.0312 12.1484V3.86719C88.0156 3.51302 88.0026 3.15885 87.9922 2.80469C87.9766 2.40365 87.9896 2.0651 88.0312 1.78906C88.1042 1.29948 88.5599 1.0026 89.3984 0.898438C89.7943 0.783854 90.4505 0.726562 91.3672 0.726562C92.3516 0.726562 93.2943 1.04427 94.1953 1.67969C95.2526 2.41927 95.7812 3.34375 95.7812 4.45312C95.7812 5.05208 95.6719 5.55729 95.4531 5.96875C95.2812 6.30208 94.9818 6.65885 94.5547 7.03906C95.0599 7.28385 95.5078 7.65365 95.8984 8.14844C96.3411 8.70052 96.5625 9.25 96.5625 9.79688C96.5625 10.4896 96.1849 11.1458 95.4297 11.7656C94.9245 12.1771 94.3958 12.487 93.8438 12.6953ZM91.3672 2.84375C90.6953 2.84375 90.2917 2.84896 90.1562 2.85938L90.1641 4.51562L90.1562 6.15625C90.6302 6.21354 90.987 6.23177 91.2266 6.21094C92.8203 6.08594 93.6172 5.5 93.6172 4.45312C93.6172 4.08333 93.3828 3.72656 92.9141 3.38281C92.4297 3.02344 91.9141 2.84375 91.3672 2.84375ZM92.2812 8.36719C91.8073 8.36719 91.099 8.34896 90.1562 8.3125V11.2344C91.0521 11.1875 92.0234 11.0156 93.0703 10.7188C93.987 10.4583 94.4401 10.1771 94.4297 9.875C94.4141 9.47396 94.1198 9.11719 93.5469 8.80469C93.099 8.55469 92.6771 8.40885 92.2812 8.36719ZM105.828 13.0938C105.547 13.0938 105.289 12.9844 105.055 12.7656C103.477 11.2865 101.742 10.2604 99.8516 9.6875C99.9089 11.2031 99.9375 12.0443 99.9375 12.2109C99.9375 12.5078 99.8333 12.7604 99.625 12.9688C99.4167 13.1719 99.1562 13.2734 98.8438 13.2734C98.5312 13.2734 98.2708 13.1719 98.0625 12.9688C97.8542 12.7604 97.75 12.5078 97.75 12.2109C97.75 11.8203 97.7552 11.237 97.7656 10.4609C97.776 9.67969 97.7812 9.09375 97.7812 8.70312L97.7969 2.39844C97.7969 2.0599 97.8984 1.7526 98.1016 1.47656C98.3672 1.1224 98.7344 0.963542 99.2031 1C100.469 1.09375 101.117 1.14323 101.148 1.14844C101.878 1.23698 102.497 1.41146 103.008 1.67188C105.232 2.79167 106.344 4.17969 106.344 5.83594C106.344 6.51823 106.109 7.1224 105.641 7.64844C105.177 8.16927 104.479 8.60938 103.547 8.96875C104.927 9.73958 105.966 10.526 106.664 11.3281C106.846 11.5365 106.938 11.7682 106.938 12.0234C106.938 12.3151 106.828 12.5677 106.609 12.7812C106.391 12.9896 106.13 13.0938 105.828 13.0938ZM100.82 3.26562C100.779 3.26042 100.474 3.23958 99.9062 3.20312V7.35156C100.036 7.35677 100.151 7.35938 100.25 7.35938C101.526 7.35938 102.471 7.20052 103.086 6.88281C103.352 6.7474 103.594 6.56771 103.812 6.34375C104.036 6.11979 104.148 5.95052 104.148 5.83594C104.148 5.2526 103.779 4.6901 103.039 4.14844C102.336 3.63802 101.596 3.34375 100.82 3.26562ZM115.945 2.98438C115.841 2.98438 115.732 2.96875 115.617 2.9375C114.773 2.70833 113.953 2.59375 113.156 2.59375C112.766 2.59375 112.346 2.625 111.898 2.6875C111.451 2.75 110.974 2.84375 110.469 2.96875C110.469 3.66146 110.445 4.6901 110.398 6.05469C110.69 6.03385 111.708 5.9375 113.453 5.76562C114.448 5.66667 115.078 5.61719 115.344 5.61719C115.651 5.61719 115.914 5.71615 116.133 5.91406C116.352 6.10677 116.461 6.36458 116.461 6.6875C116.461 7.30729 116.13 7.65885 115.469 7.74219C115.052 7.77344 114.43 7.82552 113.602 7.89844C112.862 7.98177 111.747 8.08333 110.258 8.20312C110.221 8.86458 110.203 9.39844 110.203 9.80469C110.203 10.8255 110.263 11.4062 110.383 11.5469C110.44 11.6146 110.768 11.6484 111.367 11.6484C111.69 11.6484 112.177 11.6406 112.828 11.625C113.479 11.6094 113.966 11.6016 114.289 11.6016C114.393 11.6016 114.547 11.5859 114.75 11.5547C114.953 11.5234 115.104 11.5078 115.203 11.5078C115.505 11.5078 115.763 11.5938 115.977 11.7656C116.221 11.9583 116.344 12.2292 116.344 12.5781C116.344 13.1615 116.039 13.5104 115.43 13.625C114.909 13.724 113.828 13.7734 112.188 13.7734C110.49 13.7734 109.383 13.5443 108.867 13.0859C108.299 12.5807 108.016 11.487 108.016 9.80469C108.016 9.10677 108.065 8.0599 108.164 6.66406C108.268 5.26302 108.32 4.21615 108.32 3.52344C108.32 3.34115 108.294 3.07292 108.242 2.71875C108.19 2.35938 108.164 2.08854 108.164 1.90625C108.164 1.11458 108.529 0.71875 109.258 0.71875C109.487 0.71875 109.698 0.783854 109.891 0.914062C110.495 0.763021 111.068 0.651042 111.609 0.578125C112.156 0.5 112.672 0.460938 113.156 0.460938C114.469 0.460938 115.518 0.611979 116.305 0.914062C116.784 1.09635 117.023 1.42708 117.023 1.90625C117.023 2.17708 116.93 2.41667 116.742 2.625C116.534 2.86458 116.268 2.98438 115.945 2.98438ZM127.047 13.2344C126.635 13.2188 126.221 12.7344 125.805 11.7812C125.529 11.1667 125.292 10.4583 125.094 9.65625C124.708 9.71354 124.078 9.77083 123.203 9.82812C122.38 9.88542 121.75 9.95312 121.312 10.0312C121.073 10.6042 120.656 11.4661 120.062 12.6172C119.833 12.9922 119.516 13.1797 119.109 13.1797C118.823 13.1797 118.565 13.0833 118.336 12.8906C118.107 12.6927 117.992 12.4427 117.992 12.1406C117.992 11.875 118.372 10.974 119.133 9.4375C119.06 9.27604 119.029 9.125 119.039 8.98438C119.06 8.73438 119.312 8.53906 119.797 8.39844C120.536 7.11719 121.359 5.78906 122.266 4.41406C123.568 2.4401 124.37 1.45312 124.672 1.45312C125.245 1.45312 125.628 1.79948 125.82 2.49219C125.924 3.04948 126.089 3.88542 126.312 5C126.63 6.5 127.018 8.21615 127.477 10.1484C127.513 10.2943 127.646 10.638 127.875 11.1797C128.062 11.6276 128.156 11.9635 128.156 12.1875C128.156 12.4896 128.042 12.7422 127.812 12.9453C127.589 13.1484 127.333 13.2448 127.047 13.2344ZM124.133 5.21875C123.727 5.91667 123.167 6.86719 122.453 8.07031C122.688 8.01823 123.052 7.97656 123.547 7.94531C124.13 7.90885 124.497 7.88021 124.648 7.85938C124.523 7.18229 124.352 6.30208 124.133 5.21875ZM132.07 9.53906L132.062 12.8281C132.062 13.0573 131.997 13.2682 131.867 13.4609C131.685 13.7266 131.419 13.8594 131.07 13.8594C130.659 13.8594 130.336 13.6927 130.102 13.3594C129.919 13.099 129.828 12.8203 129.828 12.5234C129.828 11.3672 129.865 9.63021 129.938 7.3125C130.01 4.99479 130.047 3.25781 130.047 2.10156C130.047 1.8099 130.151 1.5599 130.359 1.35156C130.568 1.14323 130.828 1.03906 131.141 1.03906C131.453 1.03906 131.711 1.14323 131.914 1.35156C132.122 1.5599 132.227 1.8099 132.227 2.10156C132.227 2.57031 132.203 3.20312 132.156 4C132.099 4.92708 132.065 5.5599 132.055 5.89844C132.419 5.55469 133.771 4.10677 136.109 1.55469C136.349 1.29427 136.625 1.16406 136.938 1.16406C137.234 1.16406 137.492 1.26823 137.711 1.47656C137.935 1.6849 138.047 1.9375 138.047 2.23438C138.047 2.55729 137.427 3.39583 136.188 4.75C135.271 5.74479 134.305 6.72656 133.289 7.69531C133.857 8.23177 134.427 8.76823 135 9.30469C135.667 9.91927 136.266 10.4245 136.797 10.8203C137.062 11.013 137.349 11.1589 137.656 11.2578C138.214 11.4349 138.492 11.776 138.492 12.2812C138.492 12.5052 138.422 12.7214 138.281 12.9297C138.089 13.2109 137.82 13.3516 137.477 13.3516C136.732 13.3516 135.766 12.8646 134.578 11.8906C134.224 11.599 133.388 10.8151 132.07 9.53906ZM155.828 3.63281C155.422 3.63281 154.789 3.60417 153.93 3.54688C153.102 3.48958 152.469 3.46354 152.031 3.46875C152.052 4.0625 152.122 5.11979 152.242 6.64062C152.352 7.98438 152.406 9.04688 152.406 9.82812C152.406 10.0052 152.424 10.2682 152.461 10.6172C152.497 10.9661 152.516 11.2292 152.516 11.4062C152.516 11.7969 152.432 12.1484 152.266 12.4609C152.052 12.862 151.747 13.0625 151.352 13.0625C151.065 13.0625 150.812 12.9714 150.594 12.7891C150.349 12.5859 150.227 12.3307 150.227 12.0234C150.227 11.9505 150.24 11.8411 150.266 11.6953C150.292 11.5443 150.305 11.4297 150.305 11.3516C150.305 11.112 150.286 10.75 150.25 10.2656C150.219 9.78125 150.203 9.41667 150.203 9.17188C150.203 8.47396 150.148 7.52865 150.039 6.33594C149.914 4.96615 149.841 4.02083 149.82 3.5H149.414C148.253 3.5 147.331 3.41667 146.648 3.25C146.07 3.10938 145.781 2.76823 145.781 2.22656C145.781 1.96094 145.875 1.72135 146.062 1.50781C146.281 1.2526 146.568 1.13802 146.922 1.16406C147.104 1.17448 147.518 1.21875 148.164 1.29688C148.68 1.35417 149.096 1.38281 149.414 1.38281C149.732 1.38281 150.206 1.3776 150.836 1.36719C151.471 1.35677 151.948 1.35156 152.266 1.35156C152.661 1.35156 153.255 1.38021 154.047 1.4375C154.839 1.48958 155.432 1.51562 155.828 1.51562C156.141 1.51562 156.401 1.61719 156.609 1.82031C156.823 2.02344 156.93 2.27344 156.93 2.57031C156.93 2.86719 156.823 3.11979 156.609 3.32812C156.401 3.53125 156.141 3.63281 155.828 3.63281ZM168.57 2.16406C168.466 2.54427 168.414 2.875 168.414 3.15625C168.414 3.30208 168.398 3.52865 168.367 3.83594C168.341 4.13802 168.328 4.36198 168.328 4.50781C168.328 5.0026 168.302 5.73698 168.25 6.71094C168.198 7.6849 168.172 8.41927 168.172 8.91406C168.172 9.29427 168.201 9.86198 168.258 10.6172C168.315 11.3724 168.344 11.9401 168.344 12.3203C168.344 12.6068 168.242 12.849 168.039 13.0469C167.836 13.2448 167.583 13.3438 167.281 13.3438C166.974 13.3438 166.708 13.2448 166.484 13.0469C166.26 12.8542 166.148 12.6172 166.148 12.3359C166.148 11.9557 166.13 11.3854 166.094 10.625C166.062 9.86458 166.047 9.29427 166.047 8.91406C166.047 8.61719 166.052 8.35417 166.062 8.125C165.245 8.16146 164.234 8.28906 163.031 8.50781C162.031 8.6901 161.031 8.875 160.031 9.0625C160.021 9.41667 159.984 10.0078 159.922 10.8359C159.87 11.5651 159.844 12.1615 159.844 12.625C159.844 12.9115 159.742 13.1536 159.539 13.3516C159.336 13.5495 159.083 13.6484 158.781 13.6484C158.479 13.6484 158.227 13.5495 158.023 13.3516C157.82 13.1536 157.719 12.9115 157.719 12.625C157.719 12.099 157.763 11.3125 157.852 10.2656C157.945 9.21875 157.992 8.43229 157.992 7.90625C157.992 7.23958 158.008 6.23698 158.039 4.89844C158.07 3.55469 158.086 2.54948 158.086 1.88281C158.086 1.59635 158.188 1.35417 158.391 1.15625C158.594 0.958333 158.846 0.859375 159.148 0.859375C159.451 0.859375 159.703 0.958333 159.906 1.15625C160.109 1.35417 160.211 1.59635 160.211 1.88281C160.211 2.27865 160.195 2.875 160.164 3.67188C160.138 4.46354 160.125 5.05729 160.125 5.45312C160.125 5.58333 160.107 5.83333 160.07 6.20312C160.039 6.54688 160.026 6.8099 160.031 6.99219L163.031 6.42969C164.203 6.22135 165.214 6.10156 166.062 6.07031C166.083 5.72135 166.117 4.78385 166.164 3.25781C166.174 2.85677 166.297 2.39583 166.531 1.875C166.823 1.23438 167.154 0.914062 167.523 0.914062C167.799 0.914062 168.044 1.00521 168.258 1.1875C168.487 1.38542 168.602 1.63281 168.602 1.92969C168.602 2.00781 168.591 2.08594 168.57 2.16406ZM177.938 13.0938C177.656 13.0938 177.398 12.9844 177.164 12.7656C175.586 11.2865 173.852 10.2604 171.961 9.6875C172.018 11.2031 172.047 12.0443 172.047 12.2109C172.047 12.5078 171.943 12.7604 171.734 12.9688C171.526 13.1719 171.266 13.2734 170.953 13.2734C170.641 13.2734 170.38 13.1719 170.172 12.9688C169.964 12.7604 169.859 12.5078 169.859 12.2109C169.859 11.8203 169.865 11.237 169.875 10.4609C169.885 9.67969 169.891 9.09375 169.891 8.70312L169.906 2.39844C169.906 2.0599 170.008 1.7526 170.211 1.47656C170.477 1.1224 170.844 0.963542 171.312 1C172.578 1.09375 173.227 1.14323 173.258 1.14844C173.987 1.23698 174.607 1.41146 175.117 1.67188C177.341 2.79167 178.453 4.17969 178.453 5.83594C178.453 6.51823 178.219 7.1224 177.75 7.64844C177.286 8.16927 176.589 8.60938 175.656 8.96875C177.036 9.73958 178.076 10.526 178.773 11.3281C178.956 11.5365 179.047 11.7682 179.047 12.0234C179.047 12.3151 178.938 12.5677 178.719 12.7812C178.5 12.9896 178.24 13.0938 177.938 13.0938ZM172.93 3.26562C172.888 3.26042 172.583 3.23958 172.016 3.20312V7.35156C172.146 7.35677 172.26 7.35938 172.359 7.35938C173.635 7.35938 174.581 7.20052 175.195 6.88281C175.461 6.7474 175.703 6.56771 175.922 6.34375C176.146 6.11979 176.258 5.95052 176.258 5.83594C176.258 5.2526 175.888 4.6901 175.148 4.14844C174.445 3.63802 173.706 3.34375 172.93 3.26562ZM185.531 13.4766C183.99 13.4766 182.677 13.0339 181.594 12.1484C180.438 11.2005 179.859 9.97396 179.859 8.46875C179.859 6.69792 180.414 5.08333 181.523 3.625C182.768 1.98438 184.336 1.16406 186.227 1.16406C188.044 1.16406 189.406 1.58073 190.312 2.41406C191.219 3.2474 191.672 4.5 191.672 6.17188C191.672 7.94271 191.161 9.54688 190.141 10.9844C188.964 12.6458 187.427 13.4766 185.531 13.4766ZM186.227 3.28125C185.065 3.28125 184.07 3.84375 183.242 4.96875C182.466 6.02083 182.078 7.1875 182.078 8.46875C182.078 9.33333 182.414 10.0365 183.086 10.5781C183.732 11.099 184.547 11.3594 185.531 11.3594C186.677 11.3594 187.633 10.7969 188.398 9.67188C189.102 8.64583 189.453 7.47917 189.453 6.17188C189.453 5.07812 189.208 4.31771 188.719 3.89062C188.25 3.48438 187.419 3.28125 186.227 3.28125ZM201.188 11.6484C200.807 12.1641 200.349 12.5938 199.812 12.9375C199.156 13.3542 198.482 13.5625 197.789 13.5625C196.461 13.5625 195.474 13.3073 194.828 12.7969C193.464 11.7188 192.781 9.84635 192.781 7.17969C192.781 6.92448 192.794 6.54427 192.82 6.03906C192.846 5.53385 192.859 5.15365 192.859 4.89844C192.859 4.69531 192.865 4.39323 192.875 3.99219C192.885 3.58594 192.891 3.28125 192.891 3.07812C192.891 2.66146 192.966 2.26823 193.117 1.89844C193.32 1.40885 193.604 1.16406 193.969 1.16406C194.255 1.16406 194.508 1.25781 194.727 1.44531C194.966 1.64323 195.086 1.89844 195.086 2.21094C195.086 2.50781 195.081 2.95833 195.07 3.5625C195.065 4.16146 195.062 4.61198 195.062 4.91406C195.062 5.16406 195.049 5.54167 195.023 6.04688C194.997 6.55208 194.984 6.92969 194.984 7.17969C194.984 7.98698 195.078 8.73698 195.266 9.42969C195.484 10.2578 195.805 10.8359 196.227 11.1641C196.445 11.3359 196.966 11.4271 197.789 11.4375C199.164 11.4583 200.091 10.2865 200.57 7.92188C200.82 6.69792 200.945 4.97917 200.945 2.76562C200.945 2.47396 201.031 2.19271 201.203 1.92188C201.438 1.5625 201.771 1.38281 202.203 1.38281C202.557 1.38281 202.823 1.51302 203 1.77344C203.135 1.96615 203.203 2.17969 203.203 2.41406C203.203 4.47135 203.107 6.07552 202.914 7.22656C202.622 9.0026 202.047 10.4766 201.188 11.6484ZM214.398 8.40625C214.044 9.95833 213.331 11.2005 212.258 12.1328C211.169 13.0703 209.893 13.5391 208.43 13.5391C207.044 13.5391 206.005 13.1745 205.312 12.4453C204.62 11.7109 204.273 10.612 204.273 9.14844C204.273 7.8151 204.602 6.44792 205.258 5.04688C205.914 3.64583 206.758 2.51042 207.789 1.64062C208.513 1.03125 209.289 0.726562 210.117 0.726562C210.622 0.726562 211.31 0.908854 212.18 1.27344C213.211 1.70573 213.727 2.16667 213.727 2.65625C213.727 2.9375 213.62 3.1901 213.406 3.41406C213.193 3.63281 212.93 3.74219 212.617 3.74219C212.461 3.74219 212.115 3.59635 211.578 3.30469C211.047 3.00781 210.56 2.85938 210.117 2.85938C209.648 2.85938 209.016 3.36458 208.219 4.375C207.057 5.84375 206.477 7.4349 206.477 9.14844C206.477 10.0182 206.604 10.6094 206.859 10.9219C207.13 11.25 207.654 11.4141 208.43 11.4141C209.227 11.4141 209.927 11.1875 210.531 10.7344C211.172 10.2552 211.646 9.55729 211.953 8.64062C210.745 8.73438 209.693 8.98177 208.797 9.38281C208.635 9.45573 208.474 9.49219 208.312 9.49219C207.99 9.49219 207.721 9.3724 207.508 9.13281C207.315 8.91927 207.219 8.67708 207.219 8.40625C207.219 7.60938 208.161 7.05208 210.047 6.73438C211.109 6.55729 212.349 6.46875 213.766 6.46875C214.078 6.46875 214.339 6.57031 214.547 6.77344C214.76 6.97656 214.867 7.22656 214.867 7.52344C214.867 7.90365 214.711 8.19792 214.398 8.40625ZM226.57 2.16406C226.466 2.54427 226.414 2.875 226.414 3.15625C226.414 3.30208 226.398 3.52865 226.367 3.83594C226.341 4.13802 226.328 4.36198 226.328 4.50781C226.328 5.0026 226.302 5.73698 226.25 6.71094C226.198 7.6849 226.172 8.41927 226.172 8.91406C226.172 9.29427 226.201 9.86198 226.258 10.6172C226.315 11.3724 226.344 11.9401 226.344 12.3203C226.344 12.6068 226.242 12.849 226.039 13.0469C225.836 13.2448 225.583 13.3438 225.281 13.3438C224.974 13.3438 224.708 13.2448 224.484 13.0469C224.26 12.8542 224.148 12.6172 224.148 12.3359C224.148 11.9557 224.13 11.3854 224.094 10.625C224.062 9.86458 224.047 9.29427 224.047 8.91406C224.047 8.61719 224.052 8.35417 224.062 8.125C223.245 8.16146 222.234 8.28906 221.031 8.50781C220.031 8.6901 219.031 8.875 218.031 9.0625C218.021 9.41667 217.984 10.0078 217.922 10.8359C217.87 11.5651 217.844 12.1615 217.844 12.625C217.844 12.9115 217.742 13.1536 217.539 13.3516C217.336 13.5495 217.083 13.6484 216.781 13.6484C216.479 13.6484 216.227 13.5495 216.023 13.3516C215.82 13.1536 215.719 12.9115 215.719 12.625C215.719 12.099 215.763 11.3125 215.852 10.2656C215.945 9.21875 215.992 8.43229 215.992 7.90625C215.992 7.23958 216.008 6.23698 216.039 4.89844C216.07 3.55469 216.086 2.54948 216.086 1.88281C216.086 1.59635 216.188 1.35417 216.391 1.15625C216.594 0.958333 216.846 0.859375 217.148 0.859375C217.451 0.859375 217.703 0.958333 217.906 1.15625C218.109 1.35417 218.211 1.59635 218.211 1.88281C218.211 2.27865 218.195 2.875 218.164 3.67188C218.138 4.46354 218.125 5.05729 218.125 5.45312C218.125 5.58333 218.107 5.83333 218.07 6.20312C218.039 6.54688 218.026 6.8099 218.031 6.99219L221.031 6.42969C222.203 6.22135 223.214 6.10156 224.062 6.07031C224.083 5.72135 224.117 4.78385 224.164 3.25781C224.174 2.85677 224.297 2.39583 224.531 1.875C224.823 1.23438 225.154 0.914062 225.523 0.914062C225.799 0.914062 226.044 1.00521 226.258 1.1875C226.487 1.38542 226.602 1.63281 226.602 1.92969C226.602 2.00781 226.591 2.08594 226.57 2.16406ZM244.203 3.63281C243.797 3.63281 243.164 3.60417 242.305 3.54688C241.477 3.48958 240.844 3.46354 240.406 3.46875C240.427 4.0625 240.497 5.11979 240.617 6.64062C240.727 7.98438 240.781 9.04688 240.781 9.82812C240.781 10.0052 240.799 10.2682 240.836 10.6172C240.872 10.9661 240.891 11.2292 240.891 11.4062C240.891 11.7969 240.807 12.1484 240.641 12.4609C240.427 12.862 240.122 13.0625 239.727 13.0625C239.44 13.0625 239.188 12.9714 238.969 12.7891C238.724 12.5859 238.602 12.3307 238.602 12.0234C238.602 11.9505 238.615 11.8411 238.641 11.6953C238.667 11.5443 238.68 11.4297 238.68 11.3516C238.68 11.112 238.661 10.75 238.625 10.2656C238.594 9.78125 238.578 9.41667 238.578 9.17188C238.578 8.47396 238.523 7.52865 238.414 6.33594C238.289 4.96615 238.216 4.02083 238.195 3.5H237.789C236.628 3.5 235.706 3.41667 235.023 3.25C234.445 3.10938 234.156 2.76823 234.156 2.22656C234.156 1.96094 234.25 1.72135 234.438 1.50781C234.656 1.2526 234.943 1.13802 235.297 1.16406C235.479 1.17448 235.893 1.21875 236.539 1.29688C237.055 1.35417 237.471 1.38281 237.789 1.38281C238.107 1.38281 238.581 1.3776 239.211 1.36719C239.846 1.35677 240.323 1.35156 240.641 1.35156C241.036 1.35156 241.63 1.38021 242.422 1.4375C243.214 1.48958 243.807 1.51562 244.203 1.51562C244.516 1.51562 244.776 1.61719 244.984 1.82031C245.198 2.02344 245.305 2.27344 245.305 2.57031C245.305 2.86719 245.198 3.11979 244.984 3.32812C244.776 3.53125 244.516 3.63281 244.203 3.63281ZM253.883 2.98438C253.779 2.98438 253.669 2.96875 253.555 2.9375C252.711 2.70833 251.891 2.59375 251.094 2.59375C250.703 2.59375 250.284 2.625 249.836 2.6875C249.388 2.75 248.911 2.84375 248.406 2.96875C248.406 3.66146 248.383 4.6901 248.336 6.05469C248.628 6.03385 249.646 5.9375 251.391 5.76562C252.385 5.66667 253.016 5.61719 253.281 5.61719C253.589 5.61719 253.852 5.71615 254.07 5.91406C254.289 6.10677 254.398 6.36458 254.398 6.6875C254.398 7.30729 254.068 7.65885 253.406 7.74219C252.99 7.77344 252.367 7.82552 251.539 7.89844C250.799 7.98177 249.685 8.08333 248.195 8.20312C248.159 8.86458 248.141 9.39844 248.141 9.80469C248.141 10.8255 248.201 11.4062 248.32 11.5469C248.378 11.6146 248.706 11.6484 249.305 11.6484C249.628 11.6484 250.115 11.6406 250.766 11.625C251.417 11.6094 251.904 11.6016 252.227 11.6016C252.331 11.6016 252.484 11.5859 252.688 11.5547C252.891 11.5234 253.042 11.5078 253.141 11.5078C253.443 11.5078 253.701 11.5938 253.914 11.7656C254.159 11.9583 254.281 12.2292 254.281 12.5781C254.281 13.1615 253.977 13.5104 253.367 13.625C252.846 13.724 251.766 13.7734 250.125 13.7734C248.427 13.7734 247.32 13.5443 246.805 13.0859C246.237 12.5807 245.953 11.487 245.953 9.80469C245.953 9.10677 246.003 8.0599 246.102 6.66406C246.206 5.26302 246.258 4.21615 246.258 3.52344C246.258 3.34115 246.232 3.07292 246.18 2.71875C246.128 2.35938 246.102 2.08854 246.102 1.90625C246.102 1.11458 246.466 0.71875 247.195 0.71875C247.424 0.71875 247.635 0.783854 247.828 0.914062C248.432 0.763021 249.005 0.651042 249.547 0.578125C250.094 0.5 250.609 0.460938 251.094 0.460938C252.406 0.460938 253.456 0.611979 254.242 0.914062C254.721 1.09635 254.961 1.42708 254.961 1.90625C254.961 2.17708 254.867 2.41667 254.68 2.625C254.471 2.86458 254.206 2.98438 253.883 2.98438ZM263.844 4.67969C263.375 4.67969 263.029 4.43229 262.805 3.9375C262.701 3.70312 262.596 3.5625 262.492 3.51562C262.414 3.47917 262.208 3.46094 261.875 3.46094C261.219 3.46094 260.461 3.97135 259.602 4.99219C258.398 6.41927 257.797 7.75521 257.797 9C257.797 9.56771 257.987 10.0547 258.367 10.4609C258.747 10.8672 259.203 11.0703 259.734 11.0703C260.25 11.0703 260.773 10.9349 261.305 10.6641C261.492 10.5651 261.888 10.3099 262.492 9.89844C262.898 9.6276 263.206 9.49219 263.414 9.49219C263.727 9.49219 263.992 9.60677 264.211 9.83594C264.414 10.0495 264.516 10.2943 264.516 10.5703C264.516 10.8776 264.38 11.1458 264.109 11.375C262.677 12.5833 261.219 13.1875 259.734 13.1875C258.562 13.1875 257.573 12.7604 256.766 11.9062C255.995 11.0833 255.609 10.1146 255.609 9C255.609 7.25521 256.372 5.47396 257.898 3.65625C259.195 2.11458 260.521 1.34375 261.875 1.34375C262.104 1.34375 262.31 1.35156 262.492 1.36719C262.68 1.38281 262.844 1.40625 262.984 1.4375C263.214 1.21354 263.49 1.10156 263.812 1.10156C264.344 1.10156 264.672 1.40625 264.797 2.01562C264.885 2.45312 264.93 2.96354 264.93 3.54688C264.93 3.80729 264.854 4.04427 264.703 4.25781C264.505 4.53906 264.219 4.67969 263.844 4.67969ZM276.852 2.16406C276.747 2.54427 276.695 2.875 276.695 3.15625C276.695 3.30208 276.68 3.52865 276.648 3.83594C276.622 4.13802 276.609 4.36198 276.609 4.50781C276.609 5.0026 276.583 5.73698 276.531 6.71094C276.479 7.6849 276.453 8.41927 276.453 8.91406C276.453 9.29427 276.482 9.86198 276.539 10.6172C276.596 11.3724 276.625 11.9401 276.625 12.3203C276.625 12.6068 276.523 12.849 276.32 13.0469C276.117 13.2448 275.865 13.3438 275.562 13.3438C275.255 13.3438 274.99 13.2448 274.766 13.0469C274.542 12.8542 274.43 12.6172 274.43 12.3359C274.43 11.9557 274.411 11.3854 274.375 10.625C274.344 9.86458 274.328 9.29427 274.328 8.91406C274.328 8.61719 274.333 8.35417 274.344 8.125C273.526 8.16146 272.516 8.28906 271.312 8.50781C270.312 8.6901 269.312 8.875 268.312 9.0625C268.302 9.41667 268.266 10.0078 268.203 10.8359C268.151 11.5651 268.125 12.1615 268.125 12.625C268.125 12.9115 268.023 13.1536 267.82 13.3516C267.617 13.5495 267.365 13.6484 267.062 13.6484C266.76 13.6484 266.508 13.5495 266.305 13.3516C266.102 13.1536 266 12.9115 266 12.625C266 12.099 266.044 11.3125 266.133 10.2656C266.227 9.21875 266.273 8.43229 266.273 7.90625C266.273 7.23958 266.289 6.23698 266.32 4.89844C266.352 3.55469 266.367 2.54948 266.367 1.88281C266.367 1.59635 266.469 1.35417 266.672 1.15625C266.875 0.958333 267.128 0.859375 267.43 0.859375C267.732 0.859375 267.984 0.958333 268.188 1.15625C268.391 1.35417 268.492 1.59635 268.492 1.88281C268.492 2.27865 268.477 2.875 268.445 3.67188C268.419 4.46354 268.406 5.05729 268.406 5.45312C268.406 5.58333 268.388 5.83333 268.352 6.20312C268.32 6.54688 268.307 6.8099 268.312 6.99219L271.312 6.42969C272.484 6.22135 273.495 6.10156 274.344 6.07031C274.365 5.72135 274.398 4.78385 274.445 3.25781C274.456 2.85677 274.578 2.39583 274.812 1.875C275.104 1.23438 275.435 0.914062 275.805 0.914062C276.081 0.914062 276.326 1.00521 276.539 1.1875C276.768 1.38542 276.883 1.63281 276.883 1.92969C276.883 2.00781 276.872 2.08594 276.852 2.16406ZM289.773 11.0781C289.773 11.3385 289.729 11.75 289.641 12.3125C289.536 12.9844 289.156 13.3203 288.5 13.3203C288.135 13.3203 287.724 13.1146 287.266 12.7031C285.26 10.8958 282.997 8.36198 280.477 5.10156C280.445 6.45573 280.43 7.28646 280.43 7.59375C280.43 8.00521 280.438 8.625 280.453 9.45312C280.474 10.2812 280.484 10.901 280.484 11.3125C280.484 12.849 280.109 13.6172 279.359 13.6172C278.979 13.6172 278.674 13.5 278.445 13.2656C278.242 13.0573 278.141 12.8047 278.141 12.5078C278.141 12.2995 278.156 11.9844 278.188 11.5625C278.224 11.1406 278.242 10.8255 278.242 10.6172C278.242 10.3099 278.253 9.84896 278.273 9.23438C278.294 8.61979 278.305 8.15885 278.305 7.85156C278.305 7.52344 278.297 7.02865 278.281 6.36719C278.266 5.70573 278.258 5.21094 278.258 4.88281C278.258 4.57031 278.227 4.10417 278.164 3.48438C278.102 2.86458 278.07 2.39844 278.07 2.08594C278.07 1.77344 278.203 1.49479 278.469 1.25C278.74 1.00521 279.047 0.882812 279.391 0.882812C279.776 0.882812 280.203 1.21615 280.672 1.88281C283.036 5.25781 285.37 8.01042 287.672 10.1406C287.677 9.97396 287.68 9.57812 287.68 8.95312C287.68 6.38542 287.654 4.65365 287.602 3.75781C287.591 3.60677 287.557 3.32552 287.5 2.91406C287.448 2.54948 287.422 2.26302 287.422 2.05469C287.422 1.33594 287.802 0.976562 288.562 0.976562C289.411 0.976562 289.836 2.28646 289.836 4.90625C289.836 4.96354 289.831 5.375 289.82 6.14062C289.789 8.78646 289.773 10.4323 289.773 11.0781ZM296.578 13.4766C295.036 13.4766 293.724 13.0339 292.641 12.1484C291.484 11.2005 290.906 9.97396 290.906 8.46875C290.906 6.69792 291.461 5.08333 292.57 3.625C293.815 1.98438 295.383 1.16406 297.273 1.16406C299.091 1.16406 300.453 1.58073 301.359 2.41406C302.266 3.2474 302.719 4.5 302.719 6.17188C302.719 7.94271 302.208 9.54688 301.188 10.9844C300.01 12.6458 298.474 13.4766 296.578 13.4766ZM297.273 3.28125C296.112 3.28125 295.117 3.84375 294.289 4.96875C293.513 6.02083 293.125 7.1875 293.125 8.46875C293.125 9.33333 293.461 10.0365 294.133 10.5781C294.779 11.099 295.594 11.3594 296.578 11.3594C297.724 11.3594 298.68 10.7969 299.445 9.67188C300.148 8.64583 300.5 7.47917 300.5 6.17188C300.5 5.07812 300.255 4.31771 299.766 3.89062C299.297 3.48438 298.466 3.28125 297.273 3.28125ZM311.359 12.7031C310.745 12.974 309.794 13.2161 308.508 13.4297C307.331 13.6276 306.365 13.7266 305.609 13.7266C304.333 13.7266 303.695 13.1667 303.695 12.0469C303.695 12.1354 303.747 11.3099 303.852 9.57031C303.987 7.3099 304.055 4.79427 304.055 2.02344C304.055 1.72656 304.156 1.47396 304.359 1.26562C304.568 1.05729 304.828 0.953125 305.141 0.953125C305.453 0.953125 305.714 1.05729 305.922 1.26562C306.13 1.47396 306.234 1.72656 306.234 2.02344C306.234 4.79948 306.164 7.35677 306.023 9.69531C305.977 10.112 305.927 10.75 305.875 11.6094C307.109 11.5885 308.693 11.2865 310.625 10.7031C310.745 10.6667 310.859 10.6484 310.969 10.6484C311.297 10.6484 311.562 10.7682 311.766 11.0078C311.948 11.2214 312.039 11.4609 312.039 11.7266C312.039 12.1745 311.812 12.5 311.359 12.7031ZM318.172 13.4766C316.63 13.4766 315.318 13.0339 314.234 12.1484C313.078 11.2005 312.5 9.97396 312.5 8.46875C312.5 6.69792 313.055 5.08333 314.164 3.625C315.409 1.98438 316.977 1.16406 318.867 1.16406C320.685 1.16406 322.047 1.58073 322.953 2.41406C323.859 3.2474 324.312 4.5 324.312 6.17188C324.312 7.94271 323.802 9.54688 322.781 10.9844C321.604 12.6458 320.068 13.4766 318.172 13.4766ZM318.867 3.28125C317.706 3.28125 316.711 3.84375 315.883 4.96875C315.107 6.02083 314.719 7.1875 314.719 8.46875C314.719 9.33333 315.055 10.0365 315.727 10.5781C316.372 11.099 317.188 11.3594 318.172 11.3594C319.318 11.3594 320.273 10.7969 321.039 9.67188C321.742 8.64583 322.094 7.47917 322.094 6.17188C322.094 5.07812 321.849 4.31771 321.359 3.89062C320.891 3.48438 320.06 3.28125 318.867 3.28125ZM334.164 3.40625C334.07 3.40625 333.922 3.39844 333.719 3.38281C333.516 3.36198 333.352 3.35156 333.227 3.35156H332.617C332.612 3.26302 332.609 3.44792 332.609 3.90625C332.609 7.63542 332.346 10.3516 331.82 12.0547C331.435 13.3099 330.734 13.9375 329.719 13.9375C328.75 13.9375 327.792 13.6042 326.844 12.9375C325.771 12.1927 325.234 11.3177 325.234 10.3125C325.234 9.5 325.602 9.09375 326.336 9.09375C327.07 9.09375 327.438 9.49479 327.438 10.2969C327.438 10.6042 327.701 10.9349 328.227 11.2891C328.758 11.638 329.255 11.8125 329.719 11.8125C329.906 11.8125 330.042 11.4661 330.125 10.7734C330.146 10.6068 330.203 9.79688 330.297 8.34375C330.375 7.15625 330.414 5.67708 330.414 3.90625C330.414 3.83333 330.406 3.66406 330.391 3.39844L330.211 3.40625C329.982 3.41667 329.674 3.41406 329.289 3.39844C328.826 3.3776 328.518 3.36719 328.367 3.36719C328.06 3.36719 327.799 3.27344 327.586 3.08594C327.357 2.88281 327.242 2.61979 327.242 2.29688C327.242 1.58854 327.708 1.23438 328.641 1.23438C328.818 1.23438 329.081 1.24219 329.43 1.25781C329.779 1.26823 330.039 1.27344 330.211 1.27344C330.539 1.27344 331.029 1.25521 331.68 1.21875C332.336 1.18229 332.828 1.16406 333.156 1.16406C334.552 1.16406 335.25 1.55208 335.25 2.32812C335.25 2.59896 335.156 2.84115 334.969 3.05469C334.755 3.28906 334.487 3.40625 334.164 3.40625ZM344.117 2.98438C344.013 2.98438 343.904 2.96875 343.789 2.9375C342.945 2.70833 342.125 2.59375 341.328 2.59375C340.938 2.59375 340.518 2.625 340.07 2.6875C339.622 2.75 339.146 2.84375 338.641 2.96875C338.641 3.66146 338.617 4.6901 338.57 6.05469C338.862 6.03385 339.88 5.9375 341.625 5.76562C342.62 5.66667 343.25 5.61719 343.516 5.61719C343.823 5.61719 344.086 5.71615 344.305 5.91406C344.523 6.10677 344.633 6.36458 344.633 6.6875C344.633 7.30729 344.302 7.65885 343.641 7.74219C343.224 7.77344 342.602 7.82552 341.773 7.89844C341.034 7.98177 339.919 8.08333 338.43 8.20312C338.393 8.86458 338.375 9.39844 338.375 9.80469C338.375 10.8255 338.435 11.4062 338.555 11.5469C338.612 11.6146 338.94 11.6484 339.539 11.6484C339.862 11.6484 340.349 11.6406 341 11.625C341.651 11.6094 342.138 11.6016 342.461 11.6016C342.565 11.6016 342.719 11.5859 342.922 11.5547C343.125 11.5234 343.276 11.5078 343.375 11.5078C343.677 11.5078 343.935 11.5938 344.148 11.7656C344.393 11.9583 344.516 12.2292 344.516 12.5781C344.516 13.1615 344.211 13.5104 343.602 13.625C343.081 13.724 342 13.7734 340.359 13.7734C338.661 13.7734 337.555 13.5443 337.039 13.0859C336.471 12.5807 336.188 11.487 336.188 9.80469C336.188 9.10677 336.237 8.0599 336.336 6.66406C336.44 5.26302 336.492 4.21615 336.492 3.52344C336.492 3.34115 336.466 3.07292 336.414 2.71875C336.362 2.35938 336.336 2.08854 336.336 1.90625C336.336 1.11458 336.701 0.71875 337.43 0.71875C337.659 0.71875 337.87 0.783854 338.062 0.914062C338.667 0.763021 339.24 0.651042 339.781 0.578125C340.328 0.5 340.844 0.460938 341.328 0.460938C342.641 0.460938 343.69 0.611979 344.477 0.914062C344.956 1.09635 345.195 1.42708 345.195 1.90625C345.195 2.17708 345.102 2.41667 344.914 2.625C344.706 2.86458 344.44 2.98438 344.117 2.98438ZM354.117 2.98438C354.013 2.98438 353.904 2.96875 353.789 2.9375C352.945 2.70833 352.125 2.59375 351.328 2.59375C350.938 2.59375 350.518 2.625 350.07 2.6875C349.622 2.75 349.146 2.84375 348.641 2.96875C348.641 3.66146 348.617 4.6901 348.57 6.05469C348.862 6.03385 349.88 5.9375 351.625 5.76562C352.62 5.66667 353.25 5.61719 353.516 5.61719C353.823 5.61719 354.086 5.71615 354.305 5.91406C354.523 6.10677 354.633 6.36458 354.633 6.6875C354.633 7.30729 354.302 7.65885 353.641 7.74219C353.224 7.77344 352.602 7.82552 351.773 7.89844C351.034 7.98177 349.919 8.08333 348.43 8.20312C348.393 8.86458 348.375 9.39844 348.375 9.80469C348.375 10.8255 348.435 11.4062 348.555 11.5469C348.612 11.6146 348.94 11.6484 349.539 11.6484C349.862 11.6484 350.349 11.6406 351 11.625C351.651 11.6094 352.138 11.6016 352.461 11.6016C352.565 11.6016 352.719 11.5859 352.922 11.5547C353.125 11.5234 353.276 11.5078 353.375 11.5078C353.677 11.5078 353.935 11.5938 354.148 11.7656C354.393 11.9583 354.516 12.2292 354.516 12.5781C354.516 13.1615 354.211 13.5104 353.602 13.625C353.081 13.724 352 13.7734 350.359 13.7734C348.661 13.7734 347.555 13.5443 347.039 13.0859C346.471 12.5807 346.188 11.487 346.188 9.80469C346.188 9.10677 346.237 8.0599 346.336 6.66406C346.44 5.26302 346.492 4.21615 346.492 3.52344C346.492 3.34115 346.466 3.07292 346.414 2.71875C346.362 2.35938 346.336 2.08854 346.336 1.90625C346.336 1.11458 346.701 0.71875 347.43 0.71875C347.659 0.71875 347.87 0.783854 348.062 0.914062C348.667 0.763021 349.24 0.651042 349.781 0.578125C350.328 0.5 350.844 0.460938 351.328 0.460938C352.641 0.460938 353.69 0.611979 354.477 0.914062C354.956 1.09635 355.195 1.42708 355.195 1.90625C355.195 2.17708 355.102 2.41667 354.914 2.625C354.706 2.86458 354.44 2.98438 354.117 2.98438ZM365.406 3.66406C365.12 3.84115 364.768 4.06771 364.352 4.34375C363.471 4.99479 362.43 6.11458 361.227 7.70312C360.305 8.94271 359.383 10.1849 358.461 11.4297L358.43 11.4688C358.81 11.4583 359.727 11.4219 361.18 11.3594C362.32 11.3073 363.229 11.2812 363.906 11.2812C364.651 11.2812 365.156 11.3099 365.422 11.3672C366.047 11.5026 366.37 11.8021 366.391 12.2656C366.406 12.6094 366.286 12.8802 366.031 13.0781C365.812 13.25 365.549 13.3359 365.242 13.3359C365.091 13.3359 364.865 13.3255 364.562 13.3047C364.26 13.2891 364.034 13.2812 363.883 13.2812C363.091 13.2812 361.901 13.2995 360.312 13.3359C358.729 13.3776 357.542 13.3984 356.75 13.3984C356.411 13.3984 356.133 13.3125 355.914 13.1406C355.669 12.9531 355.547 12.6901 355.547 12.3516C355.547 11.9766 355.711 11.5312 356.039 11.0156C356.143 10.8542 356.438 10.4609 356.922 9.83594C357.776 8.69531 358.633 7.55729 359.492 6.42188C360.513 5.10938 361.469 4.04688 362.359 3.23438C361.547 3.29167 360.927 3.32031 360.5 3.32031H357.344C357.286 3.32031 357.203 3.32552 357.094 3.33594C356.984 3.34115 356.901 3.34375 356.844 3.34375C356.536 3.34375 356.276 3.25521 356.062 3.07812C355.823 2.88021 355.703 2.61458 355.703 2.28125C355.703 1.56771 356.232 1.21094 357.289 1.21094C357.648 1.21094 358.185 1.23438 358.898 1.28125C359.612 1.32292 360.148 1.34375 360.508 1.34375C360.909 1.34375 361.508 1.33333 362.305 1.3125C363.107 1.29167 363.708 1.28125 364.109 1.28125C365.661 1.28125 366.438 1.61979 366.438 2.29688C366.438 2.72917 366.094 3.1849 365.406 3.66406Z" fill="black"/>
</svg>
