<svg width="117" height="95" viewBox="0 0 117 95" fill="none" xmlns="http://www.w3.org/2000/svg">
<path d="M36.8132 94.8333C80.7732 94.8333 104.813 58.416 104.813 26.8374C104.813 25.8027 104.787 24.772 104.747 23.748C109.413 20.3747 113.466 16.1653 116.666 11.3746C112.386 13.2759 107.773 14.5587 102.947 15.1361C107.88 12.1787 111.667 7.496 113.453 1.916C108.827 4.65467 103.72 6.6453 98.2799 7.7173C93.9066 3.07197 87.7065 0.166652 80.8265 0.166652C67.6265 0.166652 56.9331 10.8693 56.9331 24.0626C56.9331 25.9386 57.1332 27.7626 57.5466 29.512C37.6799 28.5133 20.0798 19.004 8.29316 4.544C6.23983 8.07333 5.05319 12.1787 5.05319 16.5547C5.05319 24.8467 9.2665 32.1654 15.6932 36.448C11.7732 36.3267 8.07981 35.2493 4.86647 33.4573C4.85314 33.5573 4.85319 33.6573 4.85319 33.7626C4.85319 45.3373 13.0932 55 24.0265 57.192C22.0265 57.7374 19.9065 58.032 17.7331 58.032C16.1865 58.032 14.6931 57.88 13.2398 57.6013C16.2798 67.0959 25.1065 74.0053 35.5598 74.2C27.3865 80.6093 17.0799 84.4293 5.87988 84.4293C3.95988 84.4293 2.05319 84.32 0.186523 84.0987C10.7599 90.876 23.3199 94.8333 36.8132 94.8333Z" fill="white"/>
</svg>
