<svg width="96" height="80" viewBox="0 0 96 80" fill="none" xmlns="http://www.w3.org/2000/svg">
<path d="M95.811 1.71103C95.467 0.697694 95.0564 0.431028 94.415 0.177694C93.0124 -0.342306 90.6364 0.444361 90.6364 0.444361C90.6364 0.444361 6.52302 30.6844 1.71769 34.031C0.683021 34.751 0.336368 35.1777 0.164368 35.671C-0.666299 38.0444 1.92169 39.0977 1.92169 39.0977L23.6017 46.1644C23.6017 46.1644 24.4097 46.2844 24.6977 46.0977C29.6297 42.9777 74.319 14.7644 76.8964 13.8177C77.303 13.6977 77.6044 13.831 77.5244 14.111C76.4924 17.7377 37.6777 52.231 37.6777 52.231C37.6777 52.231 37.5297 52.4177 37.4364 52.631L37.3857 52.6044L35.363 74.111C35.363 74.111 34.515 80.6977 41.103 74.111C45.751 69.4577 50.2484 65.5644 52.499 63.6844C59.9537 68.831 67.9764 74.5244 71.439 77.4977C73.1777 78.991 74.6324 79.231 75.8297 79.191C79.1164 79.071 80.0337 75.4577 80.0337 75.4577C80.0337 75.4577 95.3617 13.7644 95.8737 5.4977C95.9244 4.68436 95.9937 4.17768 95.999 3.61768C96.0084 2.84435 95.9364 2.07103 95.811 1.71103Z" fill="white"/>
</svg>
