<svg width="596" height="422" viewBox="0 0 596 422" fill="none" xmlns="http://www.w3.org/2000/svg">
<path d="M28.6063 30.6342C30.2756 23.4599 35.1129 16.5551 35.9284 9.33309C41.5533 8.19557 46.7818 8.35115 53.9076 9.97167C68.4445 13.2776 84.7323 16.1614 99.981 14.3581C112.744 12.8488 125.72 9.75814 138.089 7.08584C158.787 2.6142 177.581 1.20715 199.078 2.41081C223.859 3.79834 248.723 3.67747 273.498 5.23892C289.986 6.27805 305.853 10.1206 322.383 11.0106C334.217 11.6477 346.023 12.2524 357.836 13.0884C374.354 14.2573 391.072 15.0575 407.658 15.3393C422.66 15.5942 437.121 13.7565 452.013 13.3769C483.998 12.5618 517.45 15.5843 548.689 20.5915C571.169 24.1948 558.841 41.1525 558.841 53.4322C558.841 71.6068 561.99 89.5312 567.899 107.166C574.353 126.425 581.433 145.671 585.235 165.344C587.476 176.935 585.06 188.057 585.86 199.628C586.531 209.331 584.806 218.03 584.22 227.563C583.43 240.404 588.203 253.049 588.203 265.886C588.203 273.075 587.561 279.841 589.14 287.011C590.285 292.211 591.041 295.906 589.765 301.093C582.772 329.517 600.623 358.184 591.17 386.629C585.35 404.144 571.59 408.1 547.908 408.1C536.053 408.1 521.964 409.858 511.362 414.102C499.497 418.852 480.996 414.567 468.256 414.391C451.137 414.154 433.994 414.333 416.872 414.333C401.377 414.333 385.951 415.372 370.486 415.372C357.022 415.372 345.481 412.576 332.535 410.408C309.814 406.604 287.09 402.047 263.737 401.001C255.772 400.644 246.016 399.866 239.06 403.425C220.318 413.015 198.604 421.354 175.26 419.816C145.845 417.879 118.614 408.949 90.454 403.136C78.2328 400.614 62.0756 400.47 50.6278 396.441C48.1774 395.579 45.8908 390.176 45.0053 388.649C41.4716 382.555 37.748 376.555 35.244 370.18C24.4802 342.778 29.6113 307.755 38.7581 280.316C41.4509 272.237 33.7884 266.238 29.4653 258.845C20.9793 244.333 17.6163 229.646 12.6759 214.519C4.84531 190.542 -1.69883 163.779 4.39827 139.199C9.67257 117.936 21.5966 97.0957 24.3894 75.4221C26.3112 60.5086 25.1594 45.4482 28.6063 30.6342Z" fill="white"/>
<path d="M35.9468 9.16364C35.1888 16.4471 30.2887 23.4038 28.6063 30.6342C25.1594 45.4482 26.3112 60.5086 24.3894 75.4221C21.5966 97.0957 9.67257 117.936 4.39827 139.199C-1.69883 163.779 4.84531 190.542 12.6759 214.519C17.6163 229.646 20.9793 244.333 29.4653 258.845C33.7884 266.238 41.4509 272.237 38.7581 280.316C29.6113 307.755 24.4802 342.778 35.244 370.18C37.748 376.555 41.4716 382.555 45.0053 388.649C45.8908 390.176 48.1774 395.579 50.6278 396.441C62.0756 400.47 78.2328 400.614 90.454 403.136C118.614 408.949 145.845 417.879 175.26 419.816C198.604 421.354 220.318 413.015 239.06 403.425C246.016 399.866 255.772 400.644 263.737 401.001C287.09 402.047 309.814 406.604 332.535 410.408C345.481 412.576 357.022 415.372 370.486 415.372C385.951 415.372 401.377 414.333 416.872 414.333C433.994 414.333 451.137 414.154 468.256 414.391C480.996 414.567 499.497 418.852 511.362 414.102C521.964 409.858 536.053 408.1 547.908 408.1C571.59 408.1 585.35 404.144 591.17 386.629C600.623 358.184 582.772 329.517 589.765 301.093C591.041 295.906 590.285 292.211 589.14 287.011C587.561 279.841 588.203 273.075 588.203 265.886C588.203 253.049 583.43 240.404 584.22 227.563C584.806 218.03 586.531 209.331 585.86 199.628C585.06 188.057 587.476 176.935 585.235 165.344C581.433 145.671 574.353 126.425 567.899 107.166C561.99 89.5312 558.841 71.6068 558.841 53.4322C558.841 41.1525 571.169 24.1948 548.689 20.5915C517.45 15.5843 483.998 12.5618 452.013 13.3769C437.121 13.7565 422.66 15.5942 407.658 15.3393C391.072 15.0575 374.354 14.2573 357.836 13.0884C346.023 12.2524 334.217 11.6477 322.383 11.0106C305.853 10.1206 289.986 6.27805 273.498 5.23892C248.723 3.67747 223.859 3.79834 199.078 2.41081C177.581 1.20715 158.787 2.6142 138.089 7.08584C125.72 9.75814 112.744 12.8488 99.981 14.3581C84.7323 16.1614 68.4445 13.2776 53.9076 9.97167C42.9336 7.476 36.4594 8.45478 26.1074 12.2803" stroke="white" stroke-width="3" stroke-linecap="round"/>
</svg>
